amirilatin-regular.sfdir
StartChar: exclam
Encoding: 33 33 1
Width: 482
Flags: W
LayerCount: 2
Fore
SplineSet
130 90 m 128,-1,1
 130 135 130 135 163.5 166.5 c 128,-1,2
 197 198 197 198 242 198 c 128,-1,3
 287 198 287 198 318.5 166.5 c 128,-1,4
 350 135 350 135 350 90 c 128,-1,5
 350 45 350 45 318.5 11.5 c 128,-1,6
 287 -22 287 -22 242 -22 c 128,-1,7
 197 -22 197 -22 163.5 11.5 c 128,-1,0
 130 45 130 45 130 90 c 128,-1,1
250 1284 m 0,8,9
 293 1284 293 1284 315.5 1248.5 c 128,-1,10
 338 1213 338 1213 338 1168 c 0,11,12
 338 1143 338 1143 330.5 1054.5 c 128,-1,13
 323 966 323 966 304 753.5 c 128,-1,14
 285 541 285 541 268 344 c 1,15,16
 256 320 256 320 236 318 c 1,17,18
 217 326 217 326 210 340 c 1,19,20
 150 1030 150 1030 150 1168 c 0,21,22
 150 1213 150 1213 177.5 1248.5 c 128,-1,23
 205 1284 205 1284 250 1284 c 0,8,9
EndSplineSet
Substitution2: "'smcp' Lowercase to Small Capitals lookup 2-1" exclam.sc
EndChar
StartChar: quotedbl
Encoding: 34 34 2
Width: 560
Flags: W
LayerCount: 2
Fore
SplineSet
422 1398 m 0,0,1
 453 1398 453 1398 474 1372 c 1,2,3
 474 1328 474 1328 464.5 1194.5 c 128,-1,4
 455 1061 455 1061 446 984 c 1,5,6
 434 960 434 960 406 946 c 1,7,8
 394 946 394 946 388 958 c 1,9,10
 318 1198 318 1198 318 1258 c 0,11,12
 318 1305 318 1305 348 1351.5 c 128,-1,13
 378 1398 378 1398 422 1398 c 0,0,1
182 1398 m 0,14,15
 213 1398 213 1398 234 1372 c 1,16,17
 234 1328 234 1328 224.5 1194.5 c 128,-1,18
 215 1061 215 1061 206 984 c 1,19,20
 194 960 194 960 166 946 c 1,21,22
 154 946 154 946 148 958 c 1,23,24
 78 1198 78 1198 78 1258 c 0,25,26
 78 1305 78 1305 108 1351.5 c 128,-1,27
 138 1398 138 1398 182 1398 c 0,14,15
EndSplineSet
EndChar
StartChar: percent
Encoding: 37 37 5
Width: 1334
Flags: W
LayerCount: 2
Fore
SplineSet
372 1242 m 0,0,1
 316 1242 316 1242 277.5 1203 c 128,-1,2
 239 1164 239 1164 223.5 1109.5 c 128,-1,3
 208 1055 208 1055 208 992 c 0,4,5
 208 885 208 885 263.5 792.5 c 128,-1,6
 319 700 319 700 392 700 c 0,7,8
 433 700 433 700 464 722.5 c 128,-1,9
 495 745 495 745 511 783 c 128,-1,10
 527 821 527 821 534.5 863 c 128,-1,11
 542 905 542 905 542 952 c 0,12,13
 542 1021 542 1021 522 1086.5 c 128,-1,14
 502 1152 502 1152 462 1197 c 128,-1,15
 422 1242 422 1242 372 1242 c 0,0,1
380 1290 m 0,16,17
 508 1290 508 1290 591 1195.5 c 128,-1,18
 674 1101 674 1101 674 968 c 0,19,20
 674 887 674 887 639.5 815 c 128,-1,21
 605 743 605 743 536 696.5 c 128,-1,22
 467 650 467 650 380 650 c 0,23,24
 255 650 255 650 167.5 743 c 128,-1,25
 80 836 80 836 80 968 c 0,26,27
 80 1104 80 1104 164.5 1197 c 128,-1,28
 249 1290 249 1290 380 1290 c 0,16,17
950 578 m 0,29,30
 894 578 894 578 855 539 c 128,-1,31
 816 500 816 500 800 445.5 c 128,-1,32
 784 391 784 391 784 328 c 0,33,34
 784 221 784 221 840.5 128.5 c 128,-1,35
 897 36 897 36 970 36 c 0,36,37
 1011 36 1011 36 1041.5 58.5 c 128,-1,38
 1072 81 1072 81 1088 119 c 128,-1,39
 1104 157 1104 157 1111 199 c 128,-1,40
 1118 241 1118 241 1118 288 c 0,41,42
 1118 357 1118 357 1098.5 422.5 c 128,-1,43
 1079 488 1079 488 1039.5 533 c 128,-1,44
 1000 578 1000 578 950 578 c 0,29,30
958 626 m 0,45,46
 1086 626 1086 626 1168 532 c 128,-1,47
 1250 438 1250 438 1250 304 c 0,48,49
 1250 177 1250 177 1169 81.5 c 128,-1,50
 1088 -14 1088 -14 956 -14 c 0,51,52
 831 -14 831 -14 743.5 79 c 128,-1,53
 656 172 656 172 656 304 c 0,54,55
 656 440 656 440 741 533 c 128,-1,56
 826 626 826 626 958 626 c 0,45,46
1196 1248 m 1,57,-1
 230 0 l 2,58,59
 224 -8 224 -8 202.5 -16 c 128,-1,60
 181 -24 181 -24 164 -24 c 0,61,62
 139 -24 139 -24 128 -2 c 1,63,-1
 1092 1248 l 1,64,65
 1112 1272 1112 1272 1132 1272 c 0,66,67
 1153 1272 1153 1272 1164 1270.5 c 128,-1,68
 1175 1269 1175 1269 1178.5 1267.5 c 128,-1,69
 1182 1266 1182 1266 1187 1259 c 128,-1,70
 1192 1252 1192 1252 1196 1248 c 1,57,-1
EndSplineSet
EndChar
StartChar: ampersand
Encoding: 38 38 6
Width: 1366
Flags: W
LayerCount: 2
Fore
SplineSet
812 190 m 1,0,1
 754 249 754 249 672 358.5 c 128,-1,2
 590 468 590 468 537 548 c 2,3,-1
 484 628 l 1,4,5
 440 598 440 598 419.5 583 c 128,-1,6
 399 568 399 568 366 538.5 c 128,-1,7
 333 509 333 509 318 484 c 128,-1,8
 303 459 303 459 290.5 422.5 c 128,-1,9
 278 386 278 386 278 344 c 0,10,11
 278 212 278 212 360 146 c 128,-1,12
 442 80 442 80 562 80 c 0,13,14
 624 80 624 80 694.5 110 c 128,-1,15
 765 140 765 140 812 190 c 1,0,1
626 1240 m 0,16,17
 560 1240 560 1240 514 1197 c 128,-1,18
 468 1154 468 1154 468 1086 c 0,19,20
 468 958 468 958 572 770 c 1,21,22
 641 810 641 810 680 843.5 c 128,-1,23
 719 877 719 877 744.5 931.5 c 128,-1,24
 770 986 770 986 770 1060 c 0,25,26
 770 1132 770 1132 730 1186 c 128,-1,27
 690 1240 690 1240 626 1240 c 0,16,17
616 1312 m 0,28,29
 750 1312 750 1312 828 1253.5 c 128,-1,30
 906 1195 906 1195 906 1088 c 0,31,32
 906 1023 906 1023 882.5 967 c 128,-1,33
 859 911 859 911 812.5 863.5 c 128,-1,34
 766 816 766 816 720.5 781.5 c 128,-1,35
 675 747 675 747 608 706 c 1,36,37
 725 509 725 509 904 308 c 1,38,39
 954 384 954 384 986 453.5 c 128,-1,40
 1018 523 1018 523 1018 542 c 0,41,42
 1018 560 1018 560 1000 567.5 c 128,-1,43
 982 575 982 575 955.5 576.5 c 128,-1,44
 929 578 929 578 928 578 c 0,45,46
 923 587 923 587 923.5 602.5 c 128,-1,47
 924 618 924 618 930 624 c 1,48,-1
 1088 624 l 2,49,50
 1119 624 1119 624 1152 625.5 c 128,-1,51
 1185 627 1185 627 1229.5 630 c 128,-1,52
 1274 633 1274 633 1308 634 c 1,53,54
 1312 631 1312 631 1311.5 604.5 c 128,-1,55
 1311 578 1311 578 1306 578 c 0,56,57
 1280 578 1280 578 1232 566 c 128,-1,58
 1184 554 1184 554 1168 544 c 0,59,60
 1165 542 1165 542 1139 498.5 c 128,-1,61
 1113 455 1113 455 1063 381.5 c 128,-1,62
 1013 308 1013 308 960 246 c 1,63,64
 1006 198 1006 198 1024 179.5 c 128,-1,65
 1042 161 1042 161 1071.5 134.5 c 128,-1,66
 1101 108 1101 108 1120 99 c 128,-1,67
 1139 90 1139 90 1156 90 c 0,68,69
 1184 90 1184 90 1217 123.5 c 128,-1,70
 1250 157 1250 157 1260 182 c 1,71,72
 1276 182 1276 182 1291 169.5 c 128,-1,73
 1306 157 1306 157 1306 146 c 1,74,75
 1301 134 1301 134 1295 123 c 128,-1,76
 1289 112 1289 112 1270 87.5 c 128,-1,77
 1251 63 1251 63 1229 45.5 c 128,-1,78
 1207 28 1207 28 1169 14 c 128,-1,79
 1131 0 1131 0 1088 0 c 0,80,81
 1055 0 1055 0 1019 15 c 128,-1,82
 983 30 983 30 955.5 51 c 128,-1,83
 928 72 928 72 905 93 c 128,-1,84
 882 114 882 114 870 129 c 2,85,-1
 858 144 l 1,86,87
 782 77 782 77 685.5 35.5 c 128,-1,88
 589 -6 589 -6 494 -6 c 0,89,90
 317 -6 317 -6 211.5 80 c 128,-1,91
 106 166 106 166 106 316 c 0,92,93
 106 385 106 385 132.5 443.5 c 128,-1,94
 159 502 159 502 210.5 549 c 128,-1,95
 262 596 262 596 313.5 629.5 c 128,-1,96
 365 663 365 663 438 700 c 1,97,98
 401 764 401 764 381 802.5 c 128,-1,99
 361 841 361 841 341.5 907.5 c 128,-1,100
 322 974 322 974 322 1038 c 0,101,102
 322 1153 322 1153 406.5 1232.5 c 128,-1,103
 491 1312 491 1312 616 1312 c 0,28,29
EndSplineSet
Substitution2: "'smcp' Lowercase to Small Capitals lookup 2-1" ampersand.sc
EndChar
StartChar: quotesingle
Encoding: 39 39 7
Width: 320
Flags: W
LayerCount: 2
Fore
SplineSet
182 1398 m 0,0,1
 213 1398 213 1398 234 1372 c 1,2,3
 234 1328 234 1328 224.5 1194.5 c 128,-1,4
 215 1061 215 1061 206 984 c 1,5,6
 194 960 194 960 166 946 c 1,7,8
 154 946 154 946 148 958 c 1,9,10
 78 1198 78 1198 78 1258 c 0,11,12
 78 1305 78 1305 108 1351.5 c 128,-1,13
 138 1398 138 1398 182 1398 c 0,0,1
EndSplineSet
Substitution2: "'smcp' Lowercase to Small Capitals lookup 2-1" quotesingle.sc
EndChar
StartChar: parenleft
Encoding: 40 40 8
Width: 524
Flags: W
LayerCount: 2
Fore
SplineSet
220 570 m 128,-1,1
 220 324 220 324 298 92 c 128,-1,2
 376 -140 376 -140 512 -260 c 0,3,4
 513 -260 513 -260 506.5 -268 c 128,-1,5
 500 -276 500 -276 490 -286 c 128,-1,6
 480 -296 480 -296 474 -300 c 1,7,8
 290 -155 290 -155 182 67.5 c 128,-1,9
 74 290 74 290 74 570 c 0,10,11
 74 851 74 851 181.5 1072 c 128,-1,12
 289 1293 289 1293 474 1438 c 1,13,14
 480 1434 480 1434 490 1424 c 128,-1,15
 500 1414 500 1414 506.5 1406 c 128,-1,16
 513 1398 513 1398 512 1398 c 0,17,18
 376 1277 376 1277 298 1046.5 c 128,-1,0
 220 816 220 816 220 570 c 128,-1,1
EndSplineSet
Substitution2: "'smcp' Lowercase to Small Capitals lookup 2-1" parenleft.sc
EndChar
StartChar: parenright
Encoding: 41 41 9
Width: 524
Flags: W
LayerCount: 2
Fore
SplineSet
450 570 m 0,0,1
 450 290 450 290 342 67.5 c 128,-1,2
 234 -155 234 -155 50 -300 c 1,3,4
 44 -296 44 -296 34 -286 c 128,-1,5
 24 -276 24 -276 17.5 -268 c 128,-1,6
 11 -260 11 -260 12 -260 c 0,7,8
 148 -140 148 -140 226 92 c 128,-1,9
 304 324 304 324 304 570 c 128,-1,10
 304 816 304 816 226 1046.5 c 128,-1,11
 148 1277 148 1277 12 1398 c 0,12,13
 11 1398 11 1398 17.5 1406 c 128,-1,14
 24 1414 24 1414 34 1424 c 128,-1,15
 44 1434 44 1434 50 1438 c 1,16,17
 235 1293 235 1293 342.5 1072 c 128,-1,18
 450 851 450 851 450 570 c 0,0,1
EndSplineSet
Substitution2: "'smcp' Lowercase to Small Capitals lookup 2-1" parenright.sc
EndChar
StartChar: asterisk
Encoding: 42 42 10
Width: 886
Flags: W
LayerCount: 2
Fore
SplineSet
603 1226 m 0,0,1
 630 1256 630 1256 660.5 1263.5 c 128,-1,2
 691 1271 691 1271 715 1250 c 1,3,4
 739 1226 739 1226 735.5 1195 c 128,-1,5
 732 1164 732 1164 703 1138 c 0,6,7
 667 1105 667 1105 601.5 1070.5 c 128,-1,8
 536 1036 536 1036 509 1010 c 0,9,10
 508 1008 508 1008 506 1004.5 c 128,-1,11
 504 1001 504 1001 501 993.5 c 128,-1,12
 498 986 498 986 499 982 c 0,13,14
 502 969 502 969 519 962 c 0,15,16
 552 947 552 947 619.5 935 c 128,-1,17
 687 923 687 923 733 902 c 0,18,19
 769 886 769 886 786.5 858.5 c 128,-1,20
 804 831 804 831 791 804 c 0,21,22
 776 774 776 774 745 768 c 128,-1,23
 714 762 714 762 681 780 c 0,24,25
 637 804 637 804 584 855.5 c 128,-1,26
 531 907 531 907 499 924 c 0,27,28
 497 925 497 925 494 926.5 c 128,-1,29
 491 928 491 928 482.5 930.5 c 128,-1,30
 474 933 474 933 471 930 c 1,31,32
 467 928 467 928 464.5 924.5 c 128,-1,33
 462 921 462 921 461.5 918.5 c 128,-1,34
 461 916 461 916 460 911 c 128,-1,35
 459 906 459 906 459 904 c 0,36,37
 455 868 455 868 463.5 800 c 128,-1,38
 472 732 472 732 467 682 c 1,39,40
 462 643 462 643 441.5 618.5 c 128,-1,41
 421 594 421 594 391 598 c 0,42,43
 358 602 358 602 342.5 629 c 128,-1,44
 327 656 327 656 335 694 c 1,45,46
 344 743 344 743 377 810.5 c 128,-1,47
 410 878 410 878 417 914 c 1,48,49
 419 932 419 932 411 940 c 1,50,51
 404 950 404 950 385 946 c 0,52,53
 351 939 351 939 288.5 909 c 128,-1,54
 226 879 226 879 175 868 c 0,55,56
 137 860 137 860 106 872 c 128,-1,57
 75 884 75 884 71 914 c 1,58,59
 65 946 65 946 87 969.5 c 128,-1,60
 109 993 109 993 147 998 c 0,61,62
 197 1004 197 1004 269.5 993.5 c 128,-1,63
 342 983 342 983 379 988 c 1,64,65
 397 994 397 994 401 1004 c 0,66,67
 406 1017 406 1017 397 1032 c 0,68,69
 379 1063 379 1063 331.5 1113.5 c 128,-1,70
 284 1164 284 1164 259 1208 c 0,71,72
 240 1240 240 1240 242.5 1273 c 128,-1,73
 245 1306 245 1306 271 1320 c 0,74,75
 301 1335 301 1335 328.5 1322 c 128,-1,76
 356 1309 356 1309 373 1274 c 0,77,78
 394 1229 394 1229 406.5 1156.5 c 128,-1,79
 419 1084 419 1084 435 1050 c 0,80,81
 445 1030 445 1030 455 1028 c 0,82,83
 467 1026 467 1026 481 1040 c 0,84,85
 506 1067 506 1067 538 1128 c 128,-1,86
 570 1189 570 1189 603 1226 c 0,0,1
EndSplineSet
EndChar
StartChar: plus
Encoding: 43 43 11
Width: 1084
Flags: W
LayerCount: 2
Fore
SplineSet
484 948 m 1,0,1
 543 970 543 970 570 970 c 0,2,3
 579 970 579 970 585.5 967 c 128,-1,4
 592 964 592 964 594 961 c 2,5,-1
 596 958 l 1,6,-1
 596 548 l 1,7,-1
 1004 548 l 2,8,9
 1011 548 1011 548 1016.5 541.5 c 128,-1,10
 1022 535 1022 535 1022 524 c 0,11,12
 1022 500 1022 500 1012.5 474.5 c 128,-1,13
 1003 449 1003 449 990 436 c 1,14,-1
 596 436 l 1,15,-1
 596 32 l 1,16,17
 567 10 567 10 510 10 c 0,18,19
 500 10 500 10 492 16 c 128,-1,20
 484 22 484 22 484 28 c 2,21,-1
 484 436 l 1,22,-1
 74 436 l 2,23,24
 62 436 62 436 62 456 c 0,25,26
 62 469 62 469 70.5 503.5 c 128,-1,27
 79 538 79 538 92 548 c 1,28,-1
 484 548 l 1,29,-1
 484 948 l 1,0,1
EndSplineSet
EndChar
StartChar: comma
Encoding: 44 44 12
Width: 402
Flags: W
LayerCount: 2
Fore
SplineSet
212 246 m 0,0,1
 240 246 240 246 264 232 c 1,2,3
 300 170 300 170 300 92 c 0,4,5
 300 8 300 8 221 -113.5 c 128,-1,6
 142 -235 142 -235 64 -278 c 1,7,8
 54 -278 54 -278 44 -262 c 128,-1,9
 34 -246 34 -246 34 -236 c 1,10,11
 57 -219 57 -219 72 -205.5 c 128,-1,12
 87 -192 87 -192 111 -163.5 c 128,-1,13
 135 -135 135 -135 147.5 -97 c 128,-1,14
 160 -59 160 -59 160 -14 c 0,15,16
 160 18 160 18 127 63 c 128,-1,17
 94 108 94 108 94 148 c 0,18,19
 94 183 94 183 127.5 214.5 c 128,-1,20
 161 246 161 246 212 246 c 0,0,1
EndSplineSet
Substitution2: "'smcp' Lowercase to Small Capitals lookup 2-1" comma.sc
Substitution2: "'c2sc' Capitals to Small Capitals in Latin lookup 0 subtable" comma.sc
EndChar
StartChar: hyphen
Encoding: 45 45 13
Width: 754
Flags: W
LayerCount: 2
Fore
SplineSet
142 522 m 1,0,1
 558 544 558 544 624 546 c 0,2,3
 638 546 638 546 638 528 c 0,4,5
 638 475 638 475 612 420 c 1,6,7
 571 417 571 417 130 398 c 0,8,9
 116 398 116 398 116 420 c 0,10,11
 116 466 116 466 142 522 c 1,0,1
EndSplineSet
EndChar
StartChar: slash
Encoding: 47 47 14
Width: 826
Flags: W
LayerCount: 2
Fore
SplineSet
738 1522 m 0,0,1
 758 1522 758 1522 764 1504 c 1,2,-1
 174 -24 l 2,3,4
 168 -39 168 -39 147 -54.5 c 128,-1,5
 126 -70 126 -70 96 -70 c 0,6,7
 83 -70 83 -70 74 -66.5 c 128,-1,8
 65 -63 65 -63 62.5 -59.5 c 2,9,-1
 60 -56 l 1,10,-1
 658 1492 l 2,11,12
 659 1496 659 1496 668.5 1502.5 c 128,-1,13
 678 1509 678 1509 697 1515.5 c 128,-1,14
 716 1522 716 1522 738 1522 c 0,0,1
EndSplineSet
Substitution2: "'smcp' Lowercase to Small Capitals lookup 2-1" slash.sc
EndChar
StartChar: zero
Encoding: 48 48 15
Width: 1090
Flags: W
LayerCount: 2
Fore
SplineSet
556 1208 m 0,0,1
 474 1208 474 1208 411.5 1131 c 128,-1,2
 349 1054 349 1054 316.5 926 c 128,-1,3
 284 798 284 798 284 640 c 0,4,5
 284 484 284 484 315.5 353.5 c 128,-1,6
 347 223 347 223 405.5 145.5 c 128,-1,7
 464 68 464 68 536 68 c 0,8,9
 622 68 622 68 684 149 c 128,-1,10
 746 230 746 230 775 359.5 c 128,-1,11
 804 489 804 489 804 650 c 0,12,13
 804 806 804 806 773 933 c 128,-1,14
 742 1060 742 1060 685 1134 c 128,-1,15
 628 1208 628 1208 556 1208 c 0,0,1
544 1282 m 0,16,17
 679 1282 679 1282 780 1193 c 128,-1,18
 881 1104 881 1104 930.5 959.5 c 128,-1,19
 980 815 980 815 980 638 c 0,20,21
 980 462 980 462 929.5 317 c 128,-1,22
 879 172 879 172 778.5 83 c 128,-1,23
 678 -6 678 -6 544 -6 c 0,24,25
 412 -6 412 -6 311.5 83 c 128,-1,26
 211 172 211 172 159.5 317 c 128,-1,27
 108 462 108 462 108 638 c 128,-1,28
 108 814 108 814 158.5 959 c 128,-1,29
 209 1104 209 1104 309.5 1193 c 128,-1,30
 410 1282 410 1282 544 1282 c 0,16,17
EndSplineSet
Substitution2: "'pnum' Proportional Numbers lookup 12-1" zero.prop
Substitution2: "'zero' Slashed Zero lookup 11-1" zero.slash
Substitution2: "'onum' Oldstyle Figures lookup 3-1" zero.onum
Substitution2: "'ordn' Ordinals lookup 0-1" zero.ordn
EndChar
StartChar: one
Encoding: 49 49 16
Width: 1090
Flags: W
LayerCount: 2
Fore
SplineSet
494 232 m 2,0,-1
 494 1040 l 2,1,2
 494 1082 494 1082 484 1099 c 128,-1,3
 474 1116 474 1116 452 1116 c 0,4,5
 419 1116 419 1116 312 1076 c 1,6,7
 292 1092 292 1092 292 1110 c 0,8,9
 292 1121 292 1121 296 1122 c 0,10,11
 365 1153 365 1153 453.5 1195 c 128,-1,12
 542 1237 542 1237 592 1260.5 c 128,-1,13
 642 1284 642 1284 644 1284 c 2,14,-1
 648 1284 l 2,15,16
 662 1284 662 1284 668 1252 c 1,17,18
 652 1180 652 1180 652 1058 c 2,19,-1
 652 232 l 2,20,21
 652 116 652 116 662 84 c 0,22,23
 666 70 666 70 713.5 61 c 128,-1,24
 761 52 761 52 790 52 c 1,25,26
 796 44 796 44 796.5 23 c 128,-1,27
 797 2 797 2 790 -6 c 1,28,29
 585 4 585 4 568 4 c 0,30,31
 559 4 559 4 354 -6 c 1,32,33
 347 2 347 2 347.5 23 c 128,-1,34
 348 44 348 44 354 52 c 1,35,36
 383 52 383 52 430.5 61 c 128,-1,37
 478 70 478 70 482 84 c 0,38,39
 494 122 494 122 494 232 c 2,0,-1
EndSplineSet
Substitution2: "'pnum' Proportional Numbers lookup 12-1" one.prop
Substitution2: "'onum' Oldstyle Figures lookup 3-1" one.onum
Substitution2: "'ordn' Ordinals lookup 0-1" one.ordn
EndChar
StartChar: three
Encoding: 51 51 18
Width: 1090
Flags: W
LayerCount: 2
Fore
SplineSet
564 1284 m 0,0,1
 604 1284 604 1284 648.5 1266.5 c 128,-1,2
 693 1249 693 1249 733 1218 c 128,-1,3
 773 1187 773 1187 799.5 1136.5 c 128,-1,4
 826 1086 826 1086 826 1028 c 0,5,6
 826 982 826 982 807.5 937.5 c 128,-1,7
 789 893 789 893 758.5 859 c 128,-1,8
 728 825 728 825 699 800.5 c 128,-1,9
 670 776 670 776 640 758 c 1,10,11
 685 752 685 752 732 728 c 128,-1,12
 779 704 779 704 822 665 c 128,-1,13
 865 626 865 626 892.5 566 c 128,-1,14
 920 506 920 506 920 436 c 0,15,16
 920 337 920 337 876 251.5 c 128,-1,17
 832 166 832 166 760 109.5 c 128,-1,18
 688 53 688 53 597 21.5 c 128,-1,19
 506 -10 506 -10 412 -10 c 0,20,21
 300 -10 300 -10 208 36 c 1,22,23
 196 44 196 44 182 67.5 c 128,-1,24
 168 91 168 91 168 112 c 0,25,26
 168 154 168 154 193 181 c 128,-1,27
 218 208 218 208 252 208 c 0,28,29
 277 208 277 208 296 195 c 128,-1,30
 315 182 315 182 336 154.5 c 128,-1,31
 357 127 357 127 364 120 c 0,32,33
 414 70 414 70 512 70 c 0,34,35
 554 70 554 70 594 87 c 128,-1,36
 634 104 634 104 669.5 138.5 c 128,-1,37
 705 173 705 173 726.5 235.5 c 128,-1,38
 748 298 748 298 748 380 c 0,39,40
 748 499 748 499 671 580.5 c 128,-1,41
 594 662 594 662 492 662 c 0,42,43
 473 662 473 662 450.5 657.5 c 128,-1,44
 428 653 428 653 401.5 645 c 128,-1,45
 375 637 375 637 372 636 c 1,46,47
 360 651 360 651 360 676 c 0,48,49
 360 690 360 690 364 696 c 1,50,51
 428 710 428 710 481 733.5 c 128,-1,52
 534 757 534 757 579.5 792.5 c 128,-1,53
 625 828 625 828 650.5 879 c 128,-1,54
 676 930 676 930 676 992 c 0,55,56
 676 1072 676 1072 620.5 1125 c 128,-1,57
 565 1178 565 1178 480 1178 c 0,58,59
 437 1178 437 1178 394.5 1158.5 c 128,-1,60
 352 1139 352 1139 328 1118 c 128,-1,61
 304 1097 304 1097 281 1072 c 128,-1,62
 258 1047 258 1047 256 1046 c 1,63,64
 247 1046 247 1046 239.5 1061 c 128,-1,65
 232 1076 232 1076 232 1090 c 1,66,67
 287 1171 287 1171 372 1227.5 c 128,-1,68
 457 1284 457 1284 564 1284 c 0,0,1
EndSplineSet
Substitution2: "'pnum' Proportional Numbers lookup 12-1" three.prop
Substitution2: "'onum' Oldstyle Figures lookup 3-1" three.onum
Substitution2: "'ordn' Ordinals lookup 0-1" three.ordn
EndChar
StartChar: six
Encoding: 54 54 21
Width: 1090
Flags: W
LayerCount: 2
Fore
SplineSet
326 612 m 1,0,1
 318 556 318 556 318 476 c 0,2,3
 318 406 318 406 333 334 c 128,-1,4
 348 262 348 262 375.5 198 c 128,-1,5
 403 134 403 134 450 94 c 128,-1,6
 497 54 497 54 554 54 c 0,7,8
 649 54 649 54 711.5 143.5 c 128,-1,9
 774 233 774 233 774 368 c 0,10,11
 774 457 774 457 749.5 528 c 128,-1,12
 725 599 725 599 666.5 645.5 c 128,-1,13
 608 692 608 692 522 692 c 0,14,15
 399 692 399 692 326 612 c 1,0,1
578 790 m 0,16,17
 658 790 658 790 723 763.5 c 128,-1,18
 788 737 788 737 828 696.5 c 128,-1,19
 868 656 868 656 895 603.5 c 128,-1,20
 922 551 922 551 933 501.5 c 128,-1,21
 944 452 944 452 944 406 c 0,22,23
 944 236 944 236 825.5 112 c 128,-1,24
 707 -12 707 -12 538 -12 c 0,25,26
 451 -12 451 -12 375.5 28 c 128,-1,27
 300 68 300 68 251 133 c 128,-1,28
 202 198 202 198 174 278 c 128,-1,29
 146 358 146 358 146 440 c 0,30,31
 146 594 146 594 195 730.5 c 128,-1,32
 244 867 244 867 338 970 c 0,33,34
 440 1082 440 1082 590.5 1170.5 c 128,-1,35
 741 1259 741 1259 874 1294 c 1,36,37
 886 1294 886 1294 892 1272.5 c 128,-1,38
 898 1251 898 1251 898 1236 c 1,39,40
 441 1089 441 1089 342 700 c 1,41,42
 392 742 392 742 458 766 c 128,-1,43
 524 790 524 790 578 790 c 0,16,17
EndSplineSet
Substitution2: "'pnum' Proportional Numbers lookup 12-1" six.prop
Substitution2: "'onum' Oldstyle Figures lookup 3-1" six.onum
Substitution2: "'ordn' Ordinals lookup 0-1" six.ordn
EndChar
StartChar: seven
Encoding: 55 55 22
Width: 1090
Flags: W
LayerCount: 2
Fore
SplineSet
816 1266 m 2,0,1
 847 1266 847 1266 899 1269 c 128,-1,2
 951 1272 951 1272 952 1272 c 0,3,4
 964 1272 964 1272 964 1254 c 0,5,6
 964 1245 964 1245 958.5 1229 c 128,-1,7
 953 1213 953 1213 946.5 1199 c 128,-1,8
 940 1185 940 1185 927.5 1159.5 c 128,-1,9
 915 1134 915 1134 908 1120 c 2,10,-1
 380 -4 l 1,11,12
 374 -10 374 -10 360 -10 c 0,13,14
 335 -10 335 -10 303.5 1.5 c 128,-1,15
 272 13 272 13 272 26 c 1,16,17
 364 165 364 165 506 438.5 c 128,-1,18
 648 712 648 712 744 916 c 2,19,-1
 840 1120 l 1,20,-1
 332 1120 l 2,21,22
 274 1120 274 1120 242.5 1084.5 c 128,-1,23
 211 1049 211 1049 188 966 c 1,24,25
 186 954 186 954 164 954 c 0,26,27
 140 954 140 954 124 966 c 1,28,29
 184 1157 184 1157 208 1266 c 1,30,-1
 816 1266 l 2,0,1
EndSplineSet
Substitution2: "'pnum' Proportional Numbers lookup 12-1" seven.prop
Substitution2: "'onum' Oldstyle Figures lookup 3-1" seven.onum
Substitution2: "'ordn' Ordinals lookup 0-1" seven.ordn
EndChar
StartChar: less
Encoding: 60 60 27
Width: 984
Flags: W
LayerCount: 2
Fore
SplineSet
888 70 m 0,0,1
 888 56 888 56 876 13 c 128,-1,2
 864 -30 864 -30 856 -30 c 0,3,4
 854 -30 854 -30 846 -26 c 2,5,-1
 96 354 l 2,6,7
 60 373 60 373 60 434 c 0,8,9
 60 464 60 464 96 482 c 2,10,-1
 834 856 l 2,11,12
 842 860 842 860 844 860 c 0,13,14
 860 860 860 860 878 766 c 0,15,16
 879 761 879 761 877.5 756.5 c 128,-1,17
 876 752 876 752 874 750 c 2,18,-1
 872 748 l 1,19,-1
 220 418 l 1,20,-1
 882 82 l 2,21,22
 888 80 888 80 888 70 c 0,0,1
EndSplineSet
Substitution2: "'smcp' Lowercase to Small Capitals lookup 2-1" less.sc
EndChar
StartChar: greater
Encoding: 62 62 29
Width: 986
Flags: W
LayerCount: 2
Fore
SplineSet
96 70 m 0,0,1
 96 74 96 74 97.5 77 c 128,-1,2
 99 80 99 80 100.5 81 c 2,3,-1
 102 82 l 1,4,-1
 764 418 l 1,5,-1
 114 748 l 2,6,7
 108 750 108 750 108 764 c 0,8,9
 108 789 108 789 120.5 824.5 c 128,-1,10
 133 860 133 860 140 860 c 0,11,12
 142 860 142 860 150 856 c 2,13,-1
 890 482 l 2,14,15
 924 465 924 465 924 434 c 0,16,17
 924 372 924 372 890 354 c 2,18,-1
 140 -26 l 2,19,20
 132 -30 132 -30 130 -30 c 0,21,22
 122 -30 122 -30 109 12.5 c 128,-1,23
 96 55 96 55 96 70 c 0,0,1
EndSplineSet
Substitution2: "'smcp' Lowercase to Small Capitals lookup 2-1" greater.sc
EndChar
StartChar: at
Encoding: 64 64 31
Width: 1496
Flags: W
LayerCount: 2
Fore
SplineSet
836 1156 m 0,0,1
 950 1156 950 1156 1047 1122 c 128,-1,2
 1144 1088 1144 1088 1212.5 1029 c 128,-1,3
 1281 970 1281 970 1329.5 891.5 c 128,-1,4
 1378 813 1378 813 1401 724 c 128,-1,5
 1424 635 1424 635 1424 540 c 0,6,7
 1424 389 1424 389 1370.5 262 c 128,-1,8
 1317 135 1317 135 1222 60.5 c 128,-1,9
 1127 -14 1127 -14 1012 -14 c 0,10,11
 935 -14 935 -14 890.5 28 c 128,-1,12
 846 70 846 70 846 158 c 0,13,14
 846 213 846 213 860 250 c 1,15,16
 843 218 843 218 815 177.5 c 128,-1,17
 787 137 787 137 749 93 c 128,-1,18
 711 49 711 49 665 19.5 c 128,-1,19
 619 -10 619 -10 578 -10 c 0,20,21
 489 -10 489 -10 438.5 69 c 128,-1,22
 388 148 388 148 388 260 c 0,23,24
 388 367 388 367 439.5 478 c 128,-1,25
 491 589 491 589 571 675 c 128,-1,26
 651 761 651 761 755.5 815.5 c 128,-1,27
 860 870 860 870 960 870 c 0,28,29
 1035 870 1035 870 1106 844 c 1,30,-1
 984 212 l 1,31,32
 978 188 978 188 978 162 c 0,33,34
 978 116 978 116 1004.5 94 c 128,-1,35
 1031 72 1031 72 1074 72 c 0,36,37
 1121 72 1121 72 1169.5 109.5 c 128,-1,38
 1218 147 1218 147 1256.5 208.5 c 128,-1,39
 1295 270 1295 270 1319.5 356.5 c 128,-1,40
 1344 443 1344 443 1344 534 c 0,41,42
 1344 617 1344 617 1325 694.5 c 128,-1,43
 1306 772 1306 772 1265 841.5 c 128,-1,44
 1224 911 1224 911 1165.5 963 c 128,-1,45
 1107 1015 1107 1015 1022 1045.5 c 128,-1,46
 937 1076 937 1076 836 1076 c 0,47,48
 717 1076 717 1076 611 1033 c 128,-1,49
 505 990 505 990 427.5 917 c 128,-1,50
 350 844 350 844 292.5 749.5 c 128,-1,51
 235 655 235 655 206.5 550 c 128,-1,52
 178 445 178 445 178 340 c 0,53,54
 178 173 178 173 253.5 42 c 128,-1,55
 329 -89 329 -89 444 -156 c 0,56,57
 520 -200 520 -200 594 -212 c 1,58,59
 594 -223 594 -223 567.5 -235.5 c 128,-1,60
 541 -248 541 -248 522 -248 c 0,61,62
 475 -248 475 -248 444 -236 c 0,63,64
 300 -183 300 -183 199 -23.5 c 128,-1,65
 98 136 98 136 98 340 c 0,66,67
 98 458 98 458 129.5 575 c 128,-1,68
 161 692 161 692 224.5 796.5 c 128,-1,69
 288 901 288 901 375 981.5 c 128,-1,70
 462 1062 462 1062 581.5 1109 c 128,-1,71
 701 1156 701 1156 836 1156 c 0,0,1
876 778 m 3,72,73
 820 778 820 778 758.5 735.5 c 128,-1,74
 697 693 697 693 648 626.5 c 128,-1,75
 599 560 599 560 567.5 473 c 128,-1,76
 536 386 536 386 536 302 c 0,77,78
 536 106 536 106 638 106 c 0,79,80
 686 106 686 106 745.5 176.5 c 128,-1,81
 805 247 805 247 852 349.5 c 128,-1,82
 899 452 899 452 918 548 c 2,83,-1
 958 752 l 1,84,85
 935 778 935 778 876 778 c 3,72,73
EndSplineSet
Substitution2: "'smcp' Lowercase to Small Capitals lookup 2-1" at.sc
EndChar
StartChar: A
Encoding: 65 65 32
Width: 1254
Flags: W
LayerCount: 2
Fore
SplineSet
190 278 m 0,0,1
 454 957 454 957 576 1268 c 1,2,3
 584 1283 584 1283 611.5 1304.5 c 128,-1,4
 639 1326 639 1326 652 1326 c 0,5,6
 655 1326 655 1326 658.5 1323.5 c 128,-1,7
 662 1321 662 1321 664 1320 c 1,8,-1
 1071 252 l 2,9,10
 1121 123 1121 123 1122 120 c 0,11,12
 1135 89 1135 89 1184.5 70.5 c 128,-1,13
 1234 52 1234 52 1258 52 c 1,14,15
 1264 43 1264 43 1264 22.5 c 128,-1,16
 1264 2 1264 2 1262 -6 c 1,17,18
 1062 4 1062 4 1042 4 c 0,19,20
 1001 4 1001 4 965.5 2.5 c 128,-1,21
 930 1 930 1 886 -2 c 128,-1,22
 842 -5 842 -5 810 -6 c 1,23,24
 803 2 803 2 803.5 23 c 128,-1,25
 804 44 804 44 812 52 c 1,26,27
 835 52 835 52 873.5 59.5 c 128,-1,28
 912 67 912 67 924 78 c 0,29,30
 932 86 932 86 932 106 c 0,31,32
 932 133 932 133 898 230.5 c 128,-1,33
 864 328 864 328 830 412 c 2,34,-1
 796 496 l 1,35,36
 790 504 790 504 784 504 c 0,37,38
 758 506 758 506 586 506 c 0,39,40
 460 506 460 506 370 500 c 1,41,-1
 360 494 l 1,42,43
 304 346 304 346 270 250 c 0,44,45
 242 168 242 168 242 108 c 0,46,47
 242 91 242 91 260.5 79 c 128,-1,48
 279 67 279 67 305.5 61.5 c 128,-1,49
 332 56 332 56 351 54 c 128,-1,50
 370 52 370 52 380 52 c 1,51,52
 384 48 384 48 385.5 25.5 c 128,-1,53
 387 3 387 3 384 -6 c 1,54,55
 355 -5 355 -5 321 -2 c 128,-1,56
 287 1 287 1 258 2.5 c 128,-1,57
 229 4 229 4 190 4 c 0,58,59
 149 4 149 4 117.5 2.5 c 128,-1,60
 86 1 86 1 48 -2 c 128,-1,61
 10 -5 10 -5 -24 -6 c 1,62,63
 -28 -2 -28 -2 -28 20 c 128,-1,64
 -28 42 -28 42 -24 52 c 1,65,66
 1 52 1 52 42 62.5 c 128,-1,67
 83 73 83 73 96 90 c 0,68,69
 138 145 138 145 190 278 c 0,0,1
582 1084 m 1,70,-1
 398 596 l 1,71,72
 398 588 398 588 402 588 c 0,73,74
 506 584 506 584 584 584 c 0,75,76
 659 584 659 584 752 590 c 0,77,78
 754 590 754 590 755.5 592.5 c 128,-1,79
 757 595 757 595 757.5 597.5 c 2,80,-1
 758 600 l 1,81,-1
 582 1084 l 1,70,-1
EndSplineSet
EndChar
StartChar: B
Encoding: 66 66 33
Width: 1192
Flags: W
LayerCount: 2
Fore
SplineSet
413 664 m 1,0,-1
 413 230 l 1,1,2
 412 201 412 201 417 152 c 128,-1,3
 422 103 422 103 431 94 c 0,4,5
 452 72 452 72 488.5 65 c 128,-1,6
 525 58 525 58 589 58 c 0,7,8
 907 58 907 58 907 352 c 0,9,10
 907 664 907 664 535 664 c 2,11,-1
 413 664 l 1,0,-1
413 740 m 1,12,-1
 580 740 l 2,13,14
 705 740 705 740 768 809 c 128,-1,15
 831 878 831 878 831 974 c 0,16,17
 831 1106 831 1106 747.5 1180 c 128,-1,18
 664 1254 664 1254 523 1254 c 0,19,20
 432 1254 432 1254 423 1234 c 0,21,22
 411 1205 411 1205 413 1084 c 1,23,-1
 413 740 l 1,12,-1
611 1318 m 0,24,25
 669 1318 669 1318 723 1309 c 128,-1,26
 777 1300 777 1300 831 1278.5 c 128,-1,27
 885 1257 885 1257 924.5 1224 c 128,-1,28
 964 1191 964 1191 988.5 1138.5 c 128,-1,29
 1013 1086 1013 1086 1013 1020 c 0,30,31
 1013 917 1013 917 945.5 836 c 128,-1,32
 878 755 878 755 811 730 c 0,33,34
 802 726 802 726 811 720 c 1,35,36
 850 718 850 718 899 695 c 128,-1,37
 948 672 948 672 994.5 632.5 c 128,-1,38
 1041 593 1041 593 1073 530.5 c 128,-1,39
 1105 468 1105 468 1105 398 c 0,40,41
 1105 215 1105 215 970 102 c 0,42,43
 845 -2 845 -2 551 -6 c 1,44,-1
 91 -6 l 1,45,46
 84 2 84 2 84.5 23 c 128,-1,47
 85 44 85 44 91 52 c 1,48,49
 121 52 121 52 173 61 c 128,-1,50
 225 70 225 70 229 84 c 0,51,52
 239 116 239 116 239 232 c 2,53,-1
 239 1086 l 2,54,55
 239 1202 239 1202 229 1234 c 0,56,57
 225 1248 225 1248 173 1257 c 128,-1,58
 121 1266 121 1266 91 1266 c 1,59,60
 85 1274 85 1274 84.5 1295 c 128,-1,61
 84 1316 84 1316 91 1324 c 1,62,63
 296 1314 296 1314 327 1314 c 0,64,65
 361 1314 361 1314 454 1316 c 128,-1,66
 547 1318 547 1318 611 1318 c 0,24,25
EndSplineSet
EndChar
StartChar: D
Encoding: 68 68 35
Width: 1420
Flags: W
LayerCount: 2
Fore
SplineSet
415 1082 m 1,0,-1
 415 230 l 2,1,2
 415 100 415 100 427 86 c 1,3,4
 447 58 447 58 591 58 c 0,5,6
 700 58 700 58 794 92.5 c 128,-1,7
 888 127 888 127 962 195 c 128,-1,8
 1036 263 1036 263 1078.5 373.5 c 128,-1,9
 1121 484 1121 484 1121 626 c 0,10,11
 1121 758 1121 758 1090.5 864.5 c 128,-1,12
 1060 971 1060 971 1008 1042 c 128,-1,13
 956 1113 956 1113 884 1161 c 128,-1,14
 812 1209 812 1209 732 1230.5 c 128,-1,15
 652 1252 652 1252 563 1252 c 0,16,17
 432 1252 432 1252 425 1230 c 0,18,19
 413 1192 413 1192 415 1082 c 1,0,-1
617 1316 m 0,20,21
 778 1316 778 1316 911 1266.5 c 128,-1,22
 1044 1217 1044 1217 1133 1130.5 c 128,-1,23
 1222 1044 1222 1044 1270.5 925 c 128,-1,24
 1319 806 1319 806 1319 668 c 0,25,26
 1319 561 1319 561 1298 467 c 128,-1,27
 1277 373 1277 373 1224.5 284.5 c 128,-1,28
 1172 196 1172 196 1091.5 133 c 128,-1,29
 1011 70 1011 70 883 32 c 128,-1,30
 755 -6 755 -6 591 -6 c 2,31,-1
 91 -6 l 1,32,33
 84 2 84 2 84.5 23 c 128,-1,34
 85 44 85 44 91 52 c 1,35,36
 121 52 121 52 173 61 c 128,-1,37
 225 70 225 70 229 84 c 0,38,39
 239 116 239 116 239 232 c 2,40,-1
 239 1086 l 2,41,42
 239 1202 239 1202 229 1234 c 0,43,44
 225 1248 225 1248 173 1257 c 128,-1,45
 121 1266 121 1266 91 1266 c 1,46,47
 85 1274 85 1274 84.5 1295 c 128,-1,48
 84 1316 84 1316 91 1324 c 1,49,50
 296 1314 296 1314 327 1314 c 0,51,52
 365 1314 365 1314 468.5 1315 c 128,-1,53
 572 1316 572 1316 617 1316 c 0,20,21
EndSplineSet
EndChar
StartChar: E
Encoding: 69 69 36
Width: 1174
Flags: W
LayerCount: 2
Fore
SplineSet
327 1314 m 0,0,1
 417 1314 417 1314 637.5 1321 c 128,-1,2
 858 1328 858 1328 971 1328 c 1,3,4
 979 1270 979 1270 1001.5 1175 c 128,-1,5
 1024 1080 1024 1080 1029 1056 c 1,6,7
 1019 1046 1019 1046 993 1046 c 0,8,9
 968 1046 968 1046 965 1060 c 0,10,11
 934 1171 934 1171 878.5 1209.5 c 128,-1,12
 823 1248 823 1248 733 1248 c 2,13,-1
 561 1248 l 2,14,15
 430 1248 430 1248 423 1226 c 0,16,17
 411 1188 411 1188 413 1084 c 1,18,-1
 413 710 l 1,19,20
 412 703 412 703 436 700.5 c 128,-1,21
 460 698 460 698 499 698 c 2,22,-1
 605 698 l 2,23,24
 655 698 655 698 683 699 c 128,-1,25
 711 700 711 700 735.5 705 c 128,-1,26
 760 710 760 710 771 718 c 128,-1,27
 782 726 782 726 792 740.5 c 128,-1,28
 802 755 802 755 807.5 775 c 128,-1,29
 813 795 813 795 820.629115923 824.890523192 c 0,30,31
 823 836 823 836 825 842 c 0,32,33
 828 856 828 856 855 856 c 0,34,35
 879 856 879 856 889 846 c 1,36,-1
 889 468 l 1,37,38
 881 460 881 460 857 460 c 0,39,40
 831 460 831 460 825 476 c 1,41,42
 804 555 804 555 794 576.5 c 128,-1,43
 784 598 784 598 769 608 c 0,44,45
 744 624 744 624 557 624 c 0,46,47
 537 624 537 624 526 624 c 128,-1,48
 515 624 515 624 495 623.5 c 128,-1,49
 475 623 475 623 463 622 c 128,-1,50
 451 621 451 621 438 619 c 128,-1,51
 425 617 425 617 419 613.5 c 128,-1,52
 413 610 413 610 413 606 c 2,53,-1
 413 226 l 1,54,55
 412 191 412 191 414.5 143 c 128,-1,56
 417 95 417 95 425 88 c 0,57,58
 443 74 443 74 469.5 71 c 128,-1,59
 496 68 496 68 567 68 c 2,60,-1
 663 68 l 2,61,62
 735 68 735 68 804.5 82.5 c 128,-1,63
 874 97 874 97 915 122 c 0,64,65
 958 148 958 148 984 194.5 c 128,-1,66
 1010 241 1010 241 1041 324 c 1,67,68
 1044 336 1044 336 1069 336 c 0,69,70
 1107 336 1107 336 1119 324 c 1,71,72
 1110 298 1110 298 1089 241 c 128,-1,73
 1068 184 1068 184 1055.5 148.5 c 128,-1,74
 1043 113 1043 113 1029.5 68 c 128,-1,75
 1016 23 1016 23 1011 -8 c 1,76,77
 908 -8 908 -8 688 -4 c 128,-1,78
 468 0 468 0 329 0 c 0,79,80
 280 0 280 0 204 -3 c 128,-1,81
 128 -6 128 -6 91 -6 c 1,82,83
 84 2 84 2 84.5 23 c 128,-1,84
 85 44 85 44 91 52 c 1,85,86
 121 52 121 52 173 61 c 128,-1,87
 225 70 225 70 229 84 c 0,88,89
 239 116 239 116 239 232 c 2,90,-1
 239 1086 l 2,91,92
 239 1202 239 1202 229 1234 c 0,93,94
 225 1248 225 1248 173 1257 c 128,-1,95
 121 1266 121 1266 91 1266 c 1,96,97
 85 1274 85 1274 84.5 1295 c 128,-1,98
 84 1316 84 1316 91 1324 c 1,99,100
 296 1314 296 1314 327 1314 c 0,0,1
EndSplineSet
EndChar
StartChar: F
Encoding: 70 70 37
Width: 1070
Flags: W
LayerCount: 2
Fore
SplineSet
327 1314 m 0,0,1
 417 1314 417 1314 637.5 1321 c 128,-1,2
 858 1328 858 1328 971 1328 c 1,3,4
 979 1270 979 1270 1001.5 1175 c 128,-1,5
 1024 1080 1024 1080 1029 1056 c 1,6,7
 1019 1046 1019 1046 993 1046 c 0,8,9
 968 1046 968 1046 965 1060 c 0,10,11
 934 1171 934 1171 878.5 1209.5 c 128,-1,12
 823 1248 823 1248 733 1248 c 2,13,-1
 561 1248 l 2,14,15
 430 1248 430 1248 423 1226 c 0,16,17
 413 1194 413 1194 413 1084 c 2,18,-1
 413 710 l 1,19,20
 412 703 412 703 436 700.5 c 128,-1,21
 460 698 460 698 499 698 c 2,22,-1
 605 698 l 2,23,24
 655 698 655 698 683 699 c 128,-1,25
 711 700 711 700 735.5 705 c 128,-1,26
 760 710 760 710 771 718 c 128,-1,27
 782 726 782 726 792 740.5 c 128,-1,28
 802 755 802 755 807.5 775 c 128,-1,29
 813 795 813 795 820.629115923 824.890523192 c 0,30,31
 823 836 823 836 825 842 c 0,32,33
 828 856 828 856 855 856 c 0,34,35
 879 856 879 856 889 846 c 1,36,-1
 889 468 l 1,37,38
 881 460 881 460 857 460 c 0,39,40
 831 460 831 460 825 476 c 1,41,42
 804 555 804 555 794 576.5 c 128,-1,43
 784 598 784 598 769 608 c 0,44,45
 744 624 744 624 557 624 c 0,46,47
 413 624 413 624 413 606 c 2,48,-1
 413 232 l 2,49,50
 413 116 413 116 423 84 c 0,51,52
 427 70 427 70 487.5 61 c 128,-1,53
 548 52 548 52 581 52 c 1,54,55
 587 44 587 44 587.5 23 c 128,-1,56
 588 2 588 2 581 -6 c 1,57,58
 376 4 376 4 327 4 c 128,-1,59
 278 4 278 4 203 -1 c 128,-1,60
 128 -6 128 -6 91 -6 c 1,61,62
 84 2 84 2 84.5 23 c 128,-1,63
 85 44 85 44 91 52 c 1,64,65
 121 52 121 52 173 61 c 128,-1,66
 225 70 225 70 229 84 c 0,67,68
 239 116 239 116 239 232 c 2,69,-1
 239 1086 l 2,70,71
 239 1202 239 1202 229 1234 c 0,72,73
 225 1248 225 1248 173 1257 c 128,-1,74
 121 1266 121 1266 91 1266 c 1,75,76
 85 1274 85 1274 84.5 1295 c 128,-1,77
 84 1316 84 1316 91 1324 c 1,78,79
 296 1314 296 1314 327 1314 c 0,0,1
EndSplineSet
EndChar
StartChar: G
Encoding: 71 71 38
Width: 1440
Flags: W
LayerCount: 2
Fore
SplineSet
1070 350 m 2,0,1
 1070 466 1070 466 1060 498 c 0,2,3
 1056 512 1056 512 1005 521 c 128,-1,4
 954 530 954 530 924 530 c 1,5,6
 918 538 918 538 917.5 559 c 128,-1,7
 917 580 917 580 924 588 c 1,8,9
 1129 578 1129 578 1158 578 c 0,10,11
 1177 578 1177 578 1382 588 c 1,12,13
 1389 580 1389 580 1388.5 559 c 128,-1,14
 1388 538 1388 538 1382 530 c 1,15,16
 1353 530 1353 530 1304.5 521 c 128,-1,17
 1256 512 1256 512 1252 498 c 0,18,19
 1242 466 1242 466 1242 350 c 2,20,-1
 1242 208 l 2,21,22
 1242 184 1242 184 1252 159.5 c 128,-1,23
 1262 135 1262 135 1262 128 c 0,24,25
 1262 119 1262 119 1254.5 112 c 128,-1,26
 1247 105 1247 105 1222 92 c 0,27,28
 1162 60 1162 60 1121.5 42.5 c 128,-1,29
 1081 25 1081 25 983.5 6.5 c 128,-1,30
 886 -12 886 -12 764 -12 c 0,31,32
 619 -12 619 -12 493 41 c 128,-1,33
 367 94 367 94 281 183 c 128,-1,34
 195 272 195 272 145.5 392 c 128,-1,35
 96 512 96 512 96 644 c 0,36,37
 96 783 96 783 147 909.5 c 128,-1,38
 198 1036 198 1036 286 1129.5 c 128,-1,39
 374 1223 374 1223 501 1278.5 c 128,-1,40
 628 1334 628 1334 772 1334 c 0,41,42
 1002 1334 1002 1334 1196 1292 c 1,43,44
 1242 1016 1242 1016 1242 996 c 1,45,46
 1243 987 1243 987 1228 978.5 c 128,-1,47
 1213 970 1213 970 1198 970 c 128,-1,48
 1183 970 1183 970 1174 976 c 1,49,50
 1117 1268 1117 1268 782 1268 c 0,51,52
 640 1268 640 1268 526 1180 c 128,-1,53
 412 1092 412 1092 353 960 c 128,-1,54
 294 828 294 828 294 686 c 0,55,56
 294 591 294 591 314 500.5 c 128,-1,57
 334 410 334 410 376.5 329 c 128,-1,58
 419 248 419 248 479.5 187 c 128,-1,59
 540 126 540 126 626 90 c 128,-1,60
 712 54 712 54 814 54 c 0,61,62
 928 54 928 54 1056 118 c 0,63,64
 1070 125 1070 125 1070 148 c 2,65,-1
 1070 350 l 2,0,1
EndSplineSet
EndChar
StartChar: K
Encoding: 75 75 42
Width: 1314
Flags: W
LayerCount: 2
Fore
SplineSet
327 1314 m 0,0,1
 356 1314 356 1314 561 1324 c 1,2,3
 568 1316 568 1316 567.5 1292 c 128,-1,4
 567 1268 567 1268 561 1260 c 1,5,6
 531 1260 531 1260 479 1251 c 128,-1,7
 427 1242 427 1242 423 1228 c 0,8,9
 411 1190 411 1190 413 1080 c 1,10,-1
 413 682 l 1,11,12
 465 714 465 714 639 884 c 1,13,14
 755 999 755 999 801 1048 c 128,-1,15
 847 1097 847 1097 893 1156 c 0,16,17
 921 1193 921 1193 921 1218 c 0,18,19
 921 1226 921 1226 918 1232.5 c 128,-1,20
 915 1239 915 1239 909 1243.5 c 128,-1,21
 903 1248 903 1248 896 1251.5 c 128,-1,22
 889 1255 889 1255 880 1257 c 128,-1,23
 871 1259 871 1259 863.5 1260 c 128,-1,24
 856 1261 856 1261 846 1261.5 c 128,-1,25
 836 1262 836 1262 830.5 1262 c 128,-1,26
 825 1262 825 1262 817.5 1262 c 128,-1,27
 810 1262 810 1262 809 1262 c 0,28,29
 804 1271 804 1271 804 1290.5 c 128,-1,30
 804 1310 804 1310 809 1324 c 1,31,32
 832 1323 832 1323 880.5 1319.5 c 128,-1,33
 929 1316 929 1316 967.5 1314 c 128,-1,34
 1006 1312 1006 1312 1039 1312 c 0,35,36
 1091 1312 1091 1312 1164 1317.5 c 128,-1,37
 1237 1323 1237 1323 1255 1324 c 1,38,39
 1259 1315 1259 1315 1258.5 1288.5 c 128,-1,40
 1258 1262 1258 1262 1251 1262 c 2,41,-1
 1235 1261 l 2,42,43
 1219 1260 1219 1260 1206 1258.5 c 128,-1,44
 1193 1257 1193 1257 1171 1252 c 128,-1,45
 1149 1247 1149 1247 1130.5 1239.5 c 128,-1,46
 1112 1232 1112 1232 1090.5 1219 c 128,-1,47
 1069 1206 1069 1206 1053 1188 c 0,48,49
 992 1122 992 1122 929 1057.5 c 128,-1,50
 866 993 866 993 826 954 c 128,-1,51
 786 915 786 915 708.5 841 c 128,-1,52
 631 767 631 767 590 728 c 1,53,54
 585 720 585 720 590 712 c 1,55,56
 603 697 603 697 646 646.5 c 128,-1,57
 689 596 689 596 703 580 c 128,-1,58
 717 564 717 564 755.5 519.5 c 128,-1,59
 794 475 794 475 810 456.5 c 128,-1,60
 826 438 826 438 860 399.5 c 128,-1,61
 894 361 894 361 912.5 341 c 128,-1,62
 931 321 931 321 960 289.5 c 128,-1,63
 989 258 989 258 1010 236.5 c 128,-1,64
 1031 215 1031 215 1055.5 190.5 c 128,-1,65
 1080 166 1080 166 1103 144 c 0,66,67
 1146 104 1146 104 1195.5 81 c 128,-1,68
 1245 58 1245 58 1321 52 c 1,69,70
 1327 41 1327 41 1324.5 20.5 c 128,-1,71
 1322 0 1322 0 1319 -6 c 1,72,73
 1098 -6 1098 -6 1035 16 c 0,74,75
 957 44 957 44 899 102 c 0,76,77
 844 156 844 156 449 608 c 0,78,79
 445 614 445 614 431 614 c 0,80,81
 421 614 421 614 413 610 c 1,82,-1
 413 238 l 2,83,84
 413 122 413 122 423 90 c 0,85,86
 427 76 427 76 479 67 c 128,-1,87
 531 58 531 58 561 58 c 1,88,89
 567 50 567 50 567.5 26 c 128,-1,90
 568 2 568 2 561 -6 c 1,91,92
 356 4 356 4 327 4 c 0,93,94
 296 4 296 4 91 -6 c 1,95,96
 84 2 84 2 84.5 26 c 128,-1,97
 85 50 85 50 91 58 c 1,98,99
 121 58 121 58 173 67 c 128,-1,100
 225 76 225 76 229 90 c 0,101,102
 239 122 239 122 239 238 c 2,103,-1
 239 1080 l 2,104,105
 239 1196 239 1196 229 1228 c 0,106,107
 225 1242 225 1242 173 1251 c 128,-1,108
 121 1260 121 1260 91 1260 c 1,109,110
 85 1268 85 1268 84.5 1292 c 128,-1,111
 84 1316 84 1316 91 1324 c 1,112,113
 296 1314 296 1314 327 1314 c 0,0,1
EndSplineSet
EndChar
StartChar: M
Encoding: 77 77 44
Width: 1814
Flags: W
LayerCount: 2
Fore
SplineSet
325 1314 m 0,0,1
 377 1314 377 1314 487 1324 c 1,2,3
 504 1270 504 1270 577.5 1094 c 128,-1,4
 651 918 651 918 753 675.5 c 128,-1,5
 855 433 855 433 911 292 c 0,6,7
 913 288 913 288 919 288 c 0,8,9
 926 288 926 288 929 296 c 0,10,11
 1221 1049 1221 1049 1235 1084 c 1,12,-1
 1323 1324 l 1,13,14
 1451 1316 1451 1316 1481 1316 c 0,15,16
 1605 1316 1605 1316 1705 1324 c 1,17,-1
 1711 1266 l 1,18,19
 1683 1266 1683 1266 1629.5 1254.5 c 128,-1,20
 1576 1243 1576 1243 1569 1230 c 0,21,22
 1559 1208 1559 1208 1559 1154 c 1,23,24
 1561 1093 1561 1093 1564.5 938.5 c 128,-1,25
 1568 784 1568 784 1572.5 576.5 c 128,-1,26
 1577 369 1577 369 1579 280 c 0,27,28
 1583 140 1583 140 1603 86 c 0,29,30
 1609 68 1609 68 1660.5 60 c 128,-1,31
 1712 52 1712 52 1743 52 c 1,32,33
 1750 40 1750 40 1750 21 c 128,-1,34
 1750 2 1750 2 1747 -6 c 1,35,36
 1547 4 1547 4 1509 4 c 0,37,38
 1468 4 1468 4 1431 2.5 c 128,-1,39
 1394 1 1394 1 1347 -2 c 128,-1,40
 1300 -5 1300 -5 1269 -6 c 1,41,42
 1265 -2 1265 -2 1264.5 18.5 c 128,-1,43
 1264 39 1264 39 1269 52 c 1,44,45
 1293 52 1293 52 1338 58.5 c 128,-1,46
 1383 65 1383 65 1399 74 c 0,47,48
 1417 84 1417 84 1417 158 c 0,49,50
 1417 172 1417 172 1415 215.5 c 128,-1,51
 1413 259 1413 259 1413 274 c 0,52,53
 1396 890 1396 890 1387 1130 c 0,54,55
 1387 1141 1387 1141 1382.5 1155.5 c 128,-1,56
 1378 1170 1378 1170 1369 1170 c 0,57,58
 1365 1170 1365 1170 1359 1156 c 0,59,60
 1313 1042 1313 1042 937 98 c 1,61,62
 927 76 927 76 901 37.5 c 128,-1,63
 875 -1 875 -1 861 -4 c 0,64,65
 858 -5 858 -5 843 0 c 1,66,-1
 355 1168 l 1,67,68
 351 976 351 976 344.5 725.5 c 128,-1,69
 338 475 338 475 333.5 314.5 c 128,-1,70
 329 154 329 154 329 150 c 0,71,72
 329 109 329 109 337 88 c 0,73,74
 345 69 345 69 403 60.5 c 128,-1,75
 461 52 461 52 495 52 c 1,76,77
 502 44 502 44 502 23 c 128,-1,78
 502 2 502 2 499 -6 c 1,79,80
 472 -5 472 -5 432 -2 c 128,-1,81
 392 1 392 1 359 2.5 c 128,-1,82
 326 4 326 4 287 4 c 0,83,84
 246 4 246 4 210.5 2.5 c 128,-1,85
 175 1 175 1 130 -2 c 128,-1,86
 85 -5 85 -5 53 -6 c 1,87,88
 49 -2 49 -2 48.5 18.5 c 128,-1,89
 48 39 48 39 53 52 c 1,90,91
 86 52 86 52 144.5 61.5 c 128,-1,92
 203 71 203 71 215 88 c 0,93,94
 236 118 236 118 239 188 c 0,95,96
 267 935 267 935 267 1144 c 0,97,98
 267 1202 267 1202 259 1224 c 0,99,100
 254 1240 254 1240 199.5 1253 c 128,-1,101
 145 1266 145 1266 119 1266 c 0,102,103
 116 1266 116 1266 116 1293.5 c 128,-1,104
 116 1321 116 1321 119 1324 c 1,105,106
 154 1322 154 1322 189.5 1319.5 c 128,-1,107
 225 1317 225 1317 254.5 1315.5 c 128,-1,108
 284 1314 284 1314 325 1314 c 0,0,1
EndSplineSet
EndChar
StartChar: P
Encoding: 80 80 47
Width: 1096
Flags: W
LayerCount: 2
Fore
SplineSet
1036 958 m 0,0,1
 1036 776 1036 776 914.5 666 c 128,-1,2
 793 556 793 556 596 556 c 0,3,4
 542 556 542 556 510 572 c 1,5,6
 482 591 482 591 482 616 c 0,7,8
 482 618 482 618 483 620.5 c 128,-1,9
 484 623 484 623 486 625 c 128,-1,10
 488 627 488 627 492 626 c 0,11,12
 543 612 543 612 568 612 c 0,13,14
 692 612 692 612 772 695 c 128,-1,15
 852 778 852 778 852 924 c 0,16,17
 852 1077 852 1077 768 1165.5 c 128,-1,18
 684 1254 684 1254 522 1254 c 0,19,20
 431 1254 431 1254 422 1234 c 0,21,22
 412 1210 412 1210 412 1084 c 2,23,-1
 412 232 l 2,24,25
 412 116 412 116 422 84 c 0,26,27
 426 70 426 70 478 61 c 128,-1,28
 530 52 530 52 560 52 c 1,29,30
 566 44 566 44 566.5 23 c 128,-1,31
 567 2 567 2 560 -6 c 1,32,33
 355 4 355 4 326 4 c 0,34,35
 295 4 295 4 90 -6 c 1,36,37
 83 2 83 2 83.5 23 c 128,-1,38
 84 44 84 44 90 52 c 1,39,40
 120 52 120 52 172 61 c 128,-1,41
 224 70 224 70 228 84 c 0,42,43
 238 116 238 116 238 232 c 2,44,-1
 238 1086 l 2,45,46
 238 1202 238 1202 228 1234 c 0,47,48
 224 1248 224 1248 172 1257 c 128,-1,49
 120 1266 120 1266 90 1266 c 1,50,51
 84 1274 84 1274 83.5 1295 c 128,-1,52
 83 1316 83 1316 90 1324 c 1,53,54
 295 1314 295 1314 326 1314 c 0,55,56
 360 1314 360 1314 453 1316 c 128,-1,57
 546 1318 546 1318 610 1318 c 0,58,59
 719 1318 719 1318 814.5 1277.5 c 128,-1,60
 910 1237 910 1237 973 1153 c 128,-1,61
 1036 1069 1036 1069 1036 958 c 0,0,1
EndSplineSet
EndChar
StartChar: T
Encoding: 84 84 51
Width: 1252
Flags: W
LayerCount: 2
Fore
SplineSet
1016 1322 m 2,0,1
 1039 1322 1039 1322 1078 1332 c 128,-1,2
 1117 1342 1117 1342 1136 1352 c 0,3,4
 1159 1364 1159 1364 1174 1356 c 1,5,6
 1198 1147 1198 1147 1226 1012 c 1,7,8
 1210 996 1210 996 1188 998 c 1,9,10
 1167 998 1167 998 1160 1008 c 1,11,12
 1138 1119 1138 1119 1089 1185.5 c 128,-1,13
 1040 1252 1040 1252 968 1252 c 2,14,-1
 714 1252 l 1,15,-1
 714 232 l 2,16,17
 714 116 714 116 724 84 c 0,18,19
 728 70 728 70 780 61 c 128,-1,20
 832 52 832 52 862 52 c 1,21,22
 868 44 868 44 868.5 23 c 128,-1,23
 869 2 869 2 862 -6 c 1,24,25
 657 4 657 4 628 4 c 0,26,27
 597 4 597 4 392 -6 c 1,28,29
 385 2 385 2 385.5 23 c 128,-1,30
 386 44 386 44 392 52 c 1,31,32
 422 52 422 52 474 61 c 128,-1,33
 526 70 526 70 530 84 c 0,34,35
 540 116 540 116 540 232 c 2,36,-1
 540 1252 l 1,37,-1
 282 1252 l 2,38,39
 210 1252 210 1252 161 1185.5 c 128,-1,40
 112 1119 112 1119 90 1008 c 1,41,42
 83 998 83 998 62 998 c 1,43,44
 40 996 40 996 24 1012 c 1,45,46
 52 1147 52 1147 76 1356 c 1,47,48
 93 1364 93 1364 122 1350 c 0,49,50
 141 1340 141 1340 176 1331 c 128,-1,51
 211 1322 211 1322 234 1322 c 2,52,-1
 1016 1322 l 2,0,1
EndSplineSet
EndChar
StartChar: bracketright
Encoding: 93 93 60
Width: 520
Flags: W
LayerCount: 2
Fore
SplineSet
324 1436 m 0,0,1
 340 1436 340 1436 349.5 1424 c 128,-1,2
 359 1412 359 1412 360.5 1403.5 c 128,-1,3
 362 1395 362 1395 362 1390 c 2,4,-1
 362 -230 l 2,5,6
 362 -235 362 -235 360.5 -243.5 c 128,-1,7
 359 -252 359 -252 349.5 -264 c 128,-1,8
 340 -276 340 -276 324 -276 c 0,9,10
 251 -276 251 -276 174.5 -279 c 128,-1,11
 98 -282 98 -282 58 -285 c 2,12,-1
 18 -288 l 1,13,14
 12 -282 12 -282 12 -270 c 0,15,16
 12 -245 12 -245 32 -238 c 0,17,18
 66 -226 66 -226 124.5 -214.5 c 128,-1,19
 183 -203 183 -203 224.5 -197.5 c 2,20,-1
 266 -192 l 1,21,-1
 266 1352 l 1,22,23
 108 1372 108 1372 32 1398 c 0,24,25
 12 1405 12 1405 12 1430 c 0,26,27
 12 1435 12 1435 13.5 1439.5 c 128,-1,28
 15 1444 15 1444 16.5 1446 c 2,29,-1
 18 1448 l 1,30,31
 160 1436 160 1436 324 1436 c 0,0,1
EndSplineSet
Substitution2: "'smcp' Lowercase to Small Capitals lookup 2-1" bracketright.sc
EndChar
StartChar: a
Encoding: 97 97 64
Width: 862
Flags: W
LayerCount: 2
Fore
SplineSet
374 92 m 0,0,1
 423 92 423 92 485.5 124.5 c 128,-1,2
 548 157 548 157 548 174 c 2,3,-1
 548 446 l 1,4,5
 393 400 393 400 362 388 c 0,6,7
 305 366 305 366 272.5 326.5 c 128,-1,8
 240 287 240 287 240 232 c 0,9,10
 240 176 240 176 279 134 c 128,-1,11
 318 92 318 92 374 92 c 0,0,1
482 872 m 0,12,13
 569 872 569 872 634.5 792 c 128,-1,14
 700 712 700 712 700 598 c 2,15,-1
 700 186 l 2,16,17
 700 92 700 92 762 92 c 0,18,19
 771 92 771 92 779.5 93.5 c 128,-1,20
 788 95 788 95 794 97.5 c 128,-1,21
 800 100 800 100 806.5 103.5 c 128,-1,22
 813 107 813 107 816.5 109.5 c 128,-1,23
 820 112 820 112 823.5 115 c 128,-1,24
 827 118 827 118 828 118 c 0,25,26
 836 118 836 118 836 102 c 0,27,28
 836 81 836 81 826 64 c 1,29,30
 803 43 803 43 753.5 15.5 c 128,-1,31
 704 -12 704 -12 676 -12 c 0,32,33
 634 -12 634 -12 599 28.5 c 128,-1,34
 564 69 564 69 554 118 c 1,35,36
 525 89 525 89 439.5 36.5 c 128,-1,37
 354 -16 354 -16 308 -16 c 0,38,39
 209 -16 209 -16 141.5 50.5 c 128,-1,40
 74 117 74 117 74 214 c 0,41,42
 74 271 74 271 105.5 315.5 c 128,-1,43
 137 360 137 360 174 374 c 0,44,45
 207 386 207 386 294 416 c 128,-1,46
 381 446 381 446 439.5 467 c 128,-1,47
 498 488 498 488 524 500 c 0,48,49
 539 506 539 506 543.5 515 c 128,-1,50
 548 524 548 524 548 550 c 2,51,-1
 548 604 l 2,52,53
 548 675 548 675 497.5 735.5 c 128,-1,54
 447 796 447 796 376 796 c 0,55,56
 326 796 326 796 301.5 765.5 c 128,-1,57
 277 735 277 735 266 672 c 0,58,59
 249 576 249 576 172 576 c 0,60,61
 142 576 142 576 123 602 c 128,-1,62
 104 628 104 628 104 660 c 0,63,64
 104 668 104 668 108.5 684.5 c 128,-1,65
 113 701 113 701 118 708 c 1,66,67
 180 766 180 766 282.5 819 c 128,-1,68
 385 872 385 872 482 872 c 0,12,13
EndSplineSet
Substitution2: "'smcp' Lowercase to Small Capitals lookup 2-1" a.sc
EndChar
StartChar: b
Encoding: 98 98 65
Width: 996
Flags: W
LayerCount: 2
Fore
SplineSet
423 -14 m 0,0,1
 380 -14 380 -14 275 16 c 0,2,3
 270 17 270 17 254 22 c 128,-1,4
 238 27 238 27 231.5 28.5 c 128,-1,5
 225 30 225 30 211 32.5 c 128,-1,6
 197 35 197 35 188.5 35 c 128,-1,7
 180 35 180 35 168 33.5 c 128,-1,8
 156 32 156 32 145 28 c 1,9,10
 138 28 138 28 128.5 45.5 c 128,-1,11
 119 63 119 63 119 72 c 1,12,13
 143 125 143 125 143 220 c 2,14,-1
 143 1116 l 2,15,16
 143 1196 143 1196 133 1220 c 0,17,18
 118 1256 118 1256 11 1256 c 0,19,20
 10 1256 10 1256 9 1268.5 c 128,-1,21
 8 1281 8 1281 8.5 1294 c 128,-1,22
 9 1307 9 1307 13 1308 c 0,23,24
 151 1322 151 1322 297 1388 c 1,25,26
 304 1388 304 1388 311.5 1377.5 c 128,-1,27
 319 1367 319 1367 319 1356 c 1,28,29
 297 1292 297 1292 297 1182 c 2,30,-1
 297 788 l 2,31,32
 297 782 297 782 297 779 c 128,-1,33
 297 776 297 776 298.5 770.5 c 128,-1,34
 300 765 300 765 302 765.5 c 128,-1,35
 304 766 304 766 309 768 c 1,36,37
 350 798 350 798 426 837 c 128,-1,38
 502 876 502 876 551 876 c 0,39,40
 637 876 637 876 708.5 838 c 128,-1,41
 780 800 780 800 824.5 739 c 128,-1,42
 869 678 869 678 893 607 c 128,-1,43
 917 536 917 536 917 466 c 0,44,45
 917 369 917 369 879.5 280.5 c 128,-1,46
 842 192 842 192 777 127.5 c 128,-1,47
 712 63 712 63 619.5 24.5 c 128,-1,48
 527 -14 527 -14 423 -14 c 0,0,1
455 758 m 0,49,50
 419 758 419 758 371 739 c 128,-1,51
 323 720 323 720 307 704 c 0,52,53
 297 694 297 694 297 682 c 2,54,-1
 297 196 l 2,55,56
 297 135 297 135 355 94.5 c 128,-1,57
 413 54 413 54 483 54 c 128,-1,58
 553 54 553 54 615 103.5 c 128,-1,59
 677 153 677 153 713 230.5 c 128,-1,60
 749 308 749 308 749 388 c 0,61,62
 749 561 749 561 669.5 659.5 c 128,-1,63
 590 758 590 758 455 758 c 0,49,50
EndSplineSet
Substitution2: "'smcp' Lowercase to Small Capitals lookup 2-1" b.sc
EndChar
StartChar: d
Encoding: 100 100 67
Width: 1030
Flags: W
LayerCount: 2
Fore
SplineSet
554 876 m 0,0,1
 584 876 584 876 630 869 c 128,-1,2
 676 862 676 862 692 856 c 1,3,4
 702 856 702 856 702 898 c 2,5,-1
 702 1116 l 2,6,7
 702 1196 702 1196 692 1220 c 0,8,9
 677 1256 677 1256 570 1256 c 0,10,11
 569 1256 569 1256 568 1268.5 c 128,-1,12
 567 1281 567 1281 567.5 1294 c 128,-1,13
 568 1307 568 1307 572 1308 c 0,14,15
 710 1322 710 1322 856 1388 c 1,16,17
 863 1388 863 1388 870.5 1377.5 c 128,-1,18
 878 1367 878 1367 878 1356 c 1,19,20
 856 1292 856 1292 856 1182 c 2,21,-1
 856 326 l 2,22,23
 856 163 856 163 870 130 c 0,24,25
 876 118 876 118 895 110 c 128,-1,26
 914 102 914 102 933 99.5 c 128,-1,27
 952 97 952 97 969.5 95.5 c 128,-1,28
 987 94 987 94 988 94 c 0,29,30
 994 91 994 91 994 70 c 0,31,32
 994 64 994 64 989 52 c 128,-1,33
 984 40 984 40 978 40 c 0,34,35
 949 38 949 38 911.5 32 c 128,-1,36
 874 26 874 26 841.5 18 c 128,-1,37
 809 10 809 10 781 2 c 128,-1,38
 753 -6 753 -6 735.5 -11 c 2,39,-1
 718 -16 l 1,40,41
 702 -16 702 -16 702 22 c 2,42,-1
 702 92 l 1,43,44
 700.166666667 105.041666667 700.166666667 105.041666667 696 104 c 1,45,46
 666 72 666 72 580 28 c 128,-1,47
 494 -16 494 -16 430 -16 c 0,48,49
 290 -16 290 -16 184 108.5 c 128,-1,50
 78 233 78 233 78 412 c 0,51,52
 78 505 78 505 127 594 c 128,-1,53
 176 683 176 683 248.5 743 c 128,-1,54
 321 803 321 803 403.5 839.5 c 128,-1,55
 486 876 486 876 554 876 c 0,0,1
490 792 m 0,56,57
 381 792 381 792 313.5 692.5 c 128,-1,58
 246 593 246 593 246 460 c 0,59,60
 246 312 246 312 321.5 210 c 128,-1,61
 397 108 397 108 528 108 c 0,62,63
 592 108 592 108 647 135 c 128,-1,64
 702 162 702 162 702 188 c 2,65,-1
 702 694 l 2,66,67
 702 729 702 729 637 760.5 c 128,-1,68
 572 792 572 792 490 792 c 0,56,57
EndSplineSet
Substitution2: "'smcp' Lowercase to Small Capitals lookup 2-1" d.sc
EndChar
StartChar: g
Encoding: 103 103 70
Width: 932
Flags: W
LayerCount: 2
Fore
SplineSet
430 818 m 27,0,1
 349 818 349 818 301.5 747 c 128,-1,2
 254 676 254 676 254 584 c 0,3,4
 254 486 254 486 306.5 410 c 128,-1,5
 359 334 359 334 446 334 c 0,6,7
 524 334 524 334 570 403.5 c 128,-1,8
 616 473 616 473 616 562 c 0,9,10
 616 664 616 664 566.5 741 c 128,-1,11
 517 818 517 818 430 818 c 27,0,1
510 -8 m 0,12,13
 342 -8 342 -8 324 -18 c 0,14,15
 280 -43 280 -43 242 -80 c 128,-1,16
 204 -117 204 -117 204 -152 c 0,17,18
 204 -252 204 -252 275.5 -314 c 128,-1,19
 347 -376 347 -376 472 -376 c 0,20,21
 540 -376 540 -376 610.5 -346 c 128,-1,22
 681 -316 681 -316 727.5 -265.5 c 128,-1,23
 774 -215 774 -215 774 -162 c 0,24,25
 774 -139 774 -139 759 -113.5 c 128,-1,26
 744 -88 744 -88 714 -63.5 c 128,-1,27
 684 -39 684 -39 630.5 -23.5 c 128,-1,28
 577 -8 577 -8 510 -8 c 0,12,13
602 134 m 2,29,30
 722 134 722 134 817 70.5 c 128,-1,31
 912 7 912 7 912 -76 c 0,32,33
 912 -137 912 -137 869 -204 c 128,-1,34
 826 -271 826 -271 756.5 -326 c 128,-1,35
 687 -381 687 -381 589.5 -417 c 128,-1,36
 492 -453 492 -453 392 -454 c 0,37,38
 307 -455 307 -455 230 -429 c 128,-1,39
 153 -403 153 -403 99.5 -345.5 c 128,-1,40
 46 -288 46 -288 46 -210 c 0,41,42
 46 -179 46 -179 68.5 -146 c 128,-1,43
 91 -113 91 -113 127.5 -85 c 128,-1,44
 164 -57 164 -57 195.5 -37.5 c 128,-1,45
 227 -18 227 -18 258 -2 c 1,46,47
 195 18 195 18 144.5 67 c 128,-1,48
 94 116 94 116 94 184 c 1,49,50
 117 211 117 211 174.5 255 c 128,-1,51
 232 299 232 299 266 320 c 1,52,53
 192 361 192 361 146 432 c 128,-1,54
 100 503 100 503 100 576 c 0,55,56
 100 697 100 697 198.5 787.5 c 128,-1,57
 297 878 297 878 438 878 c 0,58,59
 462 878 462 878 485 875.5 c 128,-1,60
 508 873 508 873 530.5 866 c 128,-1,61
 553 859 553 859 563.5 856 c 128,-1,62
 574 853 574 853 597 843.5 c 2,63,-1
 620 834 l 2,64,65
 646 824 646 824 666 820 c 1,66,-1
 880 850 l 1,67,68
 900 844 900 844 900 830 c 0,69,70
 900 817 900 817 884 786.5 c 128,-1,71
 868 756 868 756 854 748 c 1,72,-1
 722 756 l 2,73,74
 714 756 714 756 714 750 c 1,75,76
 728 736 728 736 749 681.5 c 128,-1,77
 770 627 770 627 770 568 c 0,78,79
 770 458 770 458 670.5 366 c 128,-1,80
 571 274 571 274 432 274 c 0,81,82
 407 274 407 274 371 280 c 128,-1,83
 335 286 335 286 320 292 c 1,84,85
 290 275 290 275 268 250.5 c 128,-1,86
 246 226 246 226 246 204 c 0,87,88
 246 184 246 184 279.5 159 c 128,-1,89
 313 134 313 134 366 134 c 2,90,-1
 602 134 l 2,29,30
EndSplineSet
Substitution2: "'smcp' Lowercase to Small Capitals lookup 2-1" g.sc
EndChar
StartChar: k
Encoding: 107 107 74
Width: 1036
Flags: W
LayerCount: 2
Fore
SplineSet
333 232 m 2,0,1
 333 116 333 116 343 84 c 0,2,3
 347 70 347 70 393.5 61 c 128,-1,4
 440 52 440 52 469 52 c 1,5,6
 475 44 475 44 475.5 23 c 128,-1,7
 476 2 476 2 469 -6 c 1,8,9
 264 4 264 4 255 4 c 0,10,11
 220 4 220 4 187.5 2.5 c 128,-1,12
 155 1 155 1 113 -2 c 128,-1,13
 71 -5 71 -5 43 -6 c 1,14,15
 36 2 36 2 36.5 23 c 128,-1,16
 37 44 37 44 43 52 c 1,17,18
 72 52 72 52 118.5 61 c 128,-1,19
 165 70 165 70 169 84 c 0,20,21
 179 116 179 116 179 232 c 2,22,-1
 179 1116 l 2,23,24
 179 1196 179 1196 169 1220 c 0,25,26
 154 1256 154 1256 47 1256 c 0,27,28
 46 1256 46 1256 45 1268.5 c 128,-1,29
 44 1281 44 1281 44.5 1294 c 128,-1,30
 45 1307 45 1307 49 1308 c 0,31,32
 187 1322 187 1322 333 1388 c 1,33,34
 340 1388 340 1388 347.5 1377.5 c 128,-1,35
 355 1367 355 1367 355 1356 c 1,36,37
 333 1292 333 1292 333 1182 c 2,38,-1
 333 470 l 1,39,40
 369 483 369 483 497 592 c 0,41,42
 522 613 522 613 555 640.5 c 128,-1,43
 588 668 588 668 607.5 683.5 c 128,-1,44
 627 699 627 699 645.5 715.5 c 128,-1,45
 664 732 664 732 672.5 742 c 128,-1,46
 681 752 681 752 681 758 c 128,-1,47
 681 764 681 764 677 769 c 128,-1,48
 673 774 673 774 665 777.5 c 128,-1,49
 657 781 657 781 649 783.5 c 128,-1,50
 641 786 641 786 630.5 787.5 c 128,-1,51
 620 789 620 789 612.5 789.5 c 128,-1,52
 605 790 605 790 596 791 c 128,-1,53
 587 792 587 792 585 792 c 1,54,55
 578 803 578 803 579.5 825 c 128,-1,56
 581 847 581 847 589 850 c 1,57,58
 686 840 686 840 781 840 c 0,59,60
 884 840 884 840 957 850 c 1,61,62
 963 841 963 841 962.5 819.5 c 128,-1,63
 962 798 962 798 957 792 c 1,64,65
 930 792 930 792 880.5 779 c 128,-1,66
 831 766 831 766 803 746 c 0,67,68
 582 585 582 585 479 498 c 1,69,70
 536 437 536 437 622.5 339.5 c 128,-1,71
 709 242 709 242 763.5 183 c 128,-1,72
 818 124 818 124 839 106 c 0,73,74
 875 77 875 77 926.5 63.5 c 128,-1,75
 978 50 978 50 1023 52 c 1,76,77
 1026 47 1026 47 1027.5 29.5 c 128,-1,78
 1029 12 1029 12 1025 4 c 1,79,80
 997 -8 997 -8 895 -8 c 0,81,82
 815 -8 815 -8 746 21 c 128,-1,83
 677 50 677 50 649 80 c 0,84,85
 477 266 477 266 363 390 c 0,86,87
 359 394 359 394 351.5 398.5 c 128,-1,88
 344 403 344 403 338.5 405.5 c 2,89,-1
 333 408 l 1,90,-1
 333 232 l 2,0,1
EndSplineSet
Substitution2: "'smcp' Lowercase to Small Capitals lookup 2-1" k.sc
EndChar
StartChar: l
Encoding: 108 108 75
Width: 510
Flags: W
LayerCount: 2
Fore
SplineSet
179 1116 m 2,0,1
 179 1196 179 1196 169 1220 c 0,2,3
 154 1256 154 1256 47 1256 c 0,4,5
 46 1256 46 1256 45 1268.5 c 128,-1,6
 44 1281 44 1281 44.5 1294 c 128,-1,7
 45 1307 45 1307 49 1308 c 0,8,9
 187 1322 187 1322 333 1388 c 1,10,11
 340 1388 340 1388 347.5 1377.5 c 128,-1,12
 355 1367 355 1367 355 1356 c 1,13,14
 333 1292 333 1292 333 1182 c 2,15,-1
 333 232 l 2,16,17
 333 116 333 116 343 84 c 0,18,19
 347 70 347 70 393.5 61 c 128,-1,20
 440 52 440 52 469 52 c 1,21,22
 475 44 475 44 475.5 23 c 128,-1,23
 476 2 476 2 469 -6 c 1,24,25
 264 4 264 4 255 4 c 0,26,27
 220 4 220 4 187.5 2.5 c 128,-1,28
 155 1 155 1 113 -2 c 128,-1,29
 71 -5 71 -5 43 -6 c 1,30,31
 36 2 36 2 36.5 23 c 128,-1,32
 37 44 37 44 43 52 c 1,33,34
 72 52 72 52 118.5 61 c 128,-1,35
 165 70 165 70 169 84 c 0,36,37
 179 116 179 116 179 232 c 2,38,-1
 179 1116 l 2,0,1
EndSplineSet
Substitution2: "'smcp' Lowercase to Small Capitals lookup 2-1" l.sc
EndChar
StartChar: m
Encoding: 109 109 76
Width: 1580
Flags: W
LayerCount: 2
Fore
SplineSet
639 876 m 0,0,1
 730 876 730 876 787 837 c 128,-1,2
 844 798 844 798 867 710 c 1,3,4
 1050 876 1050 876 1161 876 c 0,5,6
 1226 876 1226 876 1271 859 c 128,-1,7
 1316 842 1316 842 1345 811 c 128,-1,8
 1374 780 1374 780 1390.5 726 c 128,-1,9
 1407 672 1407 672 1413 608 c 128,-1,10
 1419 544 1419 544 1419 452 c 2,11,-1
 1419 232 l 2,12,13
 1419 116 1419 116 1429 84 c 0,14,15
 1433 70 1433 70 1479.5 61 c 128,-1,16
 1526 52 1526 52 1555 52 c 1,17,18
 1561 44 1561 44 1561.5 23 c 128,-1,19
 1562 2 1562 2 1555 -6 c 1,20,21
 1350 4 1350 4 1341 4 c 0,22,23
 1306 4 1306 4 1273.5 2.5 c 128,-1,24
 1241 1 1241 1 1199 -2 c 128,-1,25
 1157 -5 1157 -5 1129 -6 c 1,26,27
 1122 2 1122 2 1122.5 23 c 128,-1,28
 1123 44 1123 44 1129 52 c 1,29,30
 1158 52 1158 52 1204.5 61 c 128,-1,31
 1251 70 1251 70 1255 84 c 0,32,33
 1265 116 1265 116 1265 232 c 2,34,-1
 1265 446 l 2,35,36
 1265 510 1265 510 1261 555 c 128,-1,37
 1257 600 1257 600 1245.5 641.5 c 128,-1,38
 1234 683 1234 683 1213.5 707 c 128,-1,39
 1193 731 1193 731 1159 745.5 c 128,-1,40
 1125 760 1125 760 1077 760 c 0,41,42
 1033 760 1033 760 984.5 734 c 128,-1,43
 936 708 936 708 908.5 681.5 c 128,-1,44
 881 655 881 655 881 646 c 0,45,46
 881 645 881 645 882 633.5 c 128,-1,47
 883 622 883 622 883 620 c 0,48,49
 891 569 891 569 891 478 c 2,50,-1
 891 232 l 2,51,52
 891 116 891 116 901 84 c 0,53,54
 905 70 905 70 951.5 61 c 128,-1,55
 998 52 998 52 1027 52 c 1,56,57
 1033 44 1033 44 1033.5 23 c 128,-1,58
 1034 2 1034 2 1027 -6 c 1,59,60
 822 4 822 4 813 4 c 0,61,62
 778 4 778 4 745.5 2.5 c 128,-1,63
 713 1 713 1 671 -2 c 128,-1,64
 629 -5 629 -5 601 -6 c 1,65,66
 594 2 594 2 594.5 23 c 128,-1,67
 595 44 595 44 601 52 c 1,68,69
 630 52 630 52 676.5 61 c 128,-1,70
 723 70 723 70 727 84 c 0,71,72
 737 116 737 116 737 232 c 2,73,-1
 737 436 l 2,74,75
 737 620 737 620 697 690 c 128,-1,76
 657 760 657 760 549 760 c 0,77,78
 488 760 488 760 425.5 717 c 128,-1,79
 363 674 363 674 363 650 c 2,80,-1
 363 232 l 2,81,82
 363 116 363 116 373 84 c 0,83,84
 377 70 377 70 423.5 61 c 128,-1,85
 470 52 470 52 499 52 c 1,86,87
 505 44 505 44 505.5 23 c 128,-1,88
 506 2 506 2 499 -6 c 1,89,90
 294 4 294 4 285 4 c 0,91,92
 250 4 250 4 217.5 2.5 c 128,-1,93
 185 1 185 1 143 -2 c 128,-1,94
 101 -5 101 -5 73 -6 c 1,95,96
 66 2 66 2 66.5 23 c 128,-1,97
 67 44 67 44 73 52 c 1,98,99
 102 52 102 52 148.5 61 c 128,-1,100
 195 70 195 70 199 84 c 0,101,102
 209 116 209 116 209 232 c 2,103,-1
 209 596 l 2,104,105
 209 684 209 684 199 708 c 0,106,107
 193 723 193 723 161 732 c 128,-1,108
 129 741 129 741 107.5 742.5 c 128,-1,109
 86 744 86 744 69 744 c 1,110,111
 65 748 65 748 64.5 768 c 128,-1,112
 64 788 64 788 69 796 c 1,113,114
 240 819 240 819 355 880 c 1,115,116
 362 880 362 880 369.5 868 c 128,-1,117
 377 856 377 856 377 848 c 1,118,119
 365 764 365 764 365 744 c 0,120,121
 365 736 365 736 369 736 c 0,122,123
 371 736 371 736 375 740 c 0,124,125
 468.418271656 818.471348191 468.418271656 818.471348191 526.83465596 846.83887341 c 0,126,127
 586.885279497 876 586.885279497 876 639 876 c 0,0,1
EndSplineSet
Substitution2: "'smcp' Lowercase to Small Capitals lookup 2-1" m.sc
EndChar
StartChar: p
Encoding: 112 112 79
Width: 1020
Flags: W
LayerCount: 2
Fore
SplineSet
581 876 m 0,0,1
 669 876 669 876 741 836.5 c 128,-1,2
 813 797 813 797 855.5 734 c 128,-1,3
 898 671 898 671 920.5 601 c 128,-1,4
 943 531 943 531 943 464 c 0,5,6
 943 370 943 370 901.5 280.5 c 128,-1,7
 860 191 860 191 794 126.5 c 128,-1,8
 728 62 728 62 643.5 23 c 128,-1,9
 559 -16 559 -16 475 -16 c 0,10,11
 405 -16 405 -16 335 6 c 1,12,13
 327 -4 327 -4 327 -20 c 2,14,-1
 327 -214 l 2,15,16
 327 -330 327 -330 337 -362 c 0,17,18
 341 -376 341 -376 387.5 -385 c 128,-1,19
 434 -394 434 -394 463 -394 c 1,20,21
 469 -402 469 -402 469.5 -423 c 128,-1,22
 470 -444 470 -444 463 -452 c 1,23,24
 258 -442 258 -442 249 -442 c 0,25,26
 214 -442 214 -442 181.5 -443.5 c 128,-1,27
 149 -445 149 -445 107 -448 c 128,-1,28
 65 -451 65 -451 37 -452 c 1,29,30
 30 -444 30 -444 30.5 -423 c 128,-1,31
 31 -402 31 -402 37 -394 c 1,32,33
 66 -394 66 -394 112.5 -385 c 128,-1,34
 159 -376 159 -376 163 -362 c 0,35,36
 171 -337 171 -337 173 -214 c 1,37,-1
 173 604 l 2,38,39
 173 684 173 684 163 708 c 0,40,41
 157 723 157 723 125 732 c 128,-1,42
 93 741 93 741 71.5 742.5 c 128,-1,43
 50 744 50 744 33 744 c 1,44,45
 29 748 29 748 28.5 768 c 128,-1,46
 28 788 28 788 33 796 c 1,47,48
 204 819 204 819 319 880 c 1,49,50
 326 880 326 880 333.5 868 c 128,-1,51
 341 856 341 856 341 848 c 0,52,53
 341 847 341 847 334 811.5 c 128,-1,54
 327 776 327 776 327 766 c 0,55,56
 327 758 327 758 331 758 c 0,57,58
 333 758 333 758 337 762 c 0,59,60
 384 802 384 802 455.5 839 c 128,-1,61
 527 876 527 876 581 876 c 0,0,1
495 758 m 0,62,63
 437 758 437 758 382 730.5 c 128,-1,64
 327 703 327 703 327 680 c 2,65,-1
 327 200 l 2,66,67
 327 130 327 130 387.5 92 c 128,-1,68
 448 54 448 54 513 54 c 0,69,70
 592 54 592 54 653.5 105 c 128,-1,71
 715 156 715 156 745 231.5 c 128,-1,72
 775 307 775 307 775 390 c 0,73,74
 775 562 775 562 694.5 660 c 128,-1,75
 614 758 614 758 495 758 c 0,62,63
EndSplineSet
Substitution2: "'smcp' Lowercase to Small Capitals lookup 2-1" p.sc
EndChar
StartChar: q
Encoding: 113 113 80
Width: 994
Flags: W
LayerCount: 2
Fore
SplineSet
512 804 m 0,0,1
 445 804 445 804 391.5 769.5 c 128,-1,2
 338 735 338 735 308 682 c 128,-1,3
 278 629 278 629 262 574 c 128,-1,4
 246 519 246 519 246 470 c 0,5,6
 246 298 246 298 327.5 202 c 128,-1,7
 409 106 409 106 538 106 c 0,8,9
 595 106 595 106 646.5 134 c 128,-1,10
 698 162 698 162 698 186 c 2,11,-1
 698 664 l 2,12,13
 698 725 698 725 640.5 764.5 c 128,-1,14
 583 804 583 804 512 804 c 0,0,1
572 876 m 0,15,16
 601 876 601 876 688.5 851 c 128,-1,17
 776 826 776 826 810 826 c 0,18,19
 832 826 832 826 850 832 c 1,20,21
 858 832 858 832 867 814.5 c 128,-1,22
 876 797 876 797 876 788 c 1,23,24
 852 735 852 735 852 640 c 2,25,-1
 852 -216 l 2,26,27
 852 -332 852 -332 862 -364 c 0,28,29
 866 -378 866 -378 912.5 -387 c 128,-1,30
 959 -396 959 -396 988 -396 c 1,31,32
 994 -404 994 -404 994.5 -425 c 128,-1,33
 995 -446 995 -446 988 -454 c 1,34,35
 783 -444 783 -444 774 -444 c 0,36,37
 739 -444 739 -444 706.5 -445.5 c 128,-1,38
 674 -447 674 -447 632 -450 c 128,-1,39
 590 -453 590 -453 562 -454 c 1,40,41
 555 -446 555 -446 555.5 -425 c 128,-1,42
 556 -404 556 -404 562 -396 c 1,43,44
 591 -396 591 -396 637.5 -387 c 128,-1,45
 684 -378 684 -378 688 -364 c 0,46,47
 698 -332 698 -332 698 -216 c 2,48,-1
 698 80 l 2,49,50
 698 90 698 90 694.5 97.5 c 128,-1,51
 691 105 691 105 684 100 c 0,52,53
 649 69 649 69 569.5 27.5 c 128,-1,54
 490 -14 490 -14 434 -14 c 0,55,56
 368 -14 368 -14 309 11.5 c 128,-1,57
 250 37 250 37 209 79.5 c 128,-1,58
 168 122 168 122 137.5 176 c 128,-1,59
 107 230 107 230 92.5 287 c 128,-1,60
 78 344 78 344 78 398 c 0,61,62
 78 477 78 477 108.5 552.5 c 128,-1,63
 139 628 139 628 190.5 685 c 128,-1,64
 242 742 242 742 305.5 786 c 128,-1,65
 369 830 369 830 438.5 853 c 128,-1,66
 508 876 508 876 572 876 c 0,15,16
EndSplineSet
Substitution2: "'smcp' Lowercase to Small Capitals lookup 2-1" q.sc
EndChar
StartChar: r
Encoding: 114 114 81
Width: 766
Flags: W
LayerCount: 2
Fore
SplineSet
607 874 m 0,0,1
 646 874 646 874 680.5 857 c 128,-1,2
 715 840 715 840 729 816 c 1,3,4
 737 792 737 792 737 762 c 0,5,6
 737 713 737 713 714 685.5 c 128,-1,7
 691 658 691 658 671 658 c 0,8,9
 658 658 658 658 646.5 663.5 c 128,-1,10
 635 669 635 669 617.5 681.5 c 128,-1,11
 600 694 600 694 597 696 c 0,12,13
 561 720 561 720 523 720 c 0,14,15
 465 720 465 720 414 651.5 c 128,-1,16
 363 583 363 583 363 540 c 2,17,-1
 363 232 l 2,18,19
 363 116 363 116 373 84 c 0,20,21
 377 70 377 70 443.5 61 c 128,-1,22
 510 52 510 52 545 52 c 1,23,24
 551 44 551 44 551.5 23 c 128,-1,25
 552 2 552 2 545 -6 c 1,26,27
 340 4 340 4 297 4 c 0,28,29
 278 4 278 4 73 -6 c 1,30,31
 66 2 66 2 66.5 23 c 128,-1,32
 67 44 67 44 73 52 c 1,33,34
 102 52 102 52 148.5 61 c 128,-1,35
 195 70 195 70 199 84 c 0,36,37
 207 109 207 109 209 232 c 1,38,-1
 209 604 l 2,39,40
 209 684 209 684 199 708 c 0,41,42
 193 723 193 723 161 732 c 128,-1,43
 129 741 129 741 107.5 742.5 c 128,-1,44
 86 744 86 744 69 744 c 1,45,46
 65 748 65 748 64.5 768 c 128,-1,47
 64 788 64 788 69 796 c 1,48,49
 240 819 240 819 355 880 c 1,50,51
 362 880 362 880 369.5 868 c 128,-1,52
 377 856 377 856 377 848 c 1,53,54
 375 836 375 836 369 757.5 c 128,-1,55
 363 679 363 679 363 664 c 0,56,57
 363 660 363 660 365 658.5 c 128,-1,58
 367 657 367 657 368.5 657.5 c 128,-1,59
 370 658 370 658 371 660 c 0,60,61
 405 734 405 734 475 804 c 128,-1,62
 545 874 545 874 607 874 c 0,0,1
EndSplineSet
Substitution2: "'smcp' Lowercase to Small Capitals lookup 2-1" r.sc
EndChar
StartChar: s
Encoding: 115 115 82
Width: 738
Flags: W
LayerCount: 2
Fore
SplineSet
390 874 m 0,0,1
 435 874 435 874 501 862.5 c 128,-1,2
 567 851 567 851 594 848 c 1,3,4
 614 758 614 758 618 628 c 0,5,6
 618 618 618 618 598 618 c 0,7,8
 576 618 576 618 564 628 c 1,9,10
 546 695 546 695 500 753.5 c 128,-1,11
 454 812 454 812 396 812 c 0,12,13
 327 812 327 812 290.5 777 c 128,-1,14
 254 742 254 742 254 686 c 0,15,16
 254 661 254 661 261.5 639.5 c 128,-1,17
 269 618 269 618 278 604 c 128,-1,18
 287 590 287 590 308.5 573 c 128,-1,19
 330 556 330 556 342 548 c 128,-1,20
 354 540 354 540 385 522.5 c 128,-1,21
 416 505 416 505 428 498 c 0,22,23
 437 493 437 493 468 475 c 128,-1,24
 499 457 499 457 513.5 447.5 c 128,-1,25
 528 438 528 438 555.5 419.5 c 128,-1,26
 583 401 583 401 597 385.5 c 128,-1,27
 611 370 611 370 627.5 348.5 c 128,-1,28
 644 327 644 327 651 303.5 c 128,-1,29
 658 280 658 280 658 254 c 0,30,31
 658 135 658 135 566.5 56.5 c 128,-1,32
 475 -22 475 -22 350 -22 c 0,33,34
 309 -22 309 -22 273.5 -16.5 c 128,-1,35
 238 -11 238 -11 190.5 0 c 128,-1,36
 143 11 143 11 116 16 c 1,37,38
 104 47 104 47 93 115.5 c 128,-1,39
 82 184 82 184 82 224 c 1,40,41
 98 236 98 236 118 236 c 0,42,43
 130 236 130 236 136 232 c 1,44,45
 156 161 156 161 217 101.5 c 128,-1,46
 278 42 278 42 352 42 c 0,47,48
 415 42 415 42 455.5 80.5 c 128,-1,49
 496 119 496 119 496 186 c 0,50,51
 496 221 496 221 483.5 249 c 128,-1,52
 471 277 471 277 442 301 c 128,-1,53
 413 325 413 325 390 339.5 c 128,-1,54
 367 354 367 354 320 378.5 c 128,-1,55
 273 403 273 403 252 416 c 0,56,57
 182 456 182 456 141 506.5 c 128,-1,58
 100 557 100 557 100 630 c 0,59,60
 100 737 100 737 187 805.5 c 128,-1,61
 274 874 274 874 390 874 c 0,0,1
EndSplineSet
Substitution2: "'smcp' Lowercase to Small Capitals lookup 2-1" s.sc
EndChar
StartChar: y
Encoding: 121 121 88
Width: 938
Flags: W
LayerCount: 2
Fore
SplineSet
203 850 m 0,0,1
 318 850 318 850 403 860 c 1,2,3
 407 851 407 851 404.5 826.5 c 128,-1,4
 402 802 402 802 395 802 c 0,5,6
 382 802 382 802 362.5 800 c 128,-1,7
 343 798 343 798 320 789.5 c 128,-1,8
 297 781 297 781 297 768 c 0,9,10
 297 764 297 764 299 760 c 2,11,-1
 511 220 l 1,12,13
 613 486 613 486 689 674 c 0,14,15
 701 703 701 703 701 738 c 0,16,17
 701 768 701 768 669 785 c 128,-1,18
 637 802 637 802 585 802 c 0,19,20
 578 802 578 802 578 827 c 128,-1,21
 578 852 578 852 585 860 c 1,22,23
 660 850 660 850 765 850 c 0,24,25
 833 850 833 850 933 860 c 1,26,27
 939 851 939 851 936 826.5 c 128,-1,28
 933 802 933 802 927 802 c 0,29,30
 901 802 901 802 858.5 786 c 128,-1,31
 816 770 816 770 801 734 c 0,32,33
 587 224 587 224 501 12 c 0,34,35
 491 -12 491 -12 458 -100 c 128,-1,36
 425 -188 425 -188 400 -242 c 128,-1,37
 375 -296 375 -296 342 -344 c 0,38,39
 266 -456 266 -456 168 -456 c 0,40,41
 81 -456 81 -456 81 -370 c 0,42,43
 81 -341 81 -341 105 -312 c 1,44,45
 185 -312 185 -312 230 -292.5 c 128,-1,46
 275 -273 275 -273 331 -198 c 0,47,48
 352 -170 352 -170 386.5 -94 c 128,-1,49
 421 -18 421 -18 427 4 c 1,50,51
 227 514 227 514 113 762 c 0,52,53
 94 802 94 802 3 802 c 0,54,55
 0 802 0 802 0 829.5 c 128,-1,56
 0 857 0 857 3 860 c 1,57,58
 98 850 98 850 203 850 c 0,0,1
EndSplineSet
Substitution2: "'smcp' Lowercase to Small Capitals lookup 2-1" y.sc
EndChar
StartChar: bar
Encoding: 124 124 91
Width: 410
Flags: W
LayerCount: 2
Fore
SplineSet
257 -212 m 2,0,1
 257 -222 257 -222 215.5 -234 c 128,-1,2
 174 -246 174 -246 165 -246 c 0,3,4
 160 -246 160 -246 157.5 -244.5 c 128,-1,5
 155 -243 155 -243 154.5 -241.5 c 128,-1,6
 154 -240 154 -240 154.5 -235.5 c 128,-1,7
 155 -231 155 -231 155 -230 c 2,8,-1
 155 1514 l 1,9,10
 153 1526 153 1526 165 1530 c 0,11,12
 213 1544 213 1544 239 1544 c 0,13,14
 247 1544 247 1544 251 1541 c 128,-1,15
 255 1538 255 1538 255 1535 c 2,16,-1
 255 1532 l 1,17,-1
 257 -212 l 2,0,1
EndSplineSet
Substitution2: "'smcp' Lowercase to Small Capitals lookup 2-1" bar.sc
EndChar
StartChar: braceright
Encoding: 125 125 92
Width: 446
Flags: W
LayerCount: 2
Fore
SplineSet
114 1440 m 1,0,1
 191 1409 191 1409 259.5 1311.5 c 128,-1,2
 328 1214 328 1214 328 1082 c 0,3,4
 328 1016 328 1016 282 916 c 0,5,6
 281 914 281 914 273 895.5 c 128,-1,7
 265 877 265 877 263 873 c 128,-1,8
 261 869 261 869 255 853.5 c 128,-1,9
 249 838 249 838 247 830.5 c 128,-1,10
 245 823 245 823 241.5 810.5 c 128,-1,11
 238 798 238 798 237 787.5 c 128,-1,12
 236 777 236 777 236 766 c 0,13,14
 236 637 236 637 388 598 c 1,15,16
 392 591 392 591 392 576 c 128,-1,17
 392 561 392 561 388 554 c 1,18,19
 236 515 236 515 236 386 c 0,20,21
 236 375 236 375 237 364.5 c 128,-1,22
 238 354 238 354 241.5 341.5 c 128,-1,23
 245 329 245 329 247 321.5 c 128,-1,24
 249 314 249 314 255 298.5 c 128,-1,25
 261 283 261 283 263 279 c 128,-1,26
 265 275 265 275 273 256.5 c 128,-1,27
 281 238 281 238 282 236 c 0,28,29
 328 136 328 136 328 70 c 0,30,31
 328 -62 328 -62 259.5 -159.5 c 128,-1,32
 191 -257 191 -257 114 -288 c 1,33,34
 102 -288 102 -288 92 -276 c 128,-1,35
 82 -264 82 -264 82 -250 c 1,36,37
 133 -225 133 -225 186.5 -160 c 128,-1,38
 240 -95 240 -95 240 -26 c 0,39,40
 240 -10 240 -10 239 4.5 c 128,-1,41
 238 19 238 19 234.5 34 c 128,-1,42
 231 49 231 49 228.5 59 c 128,-1,43
 226 69 226 69 219.5 85.5 c 128,-1,44
 213 102 213 102 210.5 108 c 128,-1,45
 208 114 208 114 200 132.5 c 128,-1,46
 192 151 192 151 190 156 c 0,47,48
 144 252 144 252 144 342 c 0,49,50
 144 429 144 429 192 493 c 128,-1,51
 240 557 240 557 290 576 c 1,52,53
 240 595 240 595 192 659 c 128,-1,54
 144 723 144 723 144 810 c 0,55,56
 144 900 144 900 190 996 c 0,57,58
 192 1001 192 1001 200 1019.5 c 128,-1,59
 208 1038 208 1038 210.5 1044 c 128,-1,60
 213 1050 213 1050 219.5 1066.5 c 128,-1,61
 226 1083 226 1083 228.5 1093 c 128,-1,62
 231 1103 231 1103 234.5 1118 c 128,-1,63
 238 1133 238 1133 239 1147.5 c 128,-1,64
 240 1162 240 1162 240 1178 c 0,65,66
 240 1247 240 1247 186.5 1312 c 128,-1,67
 133 1377 133 1377 82 1402 c 1,68,69
 82 1416 82 1416 92 1428 c 128,-1,70
 102 1440 102 1440 114 1440 c 1,0,1
EndSplineSet
Substitution2: "'smcp' Lowercase to Small Capitals lookup 2-1" braceright.sc
EndChar
StartChar: brokenbar
Encoding: 166 166 100
Width: 428
Flags: W
LayerCount: 2
Fore
SplineSet
267 800 m 1,0,1
 266 790 266 790 226 780 c 128,-1,2
 186 770 186 770 175 770 c 0,3,4
 170 770 170 770 167.5 771.5 c 128,-1,5
 165 773 165 773 164.5 774.5 c 128,-1,6
 164 776 164 776 164.5 780.5 c 128,-1,7
 165 785 165 785 165 786 c 2,8,-1
 165 1514 l 1,9,10
 163 1526 163 1526 175 1530 c 0,11,12
 209 1540 209 1540 251 1540 c 0,13,14
 259 1540 259 1540 263 1537 c 128,-1,15
 267 1534 267 1534 267 1531 c 2,16,-1
 267 1528 l 1,17,-1
 267 800 l 1,0,1
165 -230 m 2,18,-1
 165 498 l 1,19,20
 163 510 163 510 175 514 c 0,21,22
 209 524 209 524 251 524 c 0,23,24
 259 524 259 524 263 521 c 128,-1,25
 267 518 267 518 267 515 c 2,26,-1
 267 512 l 1,27,-1
 267 -216 l 1,28,29
 266 -226 266 -226 226 -236 c 128,-1,30
 186 -246 186 -246 175 -246 c 0,31,32
 170 -246 170 -246 167.5 -244.5 c 128,-1,33
 165 -243 165 -243 164.5 -241.5 c 128,-1,34
 164 -240 164 -240 164.5 -235.5 c 128,-1,35
 165 -231 165 -231 165 -230 c 2,18,-1
EndSplineSet
EndChar
StartChar: ordfeminine
Encoding: 170 170 104
Width: 690
Flags: W
LayerCount: 2
Fore
SplineSet
302 572 m 0,0,1
 335 572 335 572 378.5 599.5 c 128,-1,2
 422 627 422 627 422 640 c 2,3,-1
 422 810 l 1,4,5
 409 806 409 806 379.5 797 c 128,-1,6
 350 788 350 788 327.5 781 c 128,-1,7
 305 774 305 774 294 770 c 0,8,9
 208 736 208 736 208 670 c 0,10,11
 208 631 208 631 235.5 601.5 c 128,-1,12
 263 572 263 572 302 572 c 0,0,1
376 1112 m 0,13,14
 436 1112 436 1112 482 1057 c 128,-1,15
 528 1002 528 1002 528 924 c 2,16,-1
 528 638 l 2,17,18
 528 572 528 572 570 572 c 0,19,20
 578 572 578 572 586.5 574.5 c 128,-1,21
 595 577 595 577 600.5 580 c 128,-1,22
 606 583 606 583 611 586.5 c 2,23,-1
 616 590 l 1,24,25
 622 590 622 590 622 580 c 0,26,27
 622 566 622 566 614 554 c 1,28,29
 599 539 599 539 564.5 519.5 c 128,-1,30
 530 500 530 500 510 500 c 0,31,32
 481 500 481 500 456.5 528 c 128,-1,33
 432 556 432 556 426 590 c 1,34,35
 407 571 407 571 347 534.5 c 128,-1,36
 287 498 287 498 256 498 c 0,37,38
 187 498 187 498 140.5 544 c 128,-1,39
 94 590 94 590 94 658 c 0,40,41
 94 697 94 697 116 727.5 c 128,-1,42
 138 758 138 758 164 768 c 0,43,44
 394 850 394 850 406 856 c 0,45,46
 417 861 417 861 419.5 866.5 c 128,-1,47
 422 872 422 872 422 890 c 2,48,-1
 422 928 l 2,49,50
 422 978 422 978 390 1015 c 128,-1,51
 358 1052 358 1052 304 1052 c 0,52,53
 269 1052 269 1052 251.5 1033.5 c 128,-1,54
 234 1015 234 1015 226 974 c 1,55,56
 215 908 215 908 162 908 c 0,57,58
 141 908 141 908 127.5 926 c 128,-1,59
 114 944 114 944 114 966 c 0,60,61
 114 990 114 990 124 1000 c 0,62,63
 165 1039 165 1039 236.5 1075.5 c 128,-1,64
 308 1112 308 1112 376 1112 c 0,13,14
EndSplineSet
EndChar
StartChar: guillemotleft
Encoding: 171 171 105
Width: 964
Flags: W
LayerCount: 2
Fore
SplineSet
414 492 m 0,0,1
 414 506 414 506 424 528 c 1,2,3
 676 680 676 680 842 846 c 1,4,5
 877 835 877 835 886 822 c 1,6,7
 878 792 878 792 772 676.5 c 128,-1,8
 666 561 666 561 590 494 c 1,9,10
 666 427 666 427 772 311.5 c 128,-1,11
 878 196 878 196 886 166 c 1,12,13
 877 153 877 153 842 142 c 1,14,15
 676 308 676 308 424 460 c 1,16,17
 414 475 414 475 414 492 c 0,0,1
54 492 m 0,18,19
 54 506 54 506 64 528 c 1,20,21
 316 680 316 680 482 846 c 1,22,23
 517 835 517 835 526 822 c 1,24,25
 518 792 518 792 412 676.5 c 128,-1,26
 306 561 306 561 230 494 c 1,27,28
 306 427 306 427 412 311.5 c 128,-1,29
 518 196 518 196 526 166 c 1,30,31
 517 153 517 153 482 142 c 1,32,33
 316 308 316 308 64 460 c 1,34,35
 54 475 54 475 54 492 c 0,18,19
EndSplineSet
EndChar
StartChar: logicalnot
Encoding: 172 172 106
Width: 1174
Flags: W
LayerCount: 2
Fore
SplineSet
1032 840 m 17,0,-1
 1032 338 l 1,1,2
 1030 336 1030 336 1016 329.5 c 128,-1,3
 1002 323 1002 323 979 315.5 c 128,-1,4
 956 308 956 308 938 308 c 1,5,6
 918 310 918 310 912 322 c 1,7,-1
 912 728 l 1,8,-1
 102 728 l 2,9,10
 90 728 90 728 90 748 c 1,11,12
 100 840 100 840 120 840 c 2,13,-1
 1032 840 l 17,0,-1
EndSplineSet
EndChar
StartChar: uni00B3
Encoding: 179 179 112
Width: 636
Flags: W
LayerCount: 2
Fore
SplineSet
324 1292 m 0,0,1
 393 1292 393 1292 445.5 1251 c 128,-1,2
 498 1210 498 1210 498 1138 c 0,3,4
 498 1079 498 1079 461 1035 c 128,-1,5
 424 991 424 991 382 972 c 1,6,7
 433 972 433 972 497.5 916 c 128,-1,8
 562 860 562 860 562 772 c 0,9,10
 562 645 562 645 467.5 571.5 c 128,-1,11
 373 498 373 498 236 498 c 0,12,13
 200 498 200 498 158 506.5 c 128,-1,14
 116 515 116 515 102 528 c 0,15,16
 78 550 78 550 78 576 c 0,17,18
 78 605 78 605 96.5 623.5 c 128,-1,19
 115 642 115 642 140 642 c 0,20,21
 155 642 155 642 166.5 634 c 128,-1,22
 178 626 178 626 192 608 c 128,-1,23
 206 590 206 590 212 584 c 0,24,25
 242 554 242 554 290 554 c 0,26,27
 355 554 355 554 394.5 600.5 c 128,-1,28
 434 647 434 647 434 736 c 0,29,30
 434 808 434 808 390.5 858 c 128,-1,31
 347 908 347 908 290 908 c 0,32,33
 274 908 274 908 257 904.5 c 128,-1,34
 240 901 240 901 225.5 896.5 c 128,-1,35
 211 892 211 892 210 892 c 0,36,37
 203 899 203 899 200 914 c 0,38,39
 197 926 197 926 200 934 c 1,40,41
 280 950 280 950 333 996.5 c 128,-1,42
 386 1043 386 1043 386 1112 c 0,43,44
 386 1151 386 1151 354.5 1182.5 c 128,-1,45
 323 1214 323 1214 284 1214 c 0,46,47
 272 1214 272 1214 260 1212 c 128,-1,48
 248 1210 248 1210 237.5 1206 c 128,-1,49
 227 1202 227 1202 217.5 1197.5 c 128,-1,50
 208 1193 208 1193 199 1187 c 128,-1,51
 190 1181 190 1181 183.5 1176 c 128,-1,52
 177 1171 177 1171 169.5 1164.5 c 128,-1,53
 162 1158 162 1158 158.5 1154.5 c 128,-1,54
 155 1151 155 1151 149.5 1145.5 c 2,55,-1
 144 1140 l 1,56,57
 139 1142 139 1142 134.5 1149.5 c 128,-1,58
 130 1157 130 1157 127.5 1164 c 128,-1,59
 125 1171 125 1171 126 1172 c 0,60,61
 206 1292 206 1292 324 1292 c 0,0,1
EndSplineSet
EndChar
StartChar: mu
Encoding: 181 181 114
Width: 1082
Flags: W
LayerCount: 2
Fore
SplineSet
288 446 m 1,0,1
 288 315 288 315 314 221.5 c 128,-1,2
 340 128 340 128 390 128 c 0,3,4
 438 128 438 128 483.5 158 c 128,-1,5
 529 188 529 188 564.5 238 c 128,-1,6
 600 288 600 288 627 341.5 c 128,-1,7
 654 395 654 395 674 454 c 1,8,-1
 674 596 l 1,9,-1
 674 834 l 1,10,11
 699 874 699 874 722 874 c 0,12,13
 740 874 740 874 784 846 c 128,-1,14
 828 818 828 818 828 800 c 0,15,16
 828 790 828 790 826 772.5 c 128,-1,17
 824 755 824 755 819.5 726 c 128,-1,18
 815 697 815 697 810.5 668 c 128,-1,19
 806 639 806 639 797.5 588 c 128,-1,20
 789 537 789 537 782 492 c 1,21,-1
 762 390 l 1,22,23
 762 278 762 278 799 205 c 128,-1,24
 836 132 836 132 902 132 c 0,25,26
 957 132 957 132 1004 192 c 1,27,28
 1011 192 1011 192 1022 174 c 1,29,30
 1028 162 1028 162 1028 152 c 1,31,32
 1008 85 1008 85 954.5 38.5 c 128,-1,33
 901 -8 901 -8 842 -8 c 1,34,35
 809 -7 809 -7 782.5 29.5 c 128,-1,36
 756 66 756 66 742 120 c 128,-1,37
 728 174 728 174 721 214 c 128,-1,38
 714 254 714 254 712 284 c 1,39,40
 688 227 688 227 657.5 177 c 128,-1,41
 627 127 627 127 588 81.5 c 128,-1,42
 549 36 549 36 500.5 9 c 128,-1,43
 452 -18 452 -18 402 -18 c 0,44,45
 313 -18 313 -18 276 202 c 1,46,47
 277 195 277 195 276.5 82 c 128,-1,48
 276 -31 276 -31 283 -170 c 128,-1,49
 290 -309 290 -309 310 -414 c 1,50,51
 285 -454 285 -454 262 -454 c 0,52,53
 244 -454 244 -454 200 -426 c 128,-1,54
 156 -398 156 -398 156 -380 c 0,55,56
 156 -317 156 -317 169.5 -21 c 128,-1,57
 183 275 183 275 198 408 c 1,58,59
 198 432 198 432 194 502.5 c 128,-1,60
 190 573 190 573 190 596 c 2,61,-1
 190 834 l 1,62,63
 215 874 215 874 238 874 c 0,64,65
 256 874 256 874 300 846 c 128,-1,66
 344 818 344 818 344 800 c 0,67,68
 344 707 344 707 298 492 c 2,69,-1
 288 446 l 1,0,1
EndSplineSet
EndChar
StartChar: paragraph
Encoding: 182 182 115
Width: 968
Flags: W
LayerCount: 2
Fore
SplineSet
644 666 m 1,0,1
 644 1212 l 1,2,3
 634 1222 634 1222 586 1222 c 0,4,5
 542 1222 542 1222 530 1210 c 1,6,7
 530 656 l 1,8,9
 548 656 548 656 593.5 659 c 128,-1,10
 639 662 639 662 644 666 c 1,0,1
642 584 m 17,11,12
 634 583 634 583 610 581.5 c 128,-1,13
 586 580 586 580 565 578.5 c 128,-1,14
 544 577 544 577 530 576 c 1,15,-1
 530 232 l 2,16,17
 530 116 530 116 536 84 c 0,18,19
 538 72 538 72 586 72 c 0,20,21
 636 72 636 72 638 84 c 0,22,23
 644 116 644 116 644 232 c 2,24,-1
 642 584 l 17,11,12
722 598 m 1,25,-1
 722 232 l 2,26,27
 722 116 722 116 732 84 c 0,28,29
 736 69 736 69 786 57.5 c 128,-1,30
 836 46 836 46 862 46 c 0,31,32
 865 46 865 46 865 20.5 c 128,-1,33
 865 -5 865 -5 862 -8 c 1,34,35
 812 -6 812 -6 738 -1 c 128,-1,36
 664 4 664 4 594 4 c 0,37,38
 556 4 556 4 316 -8 c 1,39,40
 312 0 312 0 312.5 20.5 c 128,-1,41
 313 41 313 41 320 46 c 1,42,43
 341 46 341 46 389.5 58 c 128,-1,44
 438 70 438 70 442 84 c 0,45,46
 452 116 452 116 452 232 c 2,47,-1
 452 574 l 1,48,49
 361 574 361 574 285 611 c 128,-1,50
 209 648 209 648 163.5 704 c 128,-1,51
 118 760 118 760 93 821.5 c 128,-1,52
 68 883 68 883 68 938 c 0,53,54
 68 1043 68 1043 119.5 1128.5 c 128,-1,55
 171 1214 171 1214 249 1259 c 128,-1,56
 327 1304 327 1304 410 1304 c 0,57,58
 469 1304 469 1304 507 1300 c 128,-1,59
 545 1296 545 1296 604 1296 c 0,60,61
 664 1296 664 1296 724.5 1298.5 c 128,-1,62
 785 1301 785 1301 815.5 1303.5 c 2,63,-1
 846 1306 l 1,64,65
 853 1298 853 1298 852.5 1275.5 c 128,-1,66
 852 1253 852 1253 844 1248 c 1,67,68
 816 1248 816 1248 776.5 1236 c 128,-1,69
 737 1224 737 1224 730 1208 c 1,70,71
 724 1187 724 1187 724 1080 c 2,72,-1
 724 678 l 1,73,74
 728 677 728 677 752.5 683.5 c 128,-1,75
 777 690 777 690 799.5 697 c 2,76,-1
 822 704 l 1,77,78
 842 704 842 704 842 692 c 0,79,80
 841 678 841 678 818.5 650.5 c 128,-1,81
 796 623 796 623 784 618 c 0,82,83
 747 601 747 601 722 598 c 1,25,-1
EndSplineSet
EndChar
StartChar: ordmasculine
Encoding: 186 186 119
Width: 776
Flags: W
LayerCount: 2
Fore
SplineSet
374 1060 m 0,0,1
 294 1060 294 1060 254 989 c 128,-1,2
 214 918 214 918 214 822 c 0,3,4
 214 712 214 712 265 627 c 128,-1,5
 316 542 316 542 408 542 c 0,6,7
 484 542 484 542 523 615 c 128,-1,8
 562 688 562 688 562 782 c 0,9,10
 562 851 562 851 543 912 c 128,-1,11
 524 973 524 973 480 1016.5 c 128,-1,12
 436 1060 436 1060 374 1060 c 0,0,1
392 1108 m 0,13,14
 522 1108 522 1108 611 1019.5 c 128,-1,15
 700 931 700 931 700 806 c 0,16,17
 700 680 700 680 610.5 587 c 128,-1,18
 521 494 521 494 392 494 c 0,19,20
 262 494 262 494 169 583.5 c 128,-1,21
 76 673 76 673 76 798 c 0,22,23
 76 926 76 926 167.5 1017 c 128,-1,24
 259 1108 259 1108 392 1108 c 0,13,14
EndSplineSet
EndChar
StartChar: onequarter
Encoding: 188 188 121
Width: 1398
Flags: W
LayerCount: 2
Fore
SplineSet
1212 814 m 0,0,1
 1220 814 1220 814 1225 806.5 c 128,-1,2
 1230 799 1230 799 1230 790 c 2,3,-1
 1230 292 l 1,4,5
 1300 292 l 1,6,7
 1314 279 1314 279 1318.5 256.5 c 128,-1,8
 1323 234 1323 234 1312 212 c 1,9,-1
 1236 212 l 1,10,-1
 1236 0 l 1,11,12
 1230 -6 1230 -6 1176 -6 c 0,13,14
 1124 -6 1124 -6 1112 4 c 1,15,-1
 1112 212 l 1,16,-1
 782 212 l 1,17,18
 765 215 765 215 762 244 c 1,19,-1
 1172 790 l 2,20,21
 1191 814 1191 814 1212 814 c 0,0,1
1112 302 m 9,22,23
 1112 610 l 1,24,25
 1070 557 1070 557 999 458 c 128,-1,26
 928 359 928 359 884 302 c 1,27,-1
 1112 302 l 9,22,23
348 1068 m 2,28,-1
 348 672 l 2,29,30
 348 616 348 616 362 574 c 0,31,32
 365 565 365 565 405 555.5 c 128,-1,33
 445 546 445 546 462 546 c 1,34,35
 468 536 468 536 467.5 521.5 c 128,-1,36
 467 507 467 507 464 502 c 1,37,38
 434 503 434 503 385 505.5 c 128,-1,39
 336 508 336 508 292 508 c 128,-1,40
 248 508 248 508 191.5 505.5 c 128,-1,41
 135 503 135 503 108 502 c 1,42,43
 101 507 101 507 101.5 523.5 c 128,-1,44
 102 540 102 540 108 546 c 1,45,46
 129 546 129 546 166.5 556 c 128,-1,47
 204 566 204 566 208 576 c 0,48,49
 224 618 224 618 224 668 c 2,50,-1
 224 1040 l 2,51,52
 224 1069 224 1069 214.5 1089.5 c 128,-1,53
 205 1110 205 1110 190 1110 c 0,54,55
 180 1110 180 1110 167 1106.5 c 128,-1,56
 154 1103 154 1103 128.5 1093 c 128,-1,57
 103 1083 103 1083 94 1080 c 1,58,59
 77 1088 77 1088 68 1116 c 1,60,61
 95 1133 95 1133 338 1276 c 1,62,63
 349 1273 349 1273 356.5 1263.5 c 128,-1,64
 364 1254 364 1254 364 1244 c 1,65,66
 348 1146 348 1146 348 1068 c 2,28,-1
372 -25 m 0,67,68
 363 -23 363 -23 357 -19 c 128,-1,69
 351 -15 351 -15 350 -11.5 c 2,70,-1
 349 -8 l 1,71,-1
 1049 1273 l 2,72,73
 1050 1276 1050 1276 1058.5 1280.5 c 128,-1,74
 1067 1285 1067 1285 1080.5 1288 c 128,-1,75
 1094 1291 1094 1291 1111 1288 c 0,76,77
 1126 1285 1126 1285 1126 1268 c 1,78,-1
 436 4 l 1,79,80
 428 -8 428 -8 411 -19 c 128,-1,81
 394 -30 394 -30 372 -25 c 0,67,68
EndSplineSet
EndChar
StartChar: threequarters
Encoding: 190 190 123
Width: 1400
Flags: W
LayerCount: 2
Fore
SplineSet
1214 814 m 0,0,1
 1222 814 1222 814 1227 806.5 c 128,-1,2
 1232 799 1232 799 1232 790 c 2,3,-1
 1232 292 l 1,4,5
 1302 292 l 1,6,7
 1316 279 1316 279 1320.5 256.5 c 128,-1,8
 1325 234 1325 234 1314 212 c 1,9,-1
 1238 212 l 1,10,-1
 1238 0 l 1,11,12
 1232 -6 1232 -6 1178 -6 c 0,13,14
 1126 -6 1126 -6 1114 4 c 1,15,-1
 1114 212 l 1,16,-1
 784 212 l 1,17,18
 767 215 767 215 764 244 c 1,19,-1
 1174 790 l 2,20,21
 1193 814 1193 814 1214 814 c 0,0,1
1114 302 m 9,22,23
 1114 610 l 1,24,25
 1072 557 1072 557 1001 458 c 128,-1,26
 930 359 930 359 886 302 c 1,27,-1
 1114 302 l 9,22,23
316 1292 m 0,28,29
 385 1292 385 1292 437.5 1251 c 128,-1,30
 490 1210 490 1210 490 1138 c 0,31,32
 490 1079 490 1079 453 1035 c 128,-1,33
 416 991 416 991 374 972 c 1,34,35
 425 972 425 972 489.5 916 c 128,-1,36
 554 860 554 860 554 772 c 0,37,38
 554 645 554 645 459.5 571.5 c 128,-1,39
 365 498 365 498 228 498 c 0,40,41
 192 498 192 498 150 506.5 c 128,-1,42
 108 515 108 515 94 528 c 0,43,44
 70 550 70 550 70 576 c 0,45,46
 70 605 70 605 88.5 623.5 c 128,-1,47
 107 642 107 642 132 642 c 0,48,49
 147 642 147 642 158.5 634 c 128,-1,50
 170 626 170 626 184 608 c 128,-1,51
 198 590 198 590 204 584 c 0,52,53
 234 554 234 554 282 554 c 0,54,55
 347 554 347 554 386.5 600.5 c 128,-1,56
 426 647 426 647 426 736 c 0,57,58
 426 808 426 808 382.5 858 c 128,-1,59
 339 908 339 908 282 908 c 0,60,61
 266 908 266 908 249 904.5 c 128,-1,62
 232 901 232 901 217.5 896.5 c 128,-1,63
 203 892 203 892 202 892 c 0,64,65
 196 898 196 898 192 916 c 1,66,67
 190 930 190 930 192 934 c 1,68,69
 272 950 272 950 325 996.5 c 128,-1,70
 378 1043 378 1043 378 1112 c 0,71,72
 378 1151 378 1151 346.5 1182.5 c 128,-1,73
 315 1214 315 1214 276 1214 c 0,74,75
 264 1214 264 1214 252 1212 c 128,-1,76
 240 1210 240 1210 229.5 1206 c 128,-1,77
 219 1202 219 1202 209.5 1197.5 c 128,-1,78
 200 1193 200 1193 191 1187 c 128,-1,79
 182 1181 182 1181 175.5 1176 c 128,-1,80
 169 1171 169 1171 161.5 1164.5 c 128,-1,81
 154 1158 154 1158 150.5 1154.5 c 128,-1,82
 147 1151 147 1151 141.5 1145.5 c 2,83,-1
 136 1140 l 1,84,85
 131 1142 131 1142 126.5 1149.5 c 128,-1,86
 122 1157 122 1157 119.5 1164 c 128,-1,87
 117 1171 117 1171 118 1172 c 0,88,89
 198 1292 198 1292 316 1292 c 0,28,29
1138 1268 m 1,90,-1
 448 4 l 1,91,92
 440 -8 440 -8 423 -19 c 128,-1,93
 406 -30 406 -30 384 -25 c 0,94,95
 375 -23 375 -23 369 -19 c 128,-1,96
 363 -15 363 -15 362 -11.5 c 2,97,-1
 361 -8 l 1,98,-1
 1061 1273 l 2,99,100
 1062 1276 1062 1276 1070.5 1280.5 c 128,-1,101
 1079 1285 1079 1285 1092.5 1288 c 128,-1,102
 1106 1291 1106 1291 1123 1288 c 0,103,104
 1138 1285 1138 1285 1138 1268 c 1,90,-1
EndSplineSet
EndChar
StartChar: AE
Encoding: 198 198 131
Width: 1794
Flags: W
LayerCount: 2
Fore
SplineSet
946 0 m 0,0,1
 886 0 886 0 828 -1.5 c 128,-1,2
 770 -3 770 -3 742 -4.5 c 2,3,-1
 714 -6 l 1,4,5
 710 -1 710 -1 709.5 13 c 128,-1,6
 709 27 709 27 710.5 39.5 c 128,-1,7
 712 52 712 52 714 52 c 0,8,9
 738 52 738 52 788.5 67 c 128,-1,10
 839 82 839 82 846 98 c 1,11,12
 860 152 860 152 860 270 c 2,13,-1
 860 510 l 1,14,15
 788 514 788 514 682 514 c 0,16,17
 631 514 631 514 478 504 c 1,18,-1
 468 498 l 1,19,20
 384 356 384 356 322 258 c 1,21,22
 242 134 242 134 242 104 c 0,23,24
 242 87 242 87 259 75.5 c 128,-1,25
 276 64 276 64 301 59.5 c 128,-1,26
 326 55 326 55 342.5 53.5 c 128,-1,27
 359 52 359 52 370 52 c 1,28,29
 374 48 374 48 375.5 25.5 c 128,-1,30
 377 3 377 3 374 -6 c 1,31,32
 345 -5 345 -5 311 -2 c 128,-1,33
 277 1 277 1 248 2.5 c 128,-1,34
 219 4 219 4 180 4 c 0,35,36
 139 4 139 4 109 2.5 c 128,-1,37
 79 1 79 1 42.5 -2 c 128,-1,38
 6 -5 6 -5 -28 -6 c 1,39,40
 -32 -2 -32 -2 -32 20 c 128,-1,41
 -32 42 -32 42 -28 52 c 1,42,43
 -10 52 -10 52 27.5 64.5 c 128,-1,44
 65 77 65 77 86 90 c 0,45,46
 149 130 149 130 236 274 c 1,47,-1
 790 1168 l 2,48,49
 804 1191 804 1191 804 1208 c 0,50,51
 804 1232 804 1232 772 1245 c 128,-1,52
 740 1258 740 1258 714 1258 c 1,53,54
 707 1268 707 1268 708.5 1290 c 128,-1,55
 710 1312 710 1312 714 1316 c 1,56,57
 812 1314 812 1314 946 1314 c 0,58,59
 1036 1314 1036 1314 1255.5 1321 c 128,-1,60
 1475 1328 1475 1328 1588 1328 c 1,61,62
 1596 1270 1596 1270 1618.5 1175 c 128,-1,63
 1641 1080 1641 1080 1646 1056 c 1,64,65
 1636 1046 1636 1046 1610 1046 c 0,66,67
 1585 1046 1585 1046 1582 1060 c 0,68,69
 1551 1171 1551 1171 1495.5 1209.5 c 128,-1,70
 1440 1248 1440 1248 1350 1248 c 2,71,-1
 1178 1248 l 2,72,73
 1047 1248 1047 1248 1040 1226 c 0,74,75
 1028 1188 1028 1188 1030 1084 c 1,76,-1
 1030 710 l 1,77,78
 1029 703 1029 703 1053 700.5 c 128,-1,79
 1077 698 1077 698 1116 698 c 2,80,-1
 1222 698 l 2,81,82
 1272 698 1272 698 1300 699 c 128,-1,83
 1328 700 1328 700 1352.5 705 c 128,-1,84
 1377 710 1377 710 1388 718 c 128,-1,85
 1399 726 1399 726 1409 740.5 c 128,-1,86
 1419 755 1419 755 1424.5 775 c 128,-1,87
 1430 795 1430 795 1437.62911592 824.890523192 c 0,88,89
 1440 836 1440 836 1442 842 c 0,90,91
 1445 856 1445 856 1472 856 c 0,92,93
 1496 856 1496 856 1506 846 c 1,94,-1
 1506 468 l 1,95,96
 1498 460 1498 460 1474 460 c 0,97,98
 1448 460 1448 460 1442 476 c 1,99,100
 1421 555 1421 555 1411 576.5 c 128,-1,101
 1401 598 1401 598 1386 608 c 0,102,103
 1361 624 1361 624 1174 624 c 0,104,105
 1154 624 1154 624 1143 624 c 128,-1,106
 1132 624 1132 624 1112 623.5 c 128,-1,107
 1092 623 1092 623 1080 622 c 128,-1,108
 1068 621 1068 621 1055 619 c 128,-1,109
 1042 617 1042 617 1036 613.5 c 128,-1,110
 1030 610 1030 610 1030 606 c 2,111,-1
 1030 226 l 1,112,113
 1029 191 1029 191 1031.5 143 c 128,-1,114
 1034 95 1034 95 1042 88 c 0,115,116
 1060 74 1060 74 1086.5 71 c 128,-1,117
 1113 68 1113 68 1184 68 c 2,118,-1
 1280 68 l 2,119,120
 1352 68 1352 68 1421.5 82.5 c 128,-1,121
 1491 97 1491 97 1532 122 c 0,122,123
 1575 148 1575 148 1601 194.5 c 128,-1,124
 1627 241 1627 241 1658 324 c 1,125,126
 1661 336 1661 336 1686 336 c 0,127,128
 1724 336 1724 336 1736 324 c 1,129,130
 1727 298 1727 298 1706 241 c 128,-1,131
 1685 184 1685 184 1672.5 148.5 c 128,-1,132
 1660 113 1660 113 1646.5 68 c 128,-1,133
 1633 23 1633 23 1628 -8 c 1,134,135
 1525 -8 1525 -8 1305 -4 c 128,-1,136
 1085 0 1085 0 946 0 c 0,0,1
860 594 m 9,137,-1
 860 1132 l 1,138,-1
 532 600 l 1,139,140
 530 592 530 592 534 592 c 0,141,142
 586 590 586 590 692 590 c 0,143,144
 784 590 784 590 860 594 c 9,137,-1
EndSplineSet
EndChar
StartChar: Eth
Encoding: 208 208 141
Width: 1420
Flags: W
LayerCount: 2
Fore
SplineSet
730 622 m 1,0,-1
 98 622 l 2,1,2
 94 622 94 622 92 636.5 c 0,3,4
 90 651 90 651 92 669.5 c 0,5,6
 94 688 94 688 100 696 c 1,7,-1
 730 696 l 2,8,9
 736 696 736 696 736 666 c 0,10,11
 736 636 736 636 730 622 c 1,0,-1
EndSplineSet
Refer: 35 68 N 1 0 0 1 0 0 3
EndChar
StartChar: multiply
Encoding: 215 215 148
Width: 928
Flags: W
LayerCount: 2
Fore
SplineSet
398 494 m 1,0,-1
 110 782 l 1,1,2
 110 803 110 803 127.5 830.5 c 128,-1,3
 145 858 145 858 158 858 c 0,4,5
 168 858 168 858 172 854 c 0,6,7
 466 570 466 570 470 566 c 1,8,-1
 760 854 l 2,9,10
 764 858 764 858 772 858 c 0,11,12
 784 858 784 858 800 826.5 c 128,-1,13
 816 795 816 795 816 778 c 1,14,15
 542 506 542 506 536 500 c 1,16,-1
 816 210 l 1,17,18
 816 186 816 186 802 158 c 128,-1,19
 788 130 788 130 772 130 c 0,20,21
 762 130 762 130 758 134 c 2,22,-1
 464 428 l 1,23,-1
 166 132 l 2,24,25
 162 128 162 128 154 128 c 0,26,27
 142 128 142 128 126 160.5 c 128,-1,28
 110 193 110 193 110 210 c 1,29,30
 390 486 390 486 398 494 c 1,0,-1
EndSplineSet
Substitution2: "'smcp' Lowercase to Small Capitals lookup 2-1" multiply.sc
EndChar
StartChar: Oslash
Encoding: 216 216 149
Width: 1496
Flags: W
LayerCount: 2
Fore
SplineSet
1130 1334 m 17,0,1
 1146 1330 1146 1330 1169.5 1314 c 0,2,3
 1193 1298 1193 1298 1188 1290 c 2,4,-1
 352 -26 l 1,5,6
 335 -20 335 -20 312 -4 c 0,7,8
 289 12 289 12 294 20 c 2,9,-1
 1130 1334 l 17,0,1
EndSplineSet
Refer: 46 79 N 1 0 0 1 0 0 3
EndChar
StartChar: oslash
Encoding: 248 248 181
Width: 1018
Flags: W
LayerCount: 2
Fore
SplineSet
258 -16 m 17,0,1
 248 -11 248 -11 241 -7.5 c 0,2,3
 234 -4 234 -4 223 3 c 0,4,5
 212 10 212 10 207 16 c 0,6,7
 202 22 202 22 204 26 c 2,8,-1
 744 874 l 1,9,10
 763 866 763 866 782.5 854 c 0,11,12
 802 842 802 842 798 834 c 2,13,-1
 258 -16 l 17,0,1
EndSplineSet
Refer: 78 111 N 1 0 0 1 2 0 3
Substitution2: "'smcp' Lowercase to Small Capitals lookup 2-1" oslash.sc
EndChar
StartChar: thorn
Encoding: 254 254 187
Width: 990
Flags: W
LayerCount: 2
Fore
SplineSet
551 876 m 0,0,1
 639 876 639 876 711 836.5 c 128,-1,2
 783 797 783 797 825.5 734 c 128,-1,3
 868 671 868 671 890.5 601 c 128,-1,4
 913 531 913 531 913 464 c 0,5,6
 913 370 913 370 871.5 280.5 c 128,-1,7
 830 191 830 191 764 126.5 c 128,-1,8
 698 62 698 62 613.5 23 c 128,-1,9
 529 -16 529 -16 445 -16 c 0,10,11
 375 -16 375 -16 305 6 c 1,12,13
 297 -4 297 -4 297 -20 c 2,14,-1
 297 -214 l 2,15,16
 297 -330 297 -330 307 -362 c 0,17,18
 311 -376 311 -376 357.5 -385 c 128,-1,19
 404 -394 404 -394 433 -394 c 1,20,21
 439 -402 439 -402 439.5 -423 c 128,-1,22
 440 -444 440 -444 433 -452 c 1,23,24
 228 -442 228 -442 219 -442 c 0,25,26
 184 -442 184 -442 151.5 -443.5 c 128,-1,27
 119 -445 119 -445 77 -448 c 128,-1,28
 35 -451 35 -451 7 -452 c 1,29,30
 -0 -444 -0 -444 0.5 -423 c 128,-1,31
 1 -402 1 -402 7 -394 c 1,32,33
 36 -394 36 -394 82.5 -385 c 128,-1,34
 129 -376 129 -376 133 -362 c 0,35,36
 143 -330 143 -330 143 -214 c 2,37,-1
 143 1116 l 2,38,39
 143 1196 143 1196 133 1220 c 0,40,41
 118 1256 118 1256 11 1256 c 0,42,43
 10 1256 10 1256 9 1268.5 c 128,-1,44
 8 1281 8 1281 8.5 1294 c 128,-1,45
 9 1307 9 1307 13 1308 c 0,46,47
 151 1322 151 1322 297 1388 c 1,48,49
 304 1388 304 1388 311.5 1377.5 c 128,-1,50
 319 1367 319 1367 319 1356 c 1,51,52
 297 1292 297 1292 297 1182 c 2,53,-1
 297 768 l 2,54,55
 297 758 297 758 301 758 c 0,56,57
 303 758 303 758 307 762 c 0,58,59
 354 802 354 802 425.5 839 c 128,-1,60
 497 876 497 876 551 876 c 0,0,1
465 758 m 0,61,62
 407 758 407 758 352 730.5 c 128,-1,63
 297 703 297 703 297 680 c 2,64,-1
 297 200 l 2,65,66
 297 130 297 130 357.5 92 c 128,-1,67
 418 54 418 54 483 54 c 0,68,69
 562 54 562 54 623.5 105 c 128,-1,70
 685 156 685 156 715 231.5 c 128,-1,71
 745 307 745 307 745 390 c 0,72,73
 745 562 745 562 664.5 660 c 128,-1,74
 584 758 584 758 465 758 c 0,61,62
EndSplineSet
Substitution2: "'smcp' Lowercase to Small Capitals lookup 2-1" thorn.sc
EndChar
StartChar: Aogonek
Encoding: 260 260 193
Width: 1254
Flags: W
LayerCount: 2
Fore
SplineSet
1262 -6 m 1,0,1
 1245 -5 1245 -5 1195.5 -2 c 128,-1,2
 1146 1 1146 1 1118 2 c 1,3,4
 1040 -45 1040 -45 976 -113.5 c 128,-1,5
 912 -182 912 -182 912 -242 c 0,6,7
 912 -273 912 -273 930.5 -300.5 c 128,-1,8
 949 -328 949 -328 994 -328 c 0,9,10
 1029 -328 1029 -328 1060.5 -316 c 128,-1,11
 1092 -304 1092 -304 1109 -290 c 128,-1,12
 1126 -276 1126 -276 1139.5 -264 c 128,-1,13
 1153 -252 1153 -252 1156 -252 c 0,14,15
 1157 -252 1157 -252 1159.5 -255 c 128,-1,16
 1162 -258 1162 -258 1164 -264.5 c 128,-1,17
 1166 -271 1166 -271 1166 -278 c 0,18,19
 1166 -301 1166 -301 1156 -314 c 0,20,21
 1056 -446 1056 -446 946 -446 c 0,22,23
 894 -446 894 -446 860 -417.5 c 128,-1,24
 826 -389 826 -389 815 -356.5 c 128,-1,25
 804 -324 804 -324 804 -292 c 0,26,27
 804 -215 804 -215 870.5 -134 c 128,-1,28
 937 -53 937 -53 1028 4 c 1,29,-1
 1024 4 l 2,30,31
 1019 4 1019 4 810 -6 c 1,32,33
 803 2 803 2 803.5 23 c 128,-1,34
 804 44 804 44 812 52 c 1,35,36
 835 52 835 52 873.5 59.5 c 128,-1,37
 912 67 912 67 924 78 c 0,38,39
 932 86 932 86 932 106 c 0,40,41
 932 133 932 133 898 230.5 c 128,-1,42
 864 328 864 328 830 412 c 2,43,-1
 796 496 l 1,44,45
 790 504 790 504 784 504 c 0,46,47
 758 506 758 506 586 506 c 0,48,49
 460 506 460 506 370 500 c 1,50,-1
 360 494 l 1,51,52
 304 346 304 346 270 250 c 0,53,54
 242 168 242 168 242 108 c 1,55,56
 243 91 243 91 261.5 79 c 128,-1,57
 280 67 280 67 306.5 61.5 c 128,-1,58
 333 56 333 56 351.5 54 c 128,-1,59
 370 52 370 52 380 52 c 1,60,61
 384 48 384 48 385.5 25.5 c 128,-1,62
 387 3 387 3 384 -6 c 1,63,64
 355 -5 355 -5 320.5 -2 c 128,-1,65
 286 1 286 1 257 2.5 c 128,-1,66
 228 4 228 4 190 4 c 0,67,68
 149 4 149 4 117.5 2.5 c 128,-1,69
 86 1 86 1 48 -2 c 128,-1,70
 10 -5 10 -5 -24 -6 c 1,71,72
 -28 -2 -28 -2 -28 20 c 128,-1,73
 -28 42 -28 42 -24 52 c 1,74,75
 1 52 1 52 42 62.5 c 128,-1,76
 83 73 83 73 96 90 c 0,77,78
 138 145 138 145 190 278 c 0,79,80
 454 957 454 957 576 1268 c 1,81,82
 584 1283 584 1283 611.5 1304.5 c 128,-1,83
 639 1326 639 1326 652 1326 c 0,84,85
 655 1326 655 1326 658.5 1323.5 c 128,-1,86
 662 1321 662 1321 664 1320 c 1,87,-1
 1071 252 l 2,88,89
 1121 123 1121 123 1122 120 c 0,90,91
 1135 89 1135 89 1184.5 70.5 c 128,-1,92
 1234 52 1234 52 1258 52 c 1,93,94
 1264 43 1264 43 1264 22.5 c 128,-1,95
 1264 2 1264 2 1262 -6 c 1,0,1
582 1084 m 1,96,-1
 398 596 l 1,97,98
 398 588 398 588 402 588 c 0,99,100
 506 584 506 584 584 584 c 0,101,102
 659 584 659 584 752 590 c 0,103,104
 754 590 754 590 755.5 592.5 c 128,-1,105
 757 595 757 595 757.5 597.5 c 2,106,-1
 758 600 l 1,107,-1
 582 1084 l 1,96,-1
EndSplineSet
EndChar
StartChar: aogonek
Encoding: 261 261 194
Width: 862
Flags: W
LayerCount: 2
Fore
SplineSet
374 92 m 0,0,1
 423 92 423 92 485.5 124.5 c 128,-1,2
 548 157 548 157 548 174 c 2,3,-1
 548 446 l 1,4,5
 393 400 393 400 362 388 c 0,6,7
 305 366 305 366 272.5 326.5 c 128,-1,8
 240 287 240 287 240 232 c 0,9,10
 240 176 240 176 279 134 c 128,-1,11
 318 92 318 92 374 92 c 0,0,1
554 118 m 1,12,13
 525 89 525 89 439.5 36.5 c 128,-1,14
 354 -16 354 -16 308 -16 c 0,15,16
 209 -16 209 -16 141.5 50.5 c 128,-1,17
 74 117 74 117 74 214 c 0,18,19
 74 271 74 271 105.5 315.5 c 128,-1,20
 137 360 137 360 174 374 c 0,21,22
 207 386 207 386 294 416 c 128,-1,23
 381 446 381 446 439.5 467 c 128,-1,24
 498 488 498 488 524 500 c 0,25,26
 539 506 539 506 543.5 515 c 128,-1,27
 548 524 548 524 548 550 c 2,28,-1
 548 604 l 2,29,30
 548 675 548 675 497.5 735.5 c 128,-1,31
 447 796 447 796 376 796 c 0,32,33
 326 796 326 796 301.5 765.5 c 128,-1,34
 277 735 277 735 266 672 c 0,35,36
 249 576 249 576 172 576 c 0,37,38
 142 576 142 576 123 602 c 128,-1,39
 104 628 104 628 104 660 c 0,40,41
 104 668 104 668 108.5 684.5 c 128,-1,42
 113 701 113 701 118 708 c 1,43,44
 180 766 180 766 282.5 819 c 128,-1,45
 385 872 385 872 482 872 c 0,46,47
 569 872 569 872 634.5 792 c 128,-1,48
 700 712 700 712 700 598 c 2,49,-1
 700 186 l 2,50,51
 700 92 700 92 762 92 c 0,52,53
 771 92 771 92 779.5 93.5 c 128,-1,54
 788 95 788 95 794 97.5 c 128,-1,55
 800 100 800 100 806.5 103.5 c 128,-1,56
 813 107 813 107 816.5 109.5 c 128,-1,57
 820 112 820 112 823.5 115 c 128,-1,58
 827 118 827 118 828 118 c 0,59,60
 836 118 836 118 836 102 c 0,61,62
 836 81 836 81 826 64 c 1,63,64
 766 22 766 22 754 14 c 0,65,66
 751 12 751 12 723.5 -7.5 c 128,-1,67
 696 -27 696 -27 686 -34 c 128,-1,68
 676 -41 676 -41 650 -61.5 c 128,-1,69
 624 -82 624 -82 612 -94 c 128,-1,70
 600 -106 600 -106 580.5 -127 c 128,-1,71
 561 -148 561 -148 552 -164.5 c 128,-1,72
 543 -181 543 -181 535.5 -201.5 c 128,-1,73
 528 -222 528 -222 528 -242 c 0,74,75
 528 -273 528 -273 546.5 -300.5 c 128,-1,76
 565 -328 565 -328 610 -328 c 0,77,78
 645 -328 645 -328 676.5 -316 c 128,-1,79
 708 -304 708 -304 725 -290 c 128,-1,80
 742 -276 742 -276 755.5 -264 c 128,-1,81
 769 -252 769 -252 772 -252 c 0,82,83
 773 -252 773 -252 775.5 -255 c 128,-1,84
 778 -258 778 -258 780 -264.5 c 128,-1,85
 782 -271 782 -271 782 -278 c 0,86,87
 782 -301 782 -301 772 -314 c 0,88,89
 672 -446 672 -446 562 -446 c 0,90,91
 510 -446 510 -446 476 -417.5 c 128,-1,92
 442 -389 442 -389 431 -356.5 c 128,-1,93
 420 -324 420 -324 420 -292 c 0,94,95
 420 -230 420 -230 483 -145.5 c 128,-1,96
 546 -61 546 -61 626 2 c 1,97,98
 599 18 599 18 578 50.5 c 128,-1,99
 557 83 557 83 554 118 c 1,12,13
EndSplineSet
Substitution2: "'smcp' Lowercase to Small Capitals lookup 2-1" aogonek.sc
EndChar
StartChar: eogonek
Encoding: 281 281 214
Width: 862
Flags: W
LayerCount: 2
Fore
SplineSet
676 51 m 0,0,1
 583 -28 583 -28 531.5 -96.5 c 128,-1,2
 480 -165 480 -165 480 -244 c 0,3,4
 480 -275 480 -275 498.5 -302.5 c 128,-1,5
 517 -330 517 -330 562 -330 c 0,6,7
 597 -330 597 -330 628.5 -318 c 128,-1,8
 660 -306 660 -306 677 -292 c 128,-1,9
 694 -278 694 -278 707.5 -266 c 128,-1,10
 721 -254 721 -254 724 -254 c 0,11,12
 725 -254 725 -254 727 -257 c 128,-1,13
 729 -260 729 -260 730.5 -266.5 c 128,-1,14
 732 -273 732 -273 732 -280 c 0,15,16
 732 -305 732 -305 724 -316 c 0,17,18
 624 -448 624 -448 514 -448 c 0,19,20
 462 -448 462 -448 428 -419.5 c 128,-1,21
 394 -391 394 -391 383 -358.5 c 128,-1,22
 372 -326 372 -326 372 -294 c 0,23,24
 372 -237 372 -237 418.5 -156.5 c 128,-1,25
 465 -76 465 -76 528 -12 c 1,26,27
 498 -16 498 -16 480 -16 c 0,28,29
 305 -16 305 -16 192.5 102.5 c 128,-1,30
 80 221 80 221 80 400 c 0,31,32
 80 497 80 497 117 587 c 128,-1,33
 154 677 154 677 211 739 c 128,-1,34
 268 801 268 801 338 838.5 c 128,-1,35
 408 876 408 876 474 876 c 0,36,37
 542 876 542 876 597 855 c 128,-1,38
 652 834 652 834 684 803.5 c 128,-1,39
 716 773 716 773 737 734 c 128,-1,40
 758 695 758 695 766 663 c 128,-1,41
 774 631 774 631 774 604 c 0,42,43
 774 558 774 558 763.5 534.5 c 128,-1,44
 753 511 753 511 726 510 c 0,45,46
 685 507 685 507 466.5 501.5 c 128,-1,47
 248 496 248 496 222 496 c 1,48,49
 218 313 218 313 312.5 212.5 c 128,-1,50
 407 112 407 112 548 112 c 0,51,52
 620 112 620 112 678.5 147 c 128,-1,53
 737 182 737 182 768 218 c 0,54,55
 769 218 769 218 773 214.5 c 128,-1,56
 777 211 777 211 780.5 204 c 128,-1,57
 784 197 784 197 784 190 c 0,58,59
 784 174 784 174 772 154 c 0,60,61
 746 111 746 111 676 51 c 0,0,1
232 570 m 2,62,-1
 558 570 l 2,63,64
 601 570 601 570 604 616 c 0,65,66
 605 636 605 636 596 666 c 128,-1,67
 587 696 587 696 569 728 c 128,-1,68
 551 760 551 760 517 782 c 128,-1,69
 483 804 483 804 440 804 c 0,70,71
 393 804 393 804 354 780 c 128,-1,72
 315 756 315 756 292.5 721.5 c 128,-1,73
 270 687 270 687 255.5 652.5 c 128,-1,74
 241 618 241 618 235.5 594 c 128,-1,75
 230 570 230 570 232 570 c 2,62,-1
EndSplineSet
Substitution2: "'smcp' Lowercase to Small Capitals lookup 2-1" eogonek.sc
EndChar
StartChar: Hbar
Encoding: 294 294 227
Width: 1452
Flags: W
LayerCount: 2
Fore
SplineSet
172 940 m 2,0,1
 162 940 162 940 162 966 c 0,2,3
 162 998 162 998 174 1016 c 1,4,-1
 1278 1016 l 2,5,6
 1288 1016 1288 1016 1288 990 c 0,7,8
 1288 958 1288 958 1276 940 c 1,9,-1
 172 940 l 2,0,1
EndSplineSet
Refer: 39 72 N 1 0 0 1 0 0 3
EndChar
StartChar: dotlessi
Encoding: 305 305 238
Width: 540
Flags: W
LayerCount: 2
Fore
SplineSet
363 650 m 1,0,-1
 363 232 l 2,1,2
 363 116 363 116 373 84 c 0,3,4
 377 70 377 70 423.5 61 c 128,-1,5
 470 52 470 52 499 52 c 1,6,7
 505 44 505 44 505.5 23 c 128,-1,8
 506 2 506 2 499 -6 c 1,9,10
 294 4 294 4 285 4 c 0,11,12
 250 4 250 4 217.5 2.5 c 128,-1,13
 185 1 185 1 143 -2 c 128,-1,14
 101 -5 101 -5 73 -6 c 1,15,16
 66 2 66 2 66.5 23 c 128,-1,17
 67 44 67 44 73 52 c 1,18,19
 102 52 102 52 148.5 61 c 128,-1,20
 195 70 195 70 199 84 c 0,21,22
 207 109 207 109 209 232 c 1,23,-1
 209 604 l 2,24,25
 209 684 209 684 199 708 c 0,26,27
 193 723 193 723 161 732 c 128,-1,28
 129 741 129 741 107.5 742.5 c 128,-1,29
 86 744 86 744 69 744 c 1,30,31
 65 748 65 748 64.5 768 c 128,-1,32
 64 788 64 788 69 796 c 1,33,34
 240 819 240 819 355 880 c 1,35,36
 362 880 362 880 369.5 868 c 128,-1,37
 377 856 377 856 377 848 c 1,38,39
 363 750 363 750 363 716 c 2,40,-1
 363 650 l 1,0,-1
EndSplineSet
Substitution2: "'smcp' Lowercase to Small Capitals lookup 2-1" dotlessi.sc
EndChar
StartChar: lslash
Encoding: 322 322 255
Width: 510
Flags: W
LayerCount: 2
Fore
SplineSet
70 520 m 1,0,1
 58 532 58 532 46.5 551.5 c 0,2,3
 35 571 35 571 40 576 c 1,4,-1
 434 846 l 1,5,6
 446 834 446 834 458.5 815.5 c 0,7,8
 471 797 471 797 466 792 c 1,9,-1
 70 520 l 1,0,1
EndSplineSet
Refer: 75 108 N 1 0 0 1 0 0 3
Substitution2: "'smcp' Lowercase to Small Capitals lookup 2-1" lslash.sc
EndChar
StartChar: oe
Encoding: 339 339 271
Width: 1556
Flags: W
LayerCount: 2
Fore
SplineSet
1136 804 m 0,0,1
 1089 804 1089 804 1050 780 c 128,-1,2
 1011 756 1011 756 988.5 721.5 c 128,-1,3
 966 687 966 687 951.5 652.5 c 128,-1,4
 937 618 937 618 931.5 594 c 128,-1,5
 926 570 926 570 928 570 c 2,6,-1
 1254 570 l 2,7,8
 1297 570 1297 570 1300 616 c 0,9,10
 1301 636 1301 636 1292 666 c 128,-1,11
 1283 696 1283 696 1265 728 c 128,-1,12
 1247 760 1247 760 1213 782 c 128,-1,13
 1179 804 1179 804 1136 804 c 0,0,1
486 812 m 0,14,15
 405 812 405 812 351 760 c 128,-1,16
 297 708 297 708 275.5 633 c 128,-1,17
 254 558 254 558 254 466 c 0,18,19
 254 365 254 365 285 272.5 c 128,-1,20
 316 180 316 180 381 116 c 128,-1,21
 446 52 446 52 532 52 c 0,22,23
 613 52 613 52 667 104 c 128,-1,24
 721 156 721 156 742.5 230.5 c 128,-1,25
 764 305 764 305 764 396 c 0,26,27
 764 496 764 496 732.5 589.5 c 128,-1,28
 701 683 701 683 636 747.5 c 128,-1,29
 571 812 571 812 486 812 c 0,14,15
1244 112 m 0,30,31
 1316 112 1316 112 1374.5 147 c 128,-1,32
 1433 182 1433 182 1464 218 c 0,33,34
 1465 218 1465 218 1469 214.5 c 128,-1,35
 1473 211 1473 211 1476.5 204 c 128,-1,36
 1480 197 1480 197 1480 190 c 0,37,38
 1480 174 1480 174 1468 154 c 0,39,40
 1452 128 1452 128 1428 102 c 128,-1,41
 1404 76 1404 76 1368 48 c 128,-1,42
 1332 20 1332 20 1281.5 2 c 128,-1,43
 1231 -16 1231 -16 1176 -16 c 0,44,45
 1070 -16 1070 -16 985 29.5 c 128,-1,46
 900 75 900 75 846 156 c 1,47,48
 788 77 788 77 701 31.5 c 128,-1,49
 614 -14 614 -14 512 -14 c 0,50,51
 317 -14 317 -14 199.5 110.5 c 128,-1,52
 82 235 82 235 82 426 c 0,53,54
 82 619 82 619 204 748.5 c 128,-1,55
 326 878 326 878 508 878 c 0,56,57
 628 878 628 878 721.5 829 c 128,-1,58
 815 780 815 780 870 692 c 1,59,60
 930 777 930 777 1011 826.5 c 128,-1,61
 1092 876 1092 876 1170 876 c 0,62,63
 1238 876 1238 876 1293 855 c 128,-1,64
 1348 834 1348 834 1380 803.5 c 128,-1,65
 1412 773 1412 773 1433 734 c 128,-1,66
 1454 695 1454 695 1462 663 c 128,-1,67
 1470 631 1470 631 1470 604 c 0,68,69
 1470 558 1470 558 1459.5 534.5 c 128,-1,70
 1449 511 1449 511 1422 510 c 0,71,72
 1291 505 1291 505 918 496 c 1,73,74
 918 391 918 391 948 313 c 128,-1,75
 978 235 978 235 1027.5 193 c 128,-1,76
 1077 151 1077 151 1131.5 131.5 c 128,-1,77
 1186 112 1186 112 1244 112 c 0,30,31
EndSplineSet
Substitution2: "'smcp' Lowercase to Small Capitals lookup 2-1" oe.sc
EndChar
StartChar: tbar
Encoding: 359 359 291
Width: 622
Flags: W
LayerCount: 2
Fore
SplineSet
56 616 m 1,0,-1
 576 616 l 2,1,2
 588 616 588 616 588 596 c 0,3,4
 588 563 588 563 576 536 c 1,5,-1
 54 536 l 2,6,7
 44 536 44 536 44 562 c 0,8,9
 44 598 44 598 56 616 c 1,0,-1
EndSplineSet
Refer: 83 116 N 1 0 0 1 0 0 3
Substitution2: "'smcp' Lowercase to Small Capitals lookup 2-1" tbar.sc
EndChar
StartChar: uni0237
Encoding: 567 567 320
Width: 478
Flags: W
LayerCount: 2
Fore
SplineSet
184 90 m 2,0,-1
 184 604 l 2,1,2
 184 684 184 684 174 708 c 0,3,4
 168 723 168 723 136 732 c 128,-1,5
 104 741 104 741 82.5 742.5 c 128,-1,6
 61 744 61 744 44 744 c 1,7,8
 40 748 40 748 39.5 768 c 128,-1,9
 39 788 39 788 44 796 c 1,10,11
 215 819 215 819 330 880 c 1,12,13
 337 880 337 880 344.5 868 c 128,-1,14
 352 856 352 856 352 848 c 1,15,16
 338 750 338 750 338 716 c 2,17,-1
 338 648 l 1,18,-1
 338 136 l 2,19,20
 338 26 338 26 314.5 -68 c 128,-1,21
 291 -162 291 -162 256 -224.5 c 128,-1,22
 221 -287 221 -287 172.5 -337.5 c 128,-1,23
 124 -388 124 -388 81 -415.5 c 128,-1,24
 38 -443 38 -443 -8 -462 c 1,25,26
 -26 -451 -26 -451 -34 -432 c 0,27,28
 -36 -429 -36 -429 -36 -424.5 c 128,-1,29
 -36 -420 -36 -420 -34 -418 c 0,30,31
 7 -389 7 -389 33.5 -365.5 c 128,-1,32
 60 -342 60 -342 91.5 -299.5 c 128,-1,33
 123 -257 123 -257 141 -208 c 128,-1,34
 159 -159 159 -159 171.5 -82.5 c 128,-1,35
 184 -6 184 -6 184 90 c 2,0,-1
EndSplineSet
EndChar
StartChar: uni0304
Encoding: 772 772 336
Width: 0
GlyphClass: 4
Flags: W
LayerCount: 2
Fore
SplineSet
-302 996 m 1,0,1
 -750 996 l 1,2,3
 -764 1003 -764 1003 -758 1036.5 c 128,-1,4
 -752 1070 -752 1070 -738 1080 c 1,5,-1
 -290 1080 l 1,6,7
 -279 1073 -279 1073 -283 1042.5 c 128,-1,8
 -287 1012 -287 1012 -302 996 c 1,0,1
EndSplineSet
EndChar
StartChar: uni0305
Encoding: 773 773 337
Width: 0
GlyphClass: 4
Flags: W
LayerCount: 2
Fore
SplineSet
-1190 1498 m 0,0,1
 -1190 1517 -1190 1517 -1183 1560.5 c 128,-1,2
 -1176 1604 -1176 1604 -1162 1604 c 2,3,-1
 2 1604 l 2,4,5
 14 1604 14 1604 14 1586 c 0,6,7
 14 1556 14 1556 -2 1492 c 0,8,9
 -4 1487 -4 1487 -8 1483.5 c 128,-1,10
 -12 1480 -12 1480 -15 1479 c 2,11,-1
 -18 1478 l 1,12,-1
 -1178 1478 l 2,13,14
 -1190 1478 -1190 1478 -1190 1498 c 0,0,1
EndSplineSet
EndChar
StartChar: uni0306
Encoding: 774 774 338
Width: 0
GlyphClass: 4
Flags: W
LayerCount: 2
Fore
SplineSet
-518 1086 m 128,-1,1
 -455 1086 -455 1086 -407 1125.5 c 128,-1,2
 -359 1165 -359 1165 -344 1230 c 1,3,4
 -344 1236 -344 1236 -336 1236 c 0,5,6
 -327 1236 -327 1236 -313.5 1226.5 c 128,-1,7
 -300 1217 -300 1217 -300 1210 c 0,8,9
 -300 1209 -300 1209 -301 1202.5 c 128,-1,10
 -302 1196 -302 1196 -302 1194 c 0,11,12
 -316 1112 -316 1112 -377.5 1053 c 128,-1,13
 -439 994 -439 994 -518 994 c 0,14,15
 -598 994 -598 994 -659 1052 c 128,-1,16
 -720 1110 -720 1110 -734 1196 c 0,17,18
 -734 1198 -734 1198 -735 1203.5 c 128,-1,19
 -736 1209 -736 1209 -736 1210 c 0,20,21
 -736 1217 -736 1217 -722.5 1226.5 c 128,-1,22
 -709 1236 -709 1236 -700 1236 c 0,23,24
 -692 1236 -692 1236 -692 1230 c 1,25,26
 -677 1165 -677 1165 -629 1125.5 c 128,-1,0
 -581 1086 -581 1086 -518 1086 c 128,-1,1
EndSplineSet
EndChar
StartChar: uni0307
Encoding: 775 775 339
Width: 0
GlyphClass: 4
Flags: W
LayerCount: 2
Fore
SplineSet
-610 1096 m 128,-1,1
 -610 1138 -610 1138 -581 1167 c 128,-1,2
 -552 1196 -552 1196 -510 1196 c 128,-1,3
 -468 1196 -468 1196 -439 1167 c 128,-1,4
 -410 1138 -410 1138 -410 1096 c 128,-1,5
 -410 1054 -410 1054 -439 1025 c 128,-1,6
 -468 996 -468 996 -510 996 c 128,-1,7
 -552 996 -552 996 -581 1025 c 128,-1,0
 -610 1054 -610 1054 -610 1096 c 128,-1,1
EndSplineSet
EndChar
StartChar: uni0308
Encoding: 776 776 340
Width: 0
GlyphClass: 4
Flags: W
LayerCount: 2
Fore
SplineSet
-316 1180 m 0,0,1
 -279 1180 -279 1180 -251.5 1152 c 128,-1,2
 -224 1124 -224 1124 -224 1086 c 0,3,4
 -224 1049 -224 1049 -252 1022.5 c 128,-1,5
 -280 996 -280 996 -318 996 c 128,-1,6
 -356 996 -356 996 -384 1023.5 c 128,-1,7
 -412 1051 -412 1051 -412 1088 c 128,-1,8
 -412 1125 -412 1125 -383 1152.5 c 128,-1,9
 -354 1180 -354 1180 -316 1180 c 0,0,1
-682 1180 m 0,10,11
 -645 1180 -645 1180 -617.5 1152 c 128,-1,12
 -590 1124 -590 1124 -590 1086 c 0,13,14
 -590 1049 -590 1049 -618 1022.5 c 128,-1,15
 -646 996 -646 996 -684 996 c 128,-1,16
 -722 996 -722 996 -750 1023.5 c 128,-1,17
 -778 1051 -778 1051 -778 1088 c 128,-1,18
 -778 1125 -778 1125 -749 1152.5 c 128,-1,19
 -720 1180 -720 1180 -682 1180 c 0,10,11
EndSplineSet
EndChar
StartChar: uni030A
Encoding: 778 778 342
Width: 0
GlyphClass: 4
Flags: W
LayerCount: 2
Fore
SplineSet
-620 1176 m 128,-1,1
 -620 1130 -620 1130 -587.5 1097 c 128,-1,2
 -555 1064 -555 1064 -510 1064 c 128,-1,3
 -465 1064 -465 1064 -433.5 1096.5 c 128,-1,4
 -402 1129 -402 1129 -402 1176 c 0,5,6
 -402 1222 -402 1222 -433.5 1254 c 128,-1,7
 -465 1286 -465 1286 -510 1286 c 128,-1,8
 -555 1286 -555 1286 -587.5 1254 c 128,-1,0
 -620 1222 -620 1222 -620 1176 c 128,-1,1
-686 1176 m 0,9,10
 -686 1249 -686 1249 -634 1301.5 c 128,-1,11
 -582 1354 -582 1354 -510 1354 c 128,-1,12
 -438 1354 -438 1354 -387 1302 c 128,-1,13
 -336 1250 -336 1250 -336 1176 c 128,-1,14
 -336 1102 -336 1102 -387 1049 c 128,-1,15
 -438 996 -438 996 -510 996 c 128,-1,16
 -582 996 -582 996 -634 1049 c 128,-1,17
 -686 1102 -686 1102 -686 1176 c 0,9,10
EndSplineSet
EndChar
StartChar: uni0311
Encoding: 785 785 945
Width: 0
GlyphClass: 4
Flags: W
LayerCount: 2
Fore
SplineSet
-518 1146 m 128,-1,1
 -581 1146 -581 1146 -629 1106.5 c 128,-1,2
 -677 1067 -677 1067 -692 1002 c 1,3,4
 -692 996 -692 996 -700 996 c 0,5,6
 -709 996 -709 996 -722.5 1005.5 c 128,-1,7
 -736 1015 -736 1015 -736 1022 c 0,8,9
 -736 1023 -736 1023 -735 1028.5 c 128,-1,10
 -734 1034 -734 1034 -734 1036 c 0,11,12
 -720 1122 -720 1122 -659 1180 c 128,-1,13
 -598 1238 -598 1238 -518 1238 c 0,14,15
 -439 1238 -439 1238 -377.5 1179 c 128,-1,16
 -316 1120 -316 1120 -302 1038 c 0,17,18
 -302 1036 -302 1036 -301 1029.5 c 128,-1,19
 -300 1023 -300 1023 -300 1022 c 0,20,21
 -300 1015 -300 1015 -313.5 1005.5 c 128,-1,22
 -327 996 -327 996 -336 996 c 0,23,24
 -344 996 -344 996 -344 1002 c 1,25,26
 -359 1067 -359 1067 -407 1106.5 c 128,-1,0
 -455 1146 -455 1146 -518 1146 c 128,-1,1
EndSplineSet
EndChar
StartChar: uni0314
Encoding: 788 788 934
Width: 0
VWidth: 2000
GlyphClass: 4
Flags: W
LayerCount: 2
Fore
SplineSet
-470 1360 m 0,0,1
 -444 1360 -444 1360 -410 1337 c 128,-1,2
 -376 1314 -376 1314 -376 1296 c 0,3,4
 -376 1289 -376 1289 -382 1286 c 0,5,6
 -384 1284 -384 1284 -411 1263 c 128,-1,7
 -438 1242 -438 1242 -451.5 1228.5 c 128,-1,8
 -465 1215 -465 1215 -479.5 1186 c 128,-1,9
 -494 1157 -494 1157 -494 1124 c 0,10,11
 -494 1088 -494 1088 -463.5 1056 c 128,-1,12
 -433 1024 -433 1024 -386 1012 c 1,13,14
 -386 1001 -386 1001 -394.5 993.5 c 128,-1,15
 -403 986 -403 986 -410 986 c 0,16,17
 -419 986 -419 986 -437 990.5 c 128,-1,18
 -455 995 -455 995 -483.5 1009.5 c 128,-1,19
 -512 1024 -512 1024 -536.5 1046.5 c 128,-1,20
 -561 1069 -561 1069 -578.5 1110.5 c 128,-1,21
 -596 1152 -596 1152 -596 1204 c 0,22,23
 -596 1261 -596 1261 -556 1310.5 c 128,-1,24
 -516 1360 -516 1360 -470 1360 c 0,0,1
EndSplineSet
EndChar
StartChar: uni0326
Encoding: 806 806 348
Width: 0
GlyphClass: 4
Flags: W
LayerCount: 2
Fore
SplineSet
-502 -92 m 0,0,1
 -467 -92 -467 -92 -438 -110 c 1,2,3
 -418 -140 -418 -140 -418 -192 c 0,4,5
 -418 -276 -418 -276 -476 -349.5 c 128,-1,6
 -534 -423 -534 -423 -616 -458 c 1,7,8
 -627 -455 -627 -455 -637.5 -444.5 c 128,-1,9
 -648 -434 -648 -434 -648 -428 c 1,10,11
 -617 -412 -617 -412 -580.5 -373.5 c 128,-1,12
 -544 -335 -544 -335 -544 -296 c 0,13,14
 -544 -282 -544 -282 -555 -271.5 c 128,-1,15
 -566 -261 -566 -261 -579 -253.5 c 128,-1,16
 -592 -246 -592 -246 -603 -227 c 128,-1,17
 -614 -208 -614 -208 -614 -180 c 0,18,19
 -614 -155 -614 -155 -587 -123.5 c 128,-1,20
 -560 -92 -560 -92 -502 -92 c 0,0,1
EndSplineSet
EndChar
StartChar: uni0327
Encoding: 807 807 349
Width: 0
GlyphClass: 4
Flags: W
LayerCount: 2
Fore
SplineSet
-510 -54 m 1,0,-1
 -460 -54 l 2,1,2
 -422 -54 -422 -54 -397 -83 c 128,-1,3
 -372 -112 -372 -112 -372 -152 c 0,4,5
 -372 -221 -372 -221 -426 -262.5 c 128,-1,6
 -480 -304 -480 -304 -560 -304 c 0,7,8
 -601 -304 -601 -304 -628 -286 c 1,9,10
 -628 -284 -628 -284 -631 -274.5 c 128,-1,11
 -634 -265 -634 -265 -634 -258 c 0,12,13
 -634 -248 -634 -248 -624.5 -239 c 128,-1,14
 -615 -230 -615 -230 -606 -230 c 0,15,16
 -595 -230 -595 -230 -572 -243 c 128,-1,17
 -549 -256 -549 -256 -532 -256 c 0,18,19
 -492 -256 -492 -256 -469 -236.5 c 128,-1,20
 -446 -217 -446 -217 -446 -190 c 0,21,22
 -446 -157 -446 -157 -465.5 -139.5 c 128,-1,23
 -485 -122 -485 -122 -508 -122 c 0,24,25
 -525 -122 -525 -122 -560 -136 c 1,26,27
 -564 -136 -564 -136 -573.5 -125.5 c 128,-1,28
 -583 -115 -583 -115 -580 -110 c 0,29,30
 -572 -97 -572 -97 -548.5 -60 c 128,-1,31
 -525 -23 -525 -23 -516 -8 c 1,32,-1
 -474 -8 l 1,33,-1
 -510 -54 l 1,0,-1
EndSplineSet
EndChar
StartChar: uni1EB1
Encoding: 7857 7857 659
Width: 862
VWidth: 0
Flags: W
LayerCount: 2
Fore
SplineSet
276 1416 m 0,0,1
 286 1416 286 1416 296.5 1413 c 0,2,3
 307 1410 307 1410 312.5 1407 c 0,4,5
 318 1404 318 1404 319 1403 c 0,6,7
 359 1352 359 1352 417 1271 c 0,8,9
 475 1190 475 1190 475 1183 c 0,10,11
 475 1162 475 1162 461 1162 c 0,12,13
 452 1162 452 1162 392.5 1203 c 0,14,15
 333 1244 333 1244 275.5 1295.5 c 0,16,17
 218 1347 218 1347 218 1370 c 0,18,19
 218 1375 218 1375 219.5 1381 c 0,20,21
 221 1387 221 1387 226 1396 c 0,22,23
 231 1405 231 1405 244 1410.5 c 0,24,25
 257 1416 257 1416 276 1416 c 0,0,1
EndSplineSet
Refer: 338 774 N 1 0 0 1 944 0 2
Refer: 64 97 N 1 0 0 1 0 0 2
EndChar
StartChar: uni2015
Encoding: 8213 8213 388
Width: 2290
Flags: W
LayerCount: 2
Fore
SplineSet
120 438 m 0,0,1
 120 457 120 457 127 500.5 c 128,-1,2
 134 544 134 544 148 544 c 2,3,-1
 2154 544 l 2,4,5
 2170 544 2170 544 2170 526 c 0,6,7
 2170 506 2170 506 2152 434 c 0,8,9
 2150 429 2150 429 2146.5 425.5 c 128,-1,10
 2143 422 2143 422 2140.5 421 c 2,11,-1
 2138 420 l 1,12,-1
 132 420 l 2,13,14
 131 420 131 420 129 420 c 128,-1,15
 127 420 127 420 123.5 424.5 c 128,-1,16
 120 429 120 429 120 438 c 0,0,1
EndSplineSet
EndChar
StartChar: dagger
Encoding: 8224 8224 395
Width: 798
Flags: W
LayerCount: 2
Fore
SplineSet
308 972 m 8,0,1
 328 972 328 972 341 980.5 c 128,-1,2
 354 989 354 989 370 1010 c 1,3,4
 370 1072 370 1072 356 1148 c 128,-1,5
 342 1224 342 1224 316 1250 c 1,6,7
 316 1281 316 1281 340.5 1302.5 c 128,-1,8
 365 1324 365 1324 400 1324 c 0,9,10
 432 1324 432 1324 456 1302.5 c 128,-1,11
 480 1281 480 1281 480 1250 c 1,12,13
 454 1224 454 1224 440 1148 c 128,-1,14
 426 1072 426 1072 426 1010 c 1,15,16
 455 972 455 972 490 972 c 0,17,18
 588 972 588 972 652 1036 c 1,19,20
 683 1036 683 1036 705.5 1010 c 128,-1,21
 728 984 728 984 728 952 c 128,-1,22
 728 920 728 920 705.5 897 c 128,-1,23
 683 874 683 874 652 874 c 1,24,25
 596 930 596 930 490 930 c 0,26,27
 467 930 467 930 448.5 911.5 c 128,-1,28
 430 893 430 893 430 874 c 1,29,30
 437 858 437 858 457.5 809 c 128,-1,31
 478 760 478 760 490 730 c 1,32,33
 459 533 459 533 445 404.5 c 128,-1,34
 431 276 431 276 410 8 c 1,35,36
 402 -14 402 -14 398 -16 c 1,37,38
 395 -15 395 -15 393 -11 c 128,-1,39
 391 -7 391 -7 389 -1 c 128,-1,40
 387 5 387 5 386 8 c 0,41,42
 365 276 365 276 351 404.5 c 128,-1,43
 337 533 337 533 306 730 c 1,44,45
 317 755 317 755 366 874 c 1,46,47
 366 893 366 893 348.5 911.5 c 128,-1,48
 331 930 331 930 308 930 c 0,49,50
 202 930 202 930 146 874 c 1,51,52
 115 874 115 874 92.5 897 c 128,-1,53
 70 920 70 920 70 952 c 128,-1,54
 70 984 70 984 92.5 1010 c 128,-1,55
 115 1036 115 1036 146 1036 c 1,56,57
 210 972 210 972 308 972 c 8,0,1
EndSplineSet
EndChar
StartChar: daggerdbl
Encoding: 8225 8225 396
Width: 846
Flags: W
LayerCount: 2
Fore
SplineSet
514 578 m 1,0,1
 502 548 502 548 481.5 499 c 128,-1,2
 461 450 461 450 454 434 c 1,3,4
 454 415 454 415 472.5 396.5 c 128,-1,5
 491 378 491 378 514 378 c 0,6,7
 620 378 620 378 676 434 c 1,8,9
 707 434 707 434 729.5 411 c 128,-1,10
 752 388 752 388 752 356 c 128,-1,11
 752 324 752 324 729.5 298 c 128,-1,12
 707 272 707 272 676 272 c 1,13,14
 612 336 612 336 514 336 c 0,15,16
 479 336 479 336 450 298 c 1,17,18
 450 236 450 236 464 160 c 128,-1,19
 478 84 478 84 504 58 c 1,20,21
 504 27 504 27 480 5.5 c 128,-1,22
 456 -16 456 -16 424 -16 c 0,23,24
 389 -16 389 -16 364.5 5.5 c 128,-1,25
 340 27 340 27 340 58 c 1,26,27
 366 84 366 84 380 160 c 128,-1,28
 394 236 394 236 394 298 c 1,29,30
 378 319 378 319 365 327.5 c 128,-1,31
 352 336 352 336 332 336 c 0,32,33
 234 336 234 336 170 272 c 1,34,35
 139 272 139 272 116.5 298 c 128,-1,36
 94 324 94 324 94 356 c 128,-1,37
 94 388 94 388 116.5 411 c 128,-1,38
 139 434 139 434 170 434 c 1,39,40
 226 378 226 378 332 378 c 0,41,42
 355 378 355 378 372.5 396.5 c 128,-1,43
 390 415 390 415 390 434 c 1,44,45
 341 553 341 553 330 578 c 1,46,47
 358 615 358 615 390 654 c 1,48,49
 368 680 368 680 330 730 c 1,50,51
 341 755 341 755 390 874 c 1,52,53
 390 893 390 893 372.5 911.5 c 128,-1,54
 355 930 355 930 332 930 c 0,55,56
 226 930 226 930 170 874 c 1,57,58
 139 874 139 874 116.5 897 c 128,-1,59
 94 920 94 920 94 952 c 128,-1,60
 94 984 94 984 116.5 1010 c 128,-1,61
 139 1036 139 1036 170 1036 c 1,62,63
 234 972 234 972 332 972 c 0,64,65
 352 972 352 972 365 980.5 c 128,-1,66
 378 989 378 989 394 1010 c 1,67,68
 394 1072 394 1072 380 1148 c 128,-1,69
 366 1224 366 1224 340 1250 c 1,70,71
 340 1281 340 1281 364.5 1302.5 c 128,-1,72
 389 1324 389 1324 424 1324 c 0,73,74
 456 1324 456 1324 480 1302.5 c 128,-1,75
 504 1281 504 1281 504 1250 c 1,76,77
 478 1224 478 1224 464 1148 c 128,-1,78
 450 1072 450 1072 450 1010 c 1,79,80
 479 972 479 972 514 972 c 0,81,82
 612 972 612 972 676 1036 c 1,83,84
 707 1036 707 1036 729.5 1010 c 128,-1,85
 752 984 752 984 752 952 c 128,-1,86
 752 920 752 920 729.5 897 c 128,-1,87
 707 874 707 874 676 874 c 1,88,89
 620 930 620 930 514 930 c 0,90,91
 491 930 491 930 472.5 911.5 c 128,-1,92
 454 893 454 893 454 874 c 1,93,94
 461 858 461 858 481.5 809 c 128,-1,95
 502 760 502 760 514 730 c 1,96,97
 491 701 491 701 454 654 c 1,98,99
 474 628 474 628 514 578 c 1,0,1
EndSplineSet
EndChar
StartChar: onedotenleader
Encoding: 8228 8228 398
Width: 420
Flags: W
LayerCount: 2
Fore
SplineSet
96 90 m 0,0,1
 96 138 96 138 128 171 c 128,-1,2
 160 204 160 204 208 204 c 128,-1,3
 256 204 256 204 290 171 c 128,-1,4
 324 138 324 138 324 90 c 128,-1,5
 324 42 324 42 290 7 c 128,-1,6
 256 -28 256 -28 208 -28 c 0,7,8
 161 -28 161 -28 128.5 6.5 c 128,-1,9
 96 41 96 41 96 90 c 0,0,1
EndSplineSet
EndChar
StartChar: ellipsis
Encoding: 8230 8230 399
Width: 1676
Flags: W
LayerCount: 2
Fore
SplineSet
1348 90 m 128,-1,1
 1348 138 1348 138 1383 171 c 128,-1,2
 1418 204 1418 204 1466 204 c 128,-1,3
 1514 204 1514 204 1547 171 c 128,-1,4
 1580 138 1580 138 1580 90 c 128,-1,5
 1580 42 1580 42 1547 7 c 128,-1,6
 1514 -28 1514 -28 1466 -28 c 128,-1,7
 1418 -28 1418 -28 1383 7 c 128,-1,0
 1348 42 1348 42 1348 90 c 128,-1,1
722 90 m 128,-1,9
 722 138 722 138 757 171 c 128,-1,10
 792 204 792 204 840 204 c 128,-1,11
 888 204 888 204 921 171 c 128,-1,12
 954 138 954 138 954 90 c 128,-1,13
 954 42 954 42 921 7 c 128,-1,14
 888 -28 888 -28 840 -28 c 128,-1,15
 792 -28 792 -28 757 7 c 128,-1,8
 722 42 722 42 722 90 c 128,-1,9
96 90 m 128,-1,17
 96 138 96 138 131 171 c 128,-1,18
 166 204 166 204 214 204 c 128,-1,19
 262 204 262 204 295 171 c 128,-1,20
 328 138 328 138 328 90 c 128,-1,21
 328 42 328 42 295 7 c 128,-1,22
 262 -28 262 -28 214 -28 c 128,-1,23
 166 -28 166 -28 131 7 c 128,-1,16
 96 42 96 42 96 90 c 128,-1,17
EndSplineSet
EndChar
StartChar: minute
Encoding: 8242 8242 402
Width: 320
Flags: W
LayerCount: 2
Fore
SplineSet
222 1398 m 0,0,1
 272 1398 272 1398 272 1350 c 0,2,3
 272 1306 272 1306 249.5 1239.5 c 128,-1,4
 227 1173 227 1173 205.5 1127.5 c 128,-1,5
 184 1082 184 1082 144 1004 c 0,6,7
 136 988 136 988 122 988 c 0,8,9
 113 988 113 988 105.5 995 c 128,-1,10
 98 1002 98 1002 98 1012 c 0,11,12
 98 1021 98 1021 100.5 1072.5 c 128,-1,13
 103 1124 103 1124 109 1204 c 128,-1,14
 115 1284 115 1284 122 1332 c 0,15,16
 125 1351 125 1351 159.5 1374.5 c 128,-1,17
 194 1398 194 1398 222 1398 c 0,0,1
EndSplineSet
EndChar
StartChar: uni2038
Encoding: 8248 8248 404
Width: 850
Flags: W
LayerCount: 2
Fore
SplineSet
628 -72 m 0,0,1
 609 -72 609 -72 538.5 -17 c 128,-1,2
 468 38 468 38 412 94 c 1,3,4
 366 40 366 40 292 -16 c 128,-1,5
 218 -72 218 -72 198 -72 c 0,6,7
 190 -72 190 -72 185.5 -63.5 c 128,-1,8
 181 -55 181 -55 180.5 -46.5 c 2,9,-1
 180 -38 l 1,10,11
 182 -34 182 -34 221 -1.5 c 128,-1,12
 260 31 260 31 308 85 c 128,-1,13
 356 139 356 139 388 200 c 1,14,15
 393 213 393 213 396 216.5 c 128,-1,16
 399 220 399 220 406 220 c 0,17,18
 423 220 423 220 430 210.5 c 128,-1,19
 437 201 437 201 460 163.5 c 128,-1,20
 483 126 483 126 522 82 c 0,21,22
 537 65 537 65 568 36.5 c 128,-1,23
 599 8 599 8 624 -13 c 128,-1,24
 649 -34 649 -34 650 -36 c 1,25,26
 650 -44 650 -44 643 -58 c 128,-1,27
 636 -72 636 -72 628 -72 c 0,0,1
EndSplineSet
EndChar
StartChar: guilsinglleft
Encoding: 8249 8249 405
Width: 618
Flags: W
LayerCount: 2
Fore
SplineSet
488 846 m 1,0,1
 534 834 534 834 534 808 c 0,2,3
 534 796 534 796 516.5 777 c 128,-1,4
 499 758 499 758 412 676 c 0,5,6
 386 651 386 651 317.5 579 c 128,-1,7
 249 507 249 507 236 494 c 1,8,-1
 410 314 l 2,9,10
 430 294 430 294 449.5 275 c 128,-1,11
 469 256 469 256 480.5 245.5 c 128,-1,12
 492 235 492 235 502.5 225 c 128,-1,13
 513 215 513 215 517.5 210 c 128,-1,14
 522 205 522 205 526 199.5 c 128,-1,15
 530 194 530 194 531 190.5 c 128,-1,16
 532 187 532 187 532 182 c 0,17,18
 532 174 532 174 526 167 c 128,-1,19
 520 160 520 160 513.5 157 c 128,-1,20
 507 154 507 154 497.5 150.5 c 128,-1,21
 488 147 488 147 486 146 c 1,22,23
 484 151 484 151 447 183.5 c 128,-1,24
 410 216 410 216 307.5 292.5 c 128,-1,25
 205 369 205 369 74 454 c 1,26,27
 60 460 60 460 60 482 c 0,28,29
 60 518 60 518 76 536 c 1,30,31
 193 606 193 606 300 688 c 128,-1,32
 407 770 407 770 437.5 798 c 128,-1,33
 468 826 468 826 488 846 c 1,0,1
EndSplineSet
EndChar
StartChar: guilsinglright
Encoding: 8250 8250 406
Width: 616
Flags: W
LayerCount: 2
Fore
SplineSet
134 146 m 1,0,1
 113 151 113 151 102 159 c 128,-1,2
 91 167 91 167 89.5 171.5 c 128,-1,3
 88 176 88 176 88 182 c 0,4,5
 88 187 88 187 89 191 c 128,-1,6
 90 195 90 195 94.5 200.5 c 128,-1,7
 99 206 99 206 103.5 211.5 c 128,-1,8
 108 217 108 217 118.5 227 c 128,-1,9
 129 237 129 237 140 247.5 c 128,-1,10
 151 258 151 258 170 276.5 c 128,-1,11
 189 295 189 295 208 314 c 2,12,-1
 382 494 l 1,13,14
 369 507 369 507 300.5 579 c 128,-1,15
 232 651 232 651 206 676 c 0,16,17
 117 762 117 762 101.5 779 c 128,-1,18
 86 796 86 796 86 808 c 0,19,20
 86 816 86 816 92 823 c 128,-1,21
 98 830 98 830 104 833.5 c 128,-1,22
 110 837 110 837 120 841 c 128,-1,23
 130 845 130 845 132 846 c 1,24,25
 152 826 152 826 183 797.5 c 128,-1,26
 214 769 214 769 320 687.5 c 128,-1,27
 426 606 426 606 542 536 c 1,28,29
 560 515 560 515 560 482 c 0,30,31
 560 460 560 460 544 454 c 1,32,33
 429 379 429 379 332 307.5 c 128,-1,34
 235 236 235 236 192.5 200 c 128,-1,35
 150 164 150 164 134 146 c 1,0,1
EndSplineSet
EndChar
StartChar: fraction
Encoding: 8260 8260 920
Width: 1032
Flags: W
LayerCount: 2
Fore
SplineSet
986 1442 m 1,0,-1
 148 28 l 2,1,2
 130 -4 130 -4 108 -4 c 0,3,4
 89 -4 89 -4 73.5 2 c 128,-1,5
 58 8 58 8 52 14 c 2,6,-1
 46 20 l 1,7,-1
 884 1434 l 1,8,9
 898 1462 898 1462 916 1462 c 0,10,11
 959 1462 959 1462 986 1442 c 1,0,-1
EndSplineSet
EndChar
StartChar: uni2070
Encoding: 8304 8304 902
Width: 742
VWidth: 932
Flags: W
LayerCount: 2
Fore
SplineSet
212 1314 m 128,-1,1
 212 1176 212 1176 258 1078 c 128,-1,2
 304 980 304 980 372 980 c 128,-1,3
 440 980 440 980 485 1080.5 c 128,-1,4
 530 1181 530 1181 530 1320 c 0,5,6
 530 1458 530 1458 485 1551 c 128,-1,7
 440 1644 440 1644 372 1644 c 128,-1,8
 304 1644 304 1644 258 1548 c 128,-1,0
 212 1452 212 1452 212 1314 c 128,-1,1
74 1312 m 128,-1,10
 74 1471 74 1471 160 1584.5 c 128,-1,11
 246 1698 246 1698 370 1698 c 128,-1,12
 494 1698 494 1698 581 1584 c 128,-1,13
 668 1470 668 1470 668 1312 c 128,-1,14
 668 1154 668 1154 581 1040 c 128,-1,15
 494 926 494 926 370 926 c 128,-1,16
 246 926 246 926 160 1039.5 c 128,-1,9
 74 1153 74 1153 74 1312 c 128,-1,10
EndSplineSet
EndChar
StartChar: uni2075
Encoding: 8309 8309 904
Width: 638
VWidth: 932
Flags: W
LayerCount: 2
Fore
SplineSet
192 1692 m 0,0,1
 225 1693 225 1693 300.5 1693.5 c 128,-1,2
 376 1694 376 1694 434 1695.5 c 128,-1,3
 492 1697 492 1697 512 1702 c 1,4,5
 524 1686 524 1686 524 1648 c 0,6,7
 524 1620 524 1620 506 1584 c 1,8,9
 359 1578 359 1578 258.305668411 1581.38029029 c 0,10,11
 231 1582 231 1582 226 1581 c 128,-1,12
 221 1580 221 1580 220.310259141 1571.94043705 c 0,13,14
 220 1571 220 1571 220 1570 c 2,15,-1
 192 1416 l 1,16,17
 246 1422 246 1422 308 1422 c 0,18,19
 413 1422 413 1422 486.5 1351 c 128,-1,20
 560 1280 560 1280 560 1184 c 0,21,22
 560 1065 560 1065 485 994.5 c 128,-1,23
 410 924 410 924 264 924 c 0,24,25
 217 924 217 924 161 941.5 c 128,-1,26
 105 959 105 959 84 988 c 1,27,28
 80 1004 80 1004 80 1006 c 0,29,30
 80 1028 80 1028 99 1044 c 128,-1,31
 118 1060 118 1060 136 1060 c 0,32,33
 167 1060 167 1060 217.5 1022 c 128,-1,34
 268 984 268 984 300 984 c 0,35,36
 339 984 339 984 366.5 999 c 128,-1,37
 394 1014 394 1014 407.5 1040 c 128,-1,38
 421 1066 421 1066 426.5 1092 c 128,-1,39
 432 1118 432 1118 432 1148 c 0,40,41
 432 1227 432 1227 390 1273.5 c 128,-1,42
 348 1320 348 1320 272 1320 c 0,43,44
 229 1320 229 1320 198.5 1318 c 128,-1,45
 168 1316 168 1316 154.5 1314 c 128,-1,46
 141 1312 141 1312 138 1312 c 0,47,48
 130 1312 130 1312 118 1330 c 1,49,50
 173.232419715 1661.39451829 173.232419715 1661.39451829 179.740811951 1680.28665164 c 0,51,52
 183.776092884 1692 183.776092884 1692 192 1692 c 0,0,1
EndSplineSet
EndChar
StartChar: uni2076
Encoding: 8310 8310 905
Width: 652
VWidth: 934
Flags: W
LayerCount: 2
Fore
SplineSet
198 1160 m 0,0,1
 198 1082 198 1082 234.5 1033 c 128,-1,2
 271 984 271 984 338 984 c 0,3,4
 388 984 388 984 418 1031 c 128,-1,5
 448 1078 448 1078 448 1154 c 0,6,7
 448 1215 448 1215 413 1258.5 c 128,-1,8
 378 1302 378 1302 310 1302 c 0,9,10
 277 1302 277 1302 249.5 1280.5 c 128,-1,11
 222 1259 222 1259 210 1232 c 128,-1,12
 198 1205 198 1205 198 1160 c 0,0,1
330 924 m 0,13,14
 217 924 217 924 143.5 996.5 c 128,-1,15
 70 1069 70 1069 70 1196 c 0,16,17
 70 1365 70 1365 194 1503 c 128,-1,18
 318 1641 318 1641 502 1706 c 1,19,20
 516 1702 516 1702 528 1683.5 c 128,-1,21
 540 1665 540 1665 540 1654 c 1,22,23
 287 1555 287 1555 214 1326 c 1,24,25
 208.862608696 1315.72521739 208.862608696 1315.72521739 215.302 1314.002 c 0,26,27
 217.432 1313.432 217.432 1313.432 220 1316 c 0,28,29
 269 1380 269 1380 382 1380 c 0,30,31
 452 1380 452 1380 514 1319.5 c 128,-1,32
 576 1259 576 1259 576 1168 c 0,33,34
 576 1063 576 1063 507.5 993.5 c 128,-1,35
 439 924 439 924 330 924 c 0,13,14
EndSplineSet
EndChar
StartChar: uni2077
Encoding: 8311 8311 906
Width: 612
VWidth: 932
Flags: W
LayerCount: 2
Fore
SplineSet
524 1698 m 2,0,1
 543 1698 543 1698 574 1700 c 128,-1,2
 605 1702 605 1702 606 1702 c 0,3,4
 614 1702 614 1702 614 1690 c 0,5,6
 614 1671 614 1671 580 1612 c 2,7,-1
 178 916 l 1,8,9
 174 914 174 914 168 914 c 0,10,11
 152 914 152 914 142 926.5 c 128,-1,12
 132 939 132 939 132 958 c 0,13,14
 132 966 132 966 134 970 c 2,15,-1
 496 1588 l 1,16,-1
 198 1588 l 2,17,18
 172 1588 172 1588 158.5 1572 c 128,-1,19
 145 1556 145 1556 138 1526.5 c 128,-1,20
 131 1497 131 1497 130 1496 c 0,21,22
 94 1490 94 1490 78 1506 c 1,23,24
 82 1544 82 1544 86 1682 c 0,25,26
 86 1689 86 1689 94 1693.5 c 128,-1,27
 102 1698 102 1698 110 1698 c 2,28,-1
 524 1698 l 2,0,1
EndSplineSet
EndChar
StartChar: uni2081
Encoding: 8321 8321 910
Width: 536
VWidth: -226
Flags: W
LayerCount: 2
Fore
SplineSet
108 344 m 1,0,1
 101 348 101 348 93.5 364.5 c 128,-1,2
 86 381 86 381 86 388 c 0,3,4
 86 394 86 394 90 396 c 0,5,6
 148 429 148 429 208.5 466 c 128,-1,7
 269 503 269 503 300 522.5 c 128,-1,8
 331 542 331 542 332 542 c 2,9,-1
 336 542 l 2,10,11
 344 542 344 542 352 508 c 1,12,13
 338 468 338 468 338 398 c 2,14,-1
 338 -86 l 2,15,16
 338 -158 338 -158 354 -166 c 0,17,18
 394 -186 394 -186 424 -186 c 0,19,20
 432 -186 432 -186 432 -212 c 0,21,22
 432 -226 432 -226 428 -234 c 1,23,24
 320 -226 320 -226 282 -226 c 0,25,26
 234 -226 234 -226 126 -234 c 1,27,28
 120 -228 120 -228 120 -207 c 128,-1,29
 120 -186 120 -186 126 -186 c 0,30,31
 162 -186 162 -186 202 -166 c 0,32,33
 218 -158 218 -158 218 -94 c 2,34,-1
 218 308 l 2,35,36
 218 342 218 342 216 358.5 c 128,-1,37
 214 375 214 375 211 378.5 c 128,-1,38
 208 382 208 382 202 382 c 0,39,40
 178 382 178 382 108 344 c 1,0,1
EndSplineSet
EndChar
StartChar: uni2083
Encoding: 8323 8323 912
Width: 676
VWidth: -228
Flags: W
LayerCount: 2
Fore
SplineSet
358 540 m 0,0,1
 416 540 416 540 471 490 c 128,-1,2
 526 440 526 440 526 370 c 0,3,4
 526 261 526 261 402 208 c 1,5,6
 435 208 435 208 475 186 c 128,-1,7
 515 164 515 164 546.5 117 c 128,-1,8
 578 70 578 70 578 12 c 0,9,10
 578 -48 578 -48 550.5 -97 c 128,-1,11
 523 -146 523 -146 479 -175.5 c 128,-1,12
 435 -205 435 -205 384 -220.5 c 128,-1,13
 333 -236 333 -236 282 -236 c 0,14,15
 221 -236 221 -236 166.5 -218 c 128,-1,16
 112 -200 112 -200 90 -172 c 1,17,18
 86 -160 86 -160 86 -154 c 0,19,20
 86 -132 86 -132 105 -116 c 128,-1,21
 124 -100 124 -100 140 -100 c 0,22,23
 171 -100 171 -100 196.5 -119 c 128,-1,24
 222 -138 222 -138 248.5 -157 c 128,-1,25
 275 -176 275 -176 308 -176 c 0,26,27
 370 -176 370 -176 410 -136.5 c 128,-1,28
 450 -97 450 -97 450 -6 c 0,29,30
 450 57 450 57 404.5 100.5 c 128,-1,31
 359 144 359 144 304 144 c 0,32,33
 280 144 280 144 222 126 c 1,34,35
 210 142 210 142 210 164 c 0,36,37
 210 172 210 172 214 188 c 1,38,39
 293 205 293 205 352.5 245 c 128,-1,40
 412 285 412 285 412 350 c 0,41,42
 412 458 412 458 294 458 c 0,43,44
 283 458 283 458 271.5 455 c 128,-1,45
 260 452 260 452 249.5 447 c 128,-1,46
 239 442 239 442 229.5 436 c 128,-1,47
 220 430 220 430 211 422 c 128,-1,48
 202 414 202 414 195 407.5 c 128,-1,49
 188 401 188 401 181 393 c 128,-1,50
 174 385 174 385 170.5 380 c 128,-1,51
 167 375 167 375 162.5 369.5 c 2,52,-1
 158 364 l 1,53,54
 150 364 150 364 139 385 c 128,-1,55
 128 406 128 406 132 412 c 0,56,57
 214 540 214 540 358 540 c 0,0,1
EndSplineSet
EndChar
StartChar: uni2084
Encoding: 8324 8324 913
Width: 684
VWidth: -226
Flags: W
LayerCount: 2
Fore
SplineSet
434 -236 m 0,0,1
 408 -236 408 -236 395 -234 c 128,-1,2
 382 -232 382 -232 379 -229 c 128,-1,3
 376 -226 376 -226 376 -220 c 2,4,-1
 376 -32 l 1,5,6
 375 -28 375 -28 366 -28 c 2,7,-1
 84 -28 l 1,8,9
 70 -11 70 -11 66 46 c 1,10,11
 135 129 135 129 257 288.5 c 128,-1,12
 379 448 379 448 450 530 c 1,13,14
 464 544 464 544 480 544 c 128,-1,15
 496 544 496 544 496 532 c 2,16,-1
 496 64 l 2,17,18
 496 59 496 59 508 56 c 1,19,-1
 580 56 l 2,20,21
 586 56 586 56 589.5 53 c 128,-1,22
 593 50 593 50 595.5 34.5 c 128,-1,23
 598 19 598 19 598 -12 c 0,24,25
 598 -16 598 -16 595 -20 c 128,-1,26
 592 -24 592 -24 589 -26 c 2,27,-1
 586 -28 l 1,28,-1
 504 -28 l 2,29,30
 496 -28 496 -28 496 -36 c 2,31,-1
 496 -222 l 1,32,33
 496 -222 496 -222 492.653016012 -227.321137256 c 1,34,35
 480.357960458 -236 480.357960458 -236 434 -236 c 0,0,1
376 64 m 1,36,-1
 376 328 l 2,37,38
 376 338 376 338 370 338 c 1,39,40
 372 338 372 338 370 336 c 2,41,-1
 158 70 l 2,42,43
 156 68 156 68 156 66 c 0,44,45
 156 56 156 56 166 56 c 2,46,-1
 366 56 l 1,47,48
 367 57 367 57 369.280211245 57.0385212817 c 0,49,50
 375 58 375 58 376 64 c 1,36,-1
EndSplineSet
EndChar
StartChar: uni2086
Encoding: 8326 8326 915
Width: 710
VWidth: -226
Flags: W
LayerCount: 2
Fore
SplineSet
224 0 m 0,0,1
 224 -78 224 -78 260.5 -127 c 128,-1,2
 297 -176 297 -176 364 -176 c 0,3,4
 414 -176 414 -176 444 -129 c 128,-1,5
 474 -82 474 -82 474 -6 c 0,6,7
 474 55 474 55 439 98.5 c 128,-1,8
 404 142 404 142 336 142 c 0,9,10
 303 142 303 142 275.5 120.5 c 128,-1,11
 248 99 248 99 236 72 c 128,-1,12
 224 45 224 45 224 0 c 0,0,1
356 -236 m 0,13,14
 243 -236 243 -236 169.5 -163.5 c 128,-1,15
 96 -91 96 -91 96 36 c 0,16,17
 96 205 96 205 220 343 c 128,-1,18
 344 481 344 481 528 546 c 1,19,20
 542 542 542 542 554 523.5 c 128,-1,21
 566 505 566 505 566 494 c 1,22,23
 313 395 313 395 240 166 c 1,24,25
 234.862608696 155.725217391 234.862608696 155.725217391 241.302 154.002 c 0,26,27
 243.432 153.432 243.432 153.432 246 156 c 0,28,29
 295 220 295 220 408 220 c 0,30,31
 478 220 478 220 540 159.5 c 128,-1,32
 602 99 602 99 602 8 c 0,33,34
 602 -97 602 -97 533.5 -166.5 c 128,-1,35
 465 -236 465 -236 356 -236 c 0,13,14
EndSplineSet
EndChar
StartChar: uni2087
Encoding: 8327 8327 916
Width: 696
VWidth: -228
Flags: W
LayerCount: 2
Fore
SplineSet
550 538 m 2,0,1
 569 538 569 538 600 540 c 128,-1,2
 631 542 631 542 632 542 c 0,3,4
 640 542 640 542 640 530 c 0,5,6
 640 511 640 511 606 452 c 2,7,-1
 204 -244 l 1,8,9
 200 -246 200 -246 194 -246 c 0,10,11
 178 -246 178 -246 168 -233.5 c 128,-1,12
 158 -221 158 -221 158 -202 c 0,13,14
 158 -194 158 -194 160 -190 c 2,15,-1
 522 428 l 1,16,-1
 224 428 l 2,17,18
 198 428 198 428 184.5 412 c 128,-1,19
 171 396 171 396 164 366.5 c 128,-1,20
 157 337 157 337 156 336 c 0,21,22
 120 330 120 330 104 346 c 1,23,24
 108 384 108 384 112 522 c 0,25,26
 112 529 112 529 120 533.5 c 128,-1,27
 128 538 128 538 136 538 c 2,28,-1
 550 538 l 2,0,1
EndSplineSet
EndChar
StartChar: uni2089
Encoding: 8329 8329 918
Width: 700
VWidth: -226
Flags: W
LayerCount: 2
Fore
SplineSet
476 310 m 0,0,1
 476 388 476 388 439.5 437 c 128,-1,2
 403 486 403 486 336 486 c 0,3,4
 286 486 286 486 256 439 c 128,-1,5
 226 392 226 392 226 316 c 0,6,7
 226 255 226 255 261 211.5 c 128,-1,8
 296 168 296 168 364 168 c 0,9,10
 397 168 397 168 424.5 189.5 c 128,-1,11
 452 211 452 211 464 238 c 128,-1,12
 476 265 476 265 476 310 c 0,0,1
344 546 m 0,13,14
 457 546 457 546 530.5 473.5 c 128,-1,15
 604 401 604 401 604 274 c 0,16,17
 604 105 604 105 480 -33 c 128,-1,18
 356 -171 356 -171 172 -236 c 1,19,20
 158 -232 158 -232 146 -213.5 c 128,-1,21
 134 -195 134 -195 134 -184 c 1,22,23
 387 -85 387 -85 460 144 c 1,24,25
 465.137391304 154.274782609 465.137391304 154.274782609 458.698 155.998 c 0,26,27
 456.568 156.568 456.568 156.568 454 154 c 0,28,29
 405 90 405 90 292 90 c 0,30,31
 222 90 222 90 160 150.5 c 128,-1,32
 98 211 98 211 98 302 c 0,33,34
 98 407 98 407 166.5 476.5 c 128,-1,35
 235 546 235 546 344 546 c 0,13,14
EndSplineSet
EndChar
StartChar: lira
Encoding: 8356 8356 919
Width: 958
UnlinkRmOvrlpSave: 1
Flags: W
LayerCount: 2
Fore
SplineSet
158 596 m 2,0,1
 764 596 l 1,2,3
 778 585 778 585 774.5 569.5 c 128,-1,4
 771 554 771 554 762.5 541.5 c 128,-1,5
 754 529 754 529 746 524 c 1,6,-1
 112 524 l 1,7,8
 103 533 103 533 123.5 564.5 c 128,-1,9
 144 596 144 596 158 596 c 2,0,1
630 1272 m 0,10,11
 678 1272 678 1272 705.5 1262 c 128,-1,12
 733 1252 733 1252 774 1224 c 1,13,14
 781 1217 781 1217 787.5 1199.5 c 128,-1,15
 794 1182 794 1182 794 1168 c 0,16,17
 794 1119 794 1119 771 1095.5 c 128,-1,18
 748 1072 748 1072 718 1072 c 0,19,20
 703 1072 703 1072 686.5 1080.5 c 128,-1,21
 670 1089 670 1089 660.5 1097.5 c 128,-1,22
 651 1106 651 1106 634.5 1123 c 128,-1,23
 618 1140 618 1140 612 1146 c 0,24,25
 590 1167 590 1167 576 1173.5 c 128,-1,26
 562 1180 562 1180 542 1180 c 0,27,28
 492 1180 492 1180 460.5 1142 c 128,-1,29
 429 1104 429 1104 417.5 1048 c 128,-1,30
 406 992 406 992 406 918 c 0,31,32
 406 840 406 840 427 718 c 128,-1,33
 448 596 448 596 448 544 c 0,34,35
 448 446 448 446 387.5 346 c 128,-1,36
 327 246 327 246 270 194 c 1,37,38
 302 210 302 210 340 210 c 0,39,40
 376 210 376 210 411 195.5 c 128,-1,41
 446 181 446 181 472.5 163 c 128,-1,42
 499 145 499 145 547.5 130.5 c 128,-1,43
 596 116 596 116 656 116 c 0,44,45
 694 116 694 116 730 135 c 128,-1,46
 766 154 766 154 791.5 184.5 c 128,-1,47
 817 215 817 215 831.5 236.5 c 128,-1,48
 846 258 846 258 856 278 c 0,49,50
 857 278 857 278 863.5 273.5 c 128,-1,51
 870 269 870 269 876 261 c 128,-1,52
 882 253 882 253 882 246 c 0,53,54
 882 234 882 234 876 216 c 0,55,56
 867 189 867 189 842.5 152.5 c 128,-1,57
 818 116 818 116 781 76.5 c 128,-1,58
 744 37 744 37 691.5 10.5 c 128,-1,59
 639 -16 639 -16 584 -16 c 0,60,61
 527 -16 527 -16 472.5 2 c 128,-1,62
 418 20 418 20 384 41 c 128,-1,63
 350 62 350 62 309 80 c 128,-1,64
 268 98 268 98 234 98 c 0,65,66
 206 98 206 98 186.5 78.5 c 128,-1,67
 167 59 167 59 150 29 c 128,-1,68
 133 -1 133 -1 122 -12 c 1,69,70
 110 -12 110 -12 100 3 c 128,-1,71
 90 18 90 18 90 32 c 0,72,73
 90 88 90 88 190 188 c 0,74,75
 233 231 233 231 265.5 311 c 128,-1,76
 298 391 298 391 298 462 c 0,77,78
 298 482 298 482 275.5 623.5 c 128,-1,79
 253 765 253 765 252 798 c 0,80,81
 249 897 249 897 281.5 986.5 c 128,-1,82
 314 1076 314 1076 367.5 1137.5 c 128,-1,83
 421 1199 421 1199 490.5 1235.5 c 128,-1,84
 560 1272 560 1272 630 1272 c 0,10,11
158 756 m 2,85,-1
 764 756 l 1,86,87
 778 745 778 745 774.5 729.5 c 128,-1,88
 771 714 771 714 762.5 701.5 c 128,-1,89
 754 689 754 689 746 684 c 1,90,-1
 112 684 l 1,91,92
 103 693 103 693 123.5 724.5 c 128,-1,93
 144 756 144 756 158 756 c 2,85,-1
EndSplineSet
EndChar
StartChar: Euro
Encoding: 8364 8364 410
Width: 1416
UnlinkRmOvrlpSave: 1
Flags: W
LayerCount: 2
Fore
SplineSet
833 1280 m 0,0,1
 1050 1280 1050 1280 1239 1240 c 1,2,3
 1283 976 1283 976 1283 956 c 0,4,5
 1283 928 1283 928 1243 928 c 0,6,7
 1222 928 1222 928 1217 936 c 1,8,9
 1213 956 1213 956 1209.5 970.5 c 128,-1,10
 1206 985 1206 985 1193.5 1016 c 128,-1,11
 1181 1047 1181 1047 1165 1069.5 c 128,-1,12
 1149 1092 1149 1092 1119.5 1120.5 c 128,-1,13
 1090 1149 1090 1149 1053.5 1167 c 128,-1,14
 1017 1185 1017 1185 962 1197.5 c 128,-1,15
 907 1210 907 1210 841 1210 c 0,16,17
 738 1210 738 1210 648.5 1161.5 c 128,-1,18
 559 1113 559 1113 500 1034.5 c 128,-1,19
 441 956 441 956 407 857.5 c 128,-1,20
 373 759 373 759 373 658 c 0,21,22
 373 543 373 543 405 437.5 c 128,-1,23
 437 332 437 332 497 247 c 128,-1,24
 557 162 557 162 654.5 111 c 128,-1,25
 752 60 752 60 873 60 c 0,26,27
 1176 60 1176 60 1243 366 c 1,28,29
 1255 366 1255 366 1270.5 362.5 c 128,-1,30
 1286 359 1286 359 1295.5 355.5 c 2,31,-1
 1305 352 l 1,32,33
 1305 317 1305 317 1280 203.5 c 128,-1,34
 1255 90 1255 90 1237 74 c 1,35,36
 1085 -12 1085 -12 825 -12 c 0,37,38
 686 -12 686 -12 565 39 c 128,-1,39
 444 90 444 90 361 175.5 c 128,-1,40
 278 261 278 261 230.5 376 c 128,-1,41
 183 491 183 491 183 618 c 0,42,43
 183 752 183 752 232 873.5 c 128,-1,44
 281 995 281 995 366 1084.5 c 128,-1,45
 451 1174 451 1174 572.5 1227 c 128,-1,46
 694 1280 694 1280 833 1280 c 0,0,1
105 574 m 1,47,-1
 889 574 l 2,48,49
 900 574 900 574 889 542 c 1,50,51
 877 500 877 500 857 478 c 1,52,-1
 73 478 l 2,53,54
 63 478 63 478 73 508 c 1,55,56
 86 553 86 553 105 574 c 1,47,-1
105 796 m 1,57,-1
 889 796 l 2,58,59
 900 796 900 796 889 764 c 1,60,61
 877 722 877 722 857 700 c 1,62,-1
 73 700 l 2,63,64
 63 700 63 700 73 730 c 1,65,66
 86 775 86 775 105 796 c 1,57,-1
EndSplineSet
EndChar
StartChar: trademark
Encoding: 8482 8482 935
Width: 1758
Flags: W
LayerCount: 2
Fore
SplineSet
1602 1270 m 1,0,1
 1606 1234 l 1,2,3
 1592 1234 1592 1234 1568 1229.5 c 128,-1,4
 1544 1225 1544 1225 1540 1220 c 1,5,6
 1534 1208 1534 1208 1534 1186 c 0,7,8
 1535 1164 1535 1164 1536.5 1026 c 128,-1,9
 1538 888 1538 888 1540 824 c 1,10,11
 1544 756 1544 756 1552 738 c 0,12,13
 1556 730 1556 730 1582 726 c 128,-1,14
 1608 722 1608 722 1622 722 c 1,15,16
 1626 717 1626 717 1626 702.5 c 128,-1,17
 1626 688 1626 688 1624 686 c 1,18,19
 1540 690 1540 690 1500 690 c 0,20,21
 1472 690 1472 690 1376 686 c 1,22,23
 1374 688 1374 688 1373.5 702 c 128,-1,24
 1373 716 1373 716 1376 722 c 1,25,26
 1416 722 1416 722 1436 732 c 0,27,28
 1446 737 1446 737 1446 770 c 0,29,30
 1446 776 1446 776 1445 794.5 c 128,-1,31
 1444 813 1444 813 1444 820 c 0,32,33
 1442 874 1442 874 1441.5 984.5 c 128,-1,34
 1441 1095 1441 1095 1438 1172 c 0,35,36
 1438 1188 1438 1188 1428 1188 c 0,37,38
 1427 1188 1427 1188 1424 1182 c 0,39,40
 1306 948 1306 948 1204 732 c 0,41,42
 1199 722 1199 722 1185.5 704.5 c 128,-1,43
 1172 687 1172 687 1164 686 c 0,44,45
 1162 686 1162 686 1160 687 c 128,-1,46
 1158 688 1158 688 1156 688 c 1,47,-1
 902 1178 l 1,48,49
 894 794 894 794 894 766 c 0,50,51
 894 746 894 746 898 738 c 0,52,53
 905 722 905 722 976 722 c 1,54,55
 980 717 980 717 979 702.5 c 128,-1,56
 978 688 978 688 976 686 c 1,57,58
 892 690 892 690 866 690 c 128,-1,59
 840 690 840 690 744 686 c 1,60,61
 742 687 742 687 742.5 701.5 c 128,-1,62
 743 716 743 716 746 722 c 1,63,64
 762 722 762 722 790 726 c 128,-1,65
 818 730 818 730 824 738 c 0,66,67
 832 748 832 748 836 782 c 1,68,69
 848 1036 848 1036 848 1182 c 0,70,71
 848 1206 848 1206 844 1216 c 0,72,73
 841 1223 841 1223 816.5 1228.5 c 128,-1,74
 792 1234 792 1234 780 1234 c 0,75,76
 778 1234 778 1234 778 1251 c 128,-1,77
 778 1268 778 1268 780 1270 c 1,78,79
 876 1266 876 1266 886 1266 c 0,80,81
 926 1266 926 1266 970 1270 c 1,82,83
 980 1242 980 1242 1067.5 1080 c 128,-1,84
 1155 918 1155 918 1192 840 c 0,85,86
 1194 838 1194 838 1196 838 c 128,-1,87
 1198 838 1198 838 1202 842 c 1,88,89
 1233 908 1233 908 1281.5 1009 c 128,-1,90
 1330 1110 1330 1110 1360 1176 c 1,91,-1
 1400 1270 l 1,92,93
 1468 1266 1468 1266 1486 1266 c 0,94,95
 1550 1266 1550 1266 1602 1270 c 1,0,1
440 1270 m 1,96,-1
 642 1270 l 2,97,98
 680 1270 680 1270 704 1282 c 0,99,100
 716 1287 716 1287 724 1284 c 1,101,102
 726 1268 726 1268 731 1230 c 128,-1,103
 736 1192 736 1192 740.5 1163.5 c 128,-1,104
 745 1135 745 1135 750 1114 c 1,105,106
 738 1108 738 1108 730 1108 c 0,107,108
 718 1108 718 1108 714 1112 c 1,109,110
 703 1161 703 1161 678 1190.5 c 128,-1,111
 653 1220 653 1220 616 1220 c 2,112,-1
 492 1220 l 1,113,-1
 492 802 l 2,114,115
 492 750 492 750 498 736 c 0,116,117
 501 730 501 730 527.5 726 c 128,-1,118
 554 722 554 722 570 722 c 1,119,120
 573 719 573 719 573.5 704 c 128,-1,121
 574 689 574 689 570 686 c 1,122,123
 486 690 486 690 440 690 c 128,-1,124
 394 690 394 690 310 686 c 1,125,126
 306 689 306 689 306.5 704 c 128,-1,127
 307 719 307 719 310 722 c 1,128,129
 326 722 326 722 351.5 726 c 128,-1,130
 377 730 377 730 380 736 c 0,131,132
 386 750 386 750 386 802 c 2,133,-1
 386 1220 l 1,134,-1
 260 1220 l 2,135,136
 223 1220 223 1220 198 1190.5 c 128,-1,137
 173 1161 173 1161 162 1112 c 1,138,139
 158 1108 158 1108 146 1108 c 0,140,141
 138 1108 138 1108 126 1114 c 1,142,143
 133 1139 133 1139 154 1284 c 1,144,145
 162 1287 162 1287 176 1282 c 1,146,147
 200 1270 200 1270 236 1270 c 2,148,-1
 440 1270 l 1,96,-1
EndSplineSet
EndChar
StartChar: arrowleft
Encoding: 8592 8592 411
Width: 1530
Flags: W
LayerCount: 2
Fore
SplineSet
530 808 m 0,0,1
 530 803 530 803 529.5 801 c 128,-1,2
 529 799 529 799 528 795.5 c 128,-1,3
 527 792 527 792 523 788 c 128,-1,4
 519 784 519 784 514 778.5 c 128,-1,5
 509 773 509 773 498 763.5 c 128,-1,6
 487 754 487 754 475 742 c 128,-1,7
 463 730 463 730 442.5 710 c 128,-1,8
 422 690 422 690 400 668 c 2,9,-1
 294 558 l 1,10,-1
 1446 558 l 2,11,12
 1460 558 1460 558 1460 538 c 0,13,14
 1460 510 1460 510 1444 446 c 0,15,16
 1442 441 1442 441 1438.5 437.5 c 128,-1,17
 1435 434 1435 434 1432.5 433 c 2,18,-1
 1430 432 l 1,19,-1
 292 432 l 1,20,-1
 406 314 l 2,21,22
 426 294 426 294 445 276 c 128,-1,23
 464 258 464 258 475 247 c 128,-1,24
 486 236 486 236 496 227 c 128,-1,25
 506 218 506 218 511 212.5 c 128,-1,26
 516 207 516 207 520 203 c 128,-1,27
 524 199 524 199 525.5 196 c 128,-1,28
 527 193 527 193 527.5 190 c 128,-1,29
 528 187 528 187 528 182 c 0,30,31
 528 170 528 170 519.5 163 c 128,-1,32
 511 156 511 156 497 151.5 c 128,-1,33
 483 147 483 147 482 146 c 1,34,35
 480 151 480 151 443 183.5 c 128,-1,36
 406 216 406 216 303.5 292.5 c 128,-1,37
 201 369 201 369 70 454 c 1,38,39
 56 460 56 460 56 482 c 0,40,41
 56 518 56 518 72 536 c 1,42,43
 189 606 189 606 296 688 c 128,-1,44
 403 770 403 770 433.5 798 c 128,-1,45
 464 826 464 826 484 846 c 1,46,47
 530 833 530 833 530 808 c 0,0,1
EndSplineSet
EndChar
StartChar: arrowdown
Encoding: 8595 8595 414
Width: 802
Flags: W
LayerCount: 2
Fore
SplineSet
84 416 m 0,0,1
 89 416 89 416 91.5 415.5 c 128,-1,2
 94 415 94 415 97.5 413.5 c 128,-1,3
 101 412 101 412 105 408.5 c 128,-1,4
 109 405 109 405 114.5 399.5 c 128,-1,5
 120 394 120 394 129 384 c 128,-1,6
 138 374 138 374 149.5 362.5 c 128,-1,7
 161 351 161 351 179.5 332.5 c 128,-1,8
 198 314 198 314 219 293 c 128,-1,9
 240 272 240 272 270.5 242.5 c 128,-1,10
 301 213 301 213 336 180 c 1,11,-1
 336 1334 l 2,12,13
 336 1336 336 1336 336 1338 c 128,-1,14
 336 1340 336 1340 340.5 1344 c 128,-1,15
 345 1348 345 1348 354 1348 c 0,16,17
 384 1348 384 1348 448 1332 c 0,18,19
 453 1330 453 1330 456.5 1326 c 128,-1,20
 460 1322 460 1322 461 1319 c 2,21,-1
 462 1316 l 1,22,-1
 462 178 l 1,23,-1
 580 292 l 2,24,25
 607 319 607 319 629 342.5 c 128,-1,26
 651 366 651 366 661.5 377.5 c 128,-1,27
 672 389 672 389 680 398 c 128,-1,28
 688 407 688 407 692.5 409.5 c 128,-1,29
 697 412 697 412 700.5 413 c 128,-1,30
 704 414 704 414 712 414 c 0,31,32
 724 414 724 414 731 405.5 c 128,-1,33
 738 397 738 397 742.5 383 c 128,-1,34
 747 369 747 369 748 368 c 1,35,36
 743 365 743 365 710 328.5 c 128,-1,37
 677 292 677 292 600 189.5 c 128,-1,38
 523 87 523 87 438 -44 c 1,39,40
 432 -58 432 -58 412 -58 c 0,41,42
 377 -58 377 -58 356 -40 c 1,43,44
 286 77 286 77 204.5 183.5 c 128,-1,45
 123 290 123 290 95 320.5 c 128,-1,46
 67 351 67 351 48 370 c 1,47,48
 61 416 61 416 84 416 c 0,0,1
EndSplineSet
EndChar
StartChar: Delta
Encoding: 8710 8710 417
Width: 1364
Flags: W
LayerCount: 2
Fore
SplineSet
1070 136 m 1,0,-1
 656 970 l 1,1,2
 642 981 642 981 632 966 c 1,3,-1
 214 144 l 1,4,5
 211 134 211 134 216.5 128 c 128,-1,6
 222 122 222 122 230 122 c 2,7,-1
 1064 122 l 2,8,9
 1074 122 1074 122 1070 136 c 1,0,-1
706 1226 m 1,10,-1
 1310 28 l 1,11,12
 1298 16 1298 16 1294 0 c 1,13,-1
 72 0 l 1,14,15
 68 5 68 5 65.5 10 c 128,-1,16
 63 15 63 15 60 21 c 128,-1,17
 57 27 57 27 54 32 c 1,18,-1
 672 1226 l 1,19,-1
 706 1226 l 1,10,-1
EndSplineSet
EndChar
StartChar: gradient
Encoding: 8711 8711 418
Width: 1366
Flags: W
LayerCount: 2
Fore
SplineSet
294 1148 m 1,0,-1
 710 312 l 1,1,2
 723 302 723 302 734 318 c 1,3,-1
 1150 1140 l 1,4,5
 1156 1160 1156 1160 1136 1160 c 2,6,-1
 302 1160 l 2,7,8
 291 1160 291 1160 294 1148 c 1,0,-1
660 56 m 1,9,-1
 56 1256 l 1,10,11
 68 1268 68 1268 72 1284 c 1,12,-1
 1294 1284 l 1,13,14
 1298 1277 1298 1277 1303.5 1266.5 c 128,-1,15
 1309 1256 1309 1256 1312 1250 c 1,16,-1
 694 56 l 1,17,-1
 660 56 l 1,9,-1
EndSplineSet
EndChar
StartChar: element
Encoding: 8712 8712 419
Width: 1002
Flags: W
LayerCount: 2
Fore
SplineSet
812 432 m 0,0,1
 812 417 812 417 810.5 406.5 c 128,-1,2
 809 396 809 396 806.5 391.5 c 128,-1,3
 804 387 804 387 801.5 385 c 128,-1,4
 799 383 799 383 796.5 382.5 c 2,5,-1
 794 382 l 1,6,-1
 234 382 l 2,7,8
 231 382 231 382 227 380 c 128,-1,9
 223 378 223 378 224 374 c 0,10,11
 243 272 243 272 316 193 c 128,-1,12
 389 114 389 114 484 114 c 2,13,-1
 860 114 l 1,14,15
 863 113 863 113 868 110 c 128,-1,16
 873 107 873 107 881.5 88 c 128,-1,17
 890 69 890 69 890 38 c 0,18,19
 890 30 890 30 886.5 25.5 c 128,-1,20
 883 21 883 21 879.5 20.5 c 2,21,-1
 876 20 l 1,22,-1
 488 20 l 2,23,24
 323 20 323 20 213.5 140.5 c 128,-1,25
 104 261 104 261 104 432 c 0,26,27
 104 600 104 600 206.5 721 c 128,-1,28
 309 842 309 842 468 842 c 2,29,-1
 876 842 l 2,30,31
 890 842 890 842 890 818 c 0,32,33
 890 790 890 790 882.5 772.5 c 128,-1,34
 875 755 875 755 867.5 751.5 c 2,35,-1
 860 748 l 1,36,-1
 468 748 l 2,37,38
 379 748 379 748 310.5 667.5 c 128,-1,39
 242 587 242 587 224 486 c 1,40,41
 224 476 224 476 234 476 c 2,42,-1
 796 476 l 1,43,-1
 797.5 474 l 2,44,45
 799 472 799 472 801.5 469 c 128,-1,46
 804 466 804 466 806.5 461.5 c 128,-1,47
 809 457 809 457 810.5 449.5 c 128,-1,48
 812 442 812 442 812 432 c 0,0,1
EndSplineSet
EndChar
StartChar: summation
Encoding: 8721 8721 421
Width: 1242
Flags: W
LayerCount: 2
Fore
SplineSet
444 94 m 0,0,1
 478 94 478 94 550.5 95 c 128,-1,2
 623 96 623 96 656 96 c 0,3,4
 742 96 742 96 842 104 c 128,-1,5
 942 112 942 112 980 132 c 0,6,7
 1010 148 1010 148 1041.5 198 c 128,-1,8
 1073 248 1073 248 1096 324 c 0,9,10
 1099 336 1099 336 1124 336 c 0,11,12
 1162 336 1162 336 1174 324 c 1,13,14
 1165 298 1165 298 1144 241 c 128,-1,15
 1123 184 1123 184 1110.5 148.5 c 128,-1,16
 1098 113 1098 113 1084.5 68 c 128,-1,17
 1071 23 1071 23 1066 -8 c 1,18,19
 952 -8 952 -8 675 -2 c 128,-1,20
 398 4 398 4 312 4 c 0,21,22
 252 4 252 4 193 1.5 c 128,-1,23
 134 -1 134 -1 105 -3.5 c 2,24,-1
 76 -6 l 1,25,26
 68 2 68 2 68 30 c 0,27,28
 68 62 68 62 76 62 c 0,29,30
 91 62 91 62 116.5 83.5 c 128,-1,31
 142 105 142 105 158 126 c 2,32,-1
 566 634 l 2,33,34
 572 643 572 643 564 654 c 0,35,36
 540 691 540 691 412 868.5 c 128,-1,37
 284 1046 284 1046 180 1184 c 0,38,39
 161 1209 161 1209 127.5 1231.5 c 128,-1,40
 94 1254 94 1254 76 1254 c 0,41,42
 68 1254 68 1254 68 1282 c 0,43,44
 68 1308 68 1308 76 1316 c 1,45,46
 174 1312 174 1312 308 1312 c 0,47,48
 397 1312 397 1312 655 1320 c 128,-1,49
 913 1328 913 1328 1026 1328 c 1,50,51
 1034 1270 1034 1270 1056.5 1171 c 128,-1,52
 1079 1072 1079 1072 1082 1056 c 1,53,54
 1072 1046 1072 1046 1048 1046 c 0,55,56
 1023 1046 1023 1046 1020 1060 c 0,57,58
 989 1177 989 1177 916 1214 c 1,59,60
 878 1232 878 1232 734 1232 c 2,61,-1
 642 1232 l 2,62,63
 624 1232 624 1232 569 1233 c 128,-1,64
 514 1234 514 1234 484 1234 c 0,65,66
 355 1234 355 1234 350 1214 c 1,67,-1
 728 716 l 1,68,69
 736 692 736 692 736 678 c 128,-1,70
 736 664 736 664 726 654 c 0,71,72
 467.88162843 367.201809367 467.88162843 367.201809367 394.057032175 275.215980501 c 0,73,74
 294 150.544400767 294 150.544400767 294 116 c 0,75,76
 294 108 294 108 302.5 104 c 128,-1,77
 311 100 311 100 344.5 97 c 128,-1,78
 378 94 378 94 444 94 c 0,0,1
EndSplineSet
EndChar
StartChar: minus
Encoding: 8722 8722 422
Width: 1222
Flags: W
LayerCount: 2
Fore
SplineSet
1051 436 m 1,0,1
 147 436 l 1,2,3
 137 440 137 440 138.5 463 c 128,-1,4
 140 486 140 486 153 514.5 c 128,-1,5
 166 543 166 543 179 548 c 1,6,-1
 1077 548 l 1,7,8
 1089 544 1089 544 1088.5 522 c 128,-1,9
 1088 500 1088 500 1076 471.5 c 128,-1,10
 1064 443 1064 443 1051 436 c 1,0,1
EndSplineSet
EndChar
StartChar: proportional
Encoding: 8733 8733 425
Width: 1430
Flags: W
LayerCount: 2
Fore
SplineSet
248 458 m 0,0,1
 248 350 248 350 315.5 272 c 128,-1,2
 383 194 383 194 486 194 c 0,3,4
 524 194 524 194 560.5 208.5 c 128,-1,5
 597 223 597 223 633.5 254.5 c 128,-1,6
 670 286 670 286 693.5 309.5 c 128,-1,7
 717 333 717 333 755.5 377 c 128,-1,8
 794 421 794 421 808 436 c 0,9,10
 810 438 810 438 808 440 c 0,11,12
 798 452 798 452 763 498 c 128,-1,13
 728 544 728 544 700 575.5 c 128,-1,14
 672 607 672 607 633 645 c 128,-1,15
 594 683 594 683 553 703.5 c 128,-1,16
 512 724 512 724 472 724 c 0,17,18
 374 724 374 724 311 644.5 c 128,-1,19
 248 565 248 565 248 458 c 0,0,1
1278 86 m 1,20,21
 1205 86 1205 86 1137 114 c 128,-1,22
 1069 142 1069 142 1022.5 182.5 c 128,-1,23
 976 223 976 223 940.5 263.5 c 128,-1,24
 905 304 905 304 884 332 c 128,-1,25
 863 360 863 360 858 360 c 2,26,-1
 856 360 l 1,27,28
 758.238769031 243.793253754 758.238769031 243.793253754 709.448950098 199.911190818 c 0,29,30
 578.350609105 82 578.350609105 82 432 82 c 0,31,32
 293 82 293 82 200.5 190.5 c 128,-1,33
 108 299 108 299 108 446 c 0,34,35
 108 610 108 610 220.5 727 c 128,-1,36
 333 844 333 844 496 844 c 0,37,38
 562 844 562 844 623 821 c 128,-1,39
 684 798 684 798 743 747 c 128,-1,40
 802 696 802 696 827.5 669.5 c 128,-1,41
 853 643 853 643 904.268037453 583.422801494 c 0,42,43
 911 576 911 576 914 572 c 0,44,45
 916 569 916 569 920 568 c 128,-1,46
 924 567 924 567 926 570 c 0,47,48
 958 610 958 610 977 632.5 c 128,-1,49
 996 655 996 655 1035.5 695 c 128,-1,50
 1075 735 1075 735 1108 759 c 128,-1,51
 1141 783 1141 783 1187.5 806 c 128,-1,52
 1234 829 1234 829 1280 838 c 1,53,-1
 1284 838 l 2,54,55
 1300 838 1300 838 1300 806 c 0,56,57
 1300 793 1300 793 1297 775 c 128,-1,58
 1294 757 1294 757 1291 745.5 c 2,59,-1
 1288 734 l 1,60,61
 1259 734 1259 734 1226 720 c 128,-1,62
 1193 706 1193 706 1169.5 691 c 128,-1,63
 1146 676 1146 676 1110 641.5 c 128,-1,64
 1074 607 1074 607 1060.5 592 c 128,-1,65
 1047 577 1047 577 1011.5 536 c 128,-1,66
 976 495 976 495 974 492 c 0,67,68
 970 488 970 488 972 486 c 0,69,70
 980 475 980 475 1011.5 434.5 c 128,-1,71
 1043 394 1043 394 1057.5 377 c 128,-1,72
 1072 360 1072 360 1102 326 c 128,-1,73
 1132 292 1132 292 1153 275 c 128,-1,74
 1174 258 1174 258 1202.5 237.5 c 128,-1,75
 1231 217 1231 217 1259 208.5 c 128,-1,76
 1287 200 1287 200 1316 200 c 0,77,78
 1332 200 1332 200 1332 182 c 0,79,80
 1332 160 1332 160 1312 125.5 c 128,-1,81
 1292 91 1292 91 1278 86 c 1,20,21
EndSplineSet
EndChar
StartChar: infinity
Encoding: 8734 8734 426
Width: 1780
Flags: W
LayerCount: 2
Fore
SplineSet
1286 734 m 0,0,1
 1257 734 1257 734 1224.5 720 c 128,-1,2
 1192 706 1192 706 1167.5 690 c 128,-1,3
 1143 674 1143 674 1109.5 641.5 c 128,-1,4
 1076 609 1076 609 1060 592 c 128,-1,5
 1044 575 1044 575 1011.5 536.5 c 128,-1,6
 979 498 979 498 974 492 c 0,7,8
 970 488 970 488 972 486 c 0,9,10
 980 475 980 475 1011.5 434.5 c 128,-1,11
 1043 394 1043 394 1057.5 377 c 128,-1,12
 1072 360 1072 360 1102 326 c 128,-1,13
 1132 292 1132 292 1153 275 c 128,-1,14
 1174 258 1174 258 1202.5 237.5 c 128,-1,15
 1231 217 1231 217 1259 208.5 c 128,-1,16
 1287 200 1287 200 1316 200 c 0,17,18
 1412 200 1412 200 1471 280 c 128,-1,19
 1530 360 1530 360 1530 466 c 0,20,21
 1530 575 1530 575 1460 654.5 c 128,-1,22
 1390 734 1390 734 1286 734 c 0,0,1
246 458 m 0,23,24
 246 351 246 351 314.5 272.5 c 128,-1,25
 383 194 383 194 486 194 c 0,26,27
 524 194 524 194 560.5 208.5 c 128,-1,28
 597 223 597 223 633.5 254.5 c 128,-1,29
 670 286 670 286 693.5 309.5 c 128,-1,30
 717 333 717 333 755.5 377 c 128,-1,31
 794 421 794 421 808 436 c 0,32,33
 810 438 810 438 808 440 c 0,34,35
 798 452 798 452 763 498 c 128,-1,36
 728 544 728 544 700 575.5 c 128,-1,37
 672 607 672 607 633 645 c 128,-1,38
 594 683 594 683 553 703.5 c 128,-1,39
 512 724 512 724 472 724 c 0,40,41
 373 724 373 724 309.5 644 c 128,-1,42
 246 564 246 564 246 458 c 0,23,24
496 844 m 0,43,44
 562 844 562 844 623 821 c 128,-1,45
 684 798 684 798 743 747 c 128,-1,46
 802 696 802 696 827.5 669.5 c 128,-1,47
 853 643 853 643 904.268037453 583.422801494 c 0,48,49
 911 576 911 576 914 572 c 0,50,51
 916 569 916 569 920 568 c 128,-1,52
 924 567 924 567 926 570 c 0,53,54
 970 625 970 625 1001.5 660 c 128,-1,55
 1033 695 1033 695 1089 744 c 128,-1,56
 1145 793 1145 793 1208.5 818.5 c 128,-1,57
 1272 844 1272 844 1340 844 c 0,58,59
 1480 844 1480 844 1576 736.5 c 128,-1,60
 1672 629 1672 629 1672 484 c 0,61,62
 1672 319 1672 319 1556.5 202.5 c 128,-1,63
 1441 86 1441 86 1276 86 c 0,64,65
 1203 86 1203 86 1135 114 c 128,-1,66
 1067 142 1067 142 1020.5 182.5 c 128,-1,67
 974 223 974 223 938.5 263.5 c 128,-1,68
 903 304 903 304 882 332 c 128,-1,69
 861 360 861 360 856 360 c 2,70,-1
 854 360 l 1,71,72
 824 324 824 324 817.5 316.5 c 128,-1,73
 811 309 811 309 781 275.5 c 128,-1,74
 751 242 751 242 739.5 231 c 128,-1,75
 728 220 728 220 699 193 c 128,-1,76
 670 166 670 166 652 155.5 c 128,-1,77
 634 145 634 145 604 127 c 128,-1,78
 574 109 574 109 549.5 102 c 128,-1,79
 525 95 525 95 493.5 88.5 c 128,-1,80
 462 82 462 82 430 82 c 0,81,82
 291 82 291 82 199.5 190.5 c 128,-1,83
 108 299 108 299 108 446 c 0,84,85
 108 610 108 610 220.5 727 c 128,-1,86
 333 844 333 844 496 844 c 0,43,44
EndSplineSet
EndChar
StartChar: notequal
Encoding: 8800 8800 427
Width: 1156
Flags: W
LayerCount: 2
Fore
SplineSet
734 630 m 1,0,-1
 1030 630 l 2,1,2
 1032 630 1032 630 1034.46491521 630.278516835 c 0,3,4
 1046 631 1046 631 1046 620 c 0,5,6
 1046 603 1046 603 1026 530 c 0,7,8
 1024 525 1024 525 1021 522 c 128,-1,9
 1018 519 1018 519 1016 518.5 c 2,10,-1
 1014 518 l 1,11,-1
 670 518 l 1,12,-1
 574 346 l 1,13,-1
 1030 346 l 2,14,15
 1032 346 1032 346 1034.46491521 346.278516835 c 0,16,17
 1046 347 1046 347 1046 336 c 0,18,19
 1046 319 1046 319 1026 246 c 0,20,21
 1024 241 1024 241 1021 238 c 128,-1,22
 1018 235 1018 235 1016 234.5 c 2,23,-1
 1014 234 l 1,24,-1
 512 234 l 1,25,-1
 398 26 l 1,26,27
 398 22 398 22 390 22 c 0,28,29
 385 22 385 22 375.5 25 c 128,-1,30
 366 28 366 28 350 38 c 128,-1,31
 334 48 334 48 322 62 c 1,32,-1
 320 76 l 1,33,-1
 408 234 l 1,34,-1
 124 234 l 2,35,36
 110 234 110 234 110 254 c 128,-1,37
 110 274 110 274 128 336 c 0,38,39
 130 341 130 341 133.5 343.5 c 128,-1,40
 137 346 137 346 139.5 346 c 2,41,-1
 142 346 l 1,42,-1
 470 346 l 1,43,-1
 566 518 l 1,44,-1
 124 518 l 2,45,46
 110 518 110 518 110 538 c 128,-1,47
 110 558 110 558 128 620 c 0,48,49
 130 625 130 625 133.5 627.5 c 128,-1,50
 137 630 137 630 139.5 630 c 2,51,-1
 142 630 l 1,52,-1
 626 630 l 1,53,-1
 728 812 l 1,54,55
 728 818 728 818 736 818 c 0,56,57
 769 818 769 818 800 782 c 0,58,59
 804 778 804 778 805.5 773 c 128,-1,60
 807 768 807 768 806.5 765 c 2,61,-1
 806 762 l 1,62,-1
 734 630 l 1,0,-1
EndSplineSet
EndChar
StartChar: greaterequal
Encoding: 8805 8805 429
Width: 1032
Flags: W
LayerCount: 2
Fore
SplineSet
148 966 m 0,0,1
 148 991 148 991 160.5 1026.5 c 128,-1,2
 173 1062 173 1062 180 1062 c 0,3,4
 182 1062 182 1062 190 1058 c 2,5,-1
 930 684 l 2,6,7
 964 667 964 667 964 636 c 0,8,9
 964 576 964 576 930 558 c 2,10,-1
 180 176 l 2,11,12
 178 175 178 175 175.5 173.5 c 128,-1,13
 173 172 173 172 172 172 c 128,-1,14
 171 172 171 172 169 172 c 128,-1,15
 167 172 167 172 165.5 174 c 128,-1,16
 164 176 164 176 162 180 c 128,-1,17
 160 184 160 184 158 190 c 0,18,19
 136 245 136 245 136 272 c 0,20,21
 136 276 136 276 137.5 279 c 128,-1,22
 139 282 139 282 140.5 283 c 2,23,-1
 142 284 l 1,24,-1
 804 620 l 1,25,-1
 154 950 l 2,26,27
 148 952 148 952 148 966 c 0,0,1
144 30 m 0,28,29
 144 45 144 45 152 84.5 c 128,-1,30
 160 124 160 124 174 124 c 2,31,-1
 940 124 l 2,32,33
 952 124 952 124 952 108 c 0,34,35
 952 77 952 77 936 26 c 0,36,37
 934 21 934 21 930.5 17.5 c 128,-1,38
 927 14 927 14 924.5 13 c 2,39,-1
 922 12 l 1,40,-1
 158 12 l 2,41,42
 156 12 156 12 154 12 c 128,-1,43
 152 12 152 12 148 16.5 c 128,-1,44
 144 21 144 21 144 30 c 0,28,29
EndSplineSet
EndChar
StartChar: propersubset
Encoding: 8834 8834 430
Width: 1016
Flags: W
LayerCount: 2
Fore
SplineSet
886 112 m 2,0,1
 888 112 888 112 890 112 c 128,-1,2
 892 112 892 112 896 108 c 128,-1,3
 900 104 900 104 900 96 c 0,4,5
 900 65 900 65 884 14 c 0,6,7
 882 9 882 9 878.5 5.5 c 128,-1,8
 875 2 875 2 872.5 1 c 2,9,-1
 870 0 l 1,10,-1
 498 0 l 2,11,12
 332 0 332 0 218 121 c 128,-1,13
 104 242 104 242 104 412 c 0,14,15
 104 579 104 579 211 701.5 c 128,-1,16
 318 824 318 824 478 824 c 2,17,-1
 886 822 l 2,18,19
 900 822 900 822 900 804 c 0,20,21
 900 773 900 773 884 722 c 0,22,23
 882 717 882 717 878.5 713.5 c 128,-1,24
 875 710 875 710 872.5 709 c 2,25,-1
 870 708 l 1,26,-1
 478 708 l 2,27,28
 370 708 370 708 303 619.5 c 128,-1,29
 236 531 236 531 236 412 c 0,30,31
 236 292 236 292 309 202 c 128,-1,32
 382 112 382 112 494 112 c 2,33,-1
 886 112 l 2,0,1
EndSplineSet
EndChar
StartChar: Q.alt01
Encoding: 65552 -1 447
Width: 1470
Flags: W
LayerCount: 2
Fore
SplineSet
290 670 m 0,0,1
 290 582 290 582 309.5 496.5 c 128,-1,2
 329 411 329 411 367.5 335 c 128,-1,3
 406 259 406 259 460 201 c 128,-1,4
 514 143 514 143 588.5 109.5 c 128,-1,5
 663 76 663 76 748 76 c 0,6,7
 828 76 828 76 898 108 c 128,-1,8
 968 140 968 140 1018 194.5 c 128,-1,9
 1068 249 1068 249 1104.5 321 c 128,-1,10
 1141 393 1141 393 1158.5 474 c 128,-1,11
 1176 555 1176 555 1176 638 c 0,12,13
 1176 726 1176 726 1157 811 c 128,-1,14
 1138 896 1138 896 1099 971 c 128,-1,15
 1060 1046 1060 1046 1006 1103.5 c 128,-1,16
 952 1161 952 1161 878 1194.5 c 128,-1,17
 804 1228 804 1228 720 1228 c 0,18,19
 620 1228 620 1228 537 1180 c 128,-1,20
 454 1132 454 1132 401 1052.5 c 128,-1,21
 348 973 348 973 319 874 c 128,-1,22
 290 775 290 775 290 670 c 0,0,1
982 32 m 1,23,24
 1092 8 1092 8 1130 -4 c 128,-1,25
 1168 -16 1168 -16 1282 -62 c 0,26,27
 1289 -65 1289 -65 1385 -111 c 128,-1,28
 1481 -157 1481 -157 1577 -199 c 128,-1,29
 1673 -241 1673 -241 1805 -278.5 c 128,-1,30
 1937 -316 1937 -316 2034 -316 c 0,31,32
 2139 -316 2139 -316 2261.5 -286.5 c 128,-1,33
 2384 -257 2384 -257 2428 -238 c 1,34,-1
 2432 -238 l 2,35,36
 2439 -238 2439 -238 2444.5 -254 c 128,-1,37
 2450 -270 2450 -270 2450 -284 c 0,38,39
 2450 -294 2450 -294 2448 -294 c 0,40,41
 2436 -300 2436 -300 2393 -326 c 128,-1,42
 2350 -352 2350 -352 2317.5 -367 c 128,-1,43
 2285 -382 2285 -382 2229 -402 c 128,-1,44
 2173 -422 2173 -422 2100 -432 c 128,-1,45
 2027 -442 2027 -442 1940 -442 c 0,46,47
 1841 -442 1841 -442 1682 -386 c 128,-1,48
 1523 -330 1523 -330 1333.5 -246 c 128,-1,49
 1144 -162 1144 -162 1080 -140 c 0,50,51
 987 -107 987 -107 803 -62.5 c 128,-1,52
 619 -18 619 -18 522 16 c 1,53,54
 335 74 335 74 214.5 254.5 c 128,-1,55
 94 435 94 435 94 656 c 0,56,57
 94 840 94 840 180 996 c 128,-1,58
 266 1152 266 1152 413.5 1243 c 128,-1,59
 561 1334 561 1334 734 1334 c 128,-1,60
 907 1334 907 1334 1054 1243 c 128,-1,61
 1201 1152 1201 1152 1286.5 996 c 128,-1,62
 1372 840 1372 840 1372 656 c 0,63,64
 1372 432 1372 432 1259.5 255.5 c 128,-1,65
 1147 79 1147 79 982 32 c 1,23,24
EndSplineSet
EndChar
StartChar: T_h
Encoding: 65549 -1 444
Width: 2072
Flags: W
LayerCount: 2
Fore
SplineSet
1220 1060 m 2,0,1
 1220 1154 1220 1154 1165 1192 c 128,-1,2
 1110 1230 1110 1230 990 1230 c 0,3,4
 914 1230 914 1230 856 1226 c 128,-1,5
 798 1222 798 1222 769 1215 c 128,-1,6
 740 1208 740 1208 738 1200 c 0,7,8
 720 1137 720 1137 720 1000 c 2,9,-1
 720 278 l 2,10,11
 720 161 720 161 738 92 c 0,12,13
 742 78 742 78 794 65 c 128,-1,14
 846 52 846 52 866 52 c 0,15,16
 874 52 874 52 874 22 c 0,17,18
 874 6 874 6 870 -6 c 1,19,20
 670 4 670 4 638 4 c 0,21,22
 597 4 597 4 560 2.5 c 128,-1,23
 523 1 523 1 476 -2 c 128,-1,24
 429 -5 429 -5 398 -6 c 1,25,26
 390 2 390 2 390 24 c 0,27,28
 390 52 390 52 398 52 c 0,29,30
 424 52 424 52 474.5 64 c 128,-1,31
 525 76 525 76 532 92 c 1,32,33
 546 146 546 146 546 270 c 2,34,-1
 546 994 l 2,35,36
 546 1168 546 1168 528 1200 c 1,37,38
 513 1230 513 1230 312 1230 c 0,39,40
 233 1230 233 1230 192.5 1215.5 c 128,-1,41
 152 1201 152 1201 130 1165.5 c 128,-1,42
 108 1130 108 1130 88 1052 c 0,43,44
 86 1042 86 1042 68 1042 c 0,45,46
 34 1042 34 1042 20 1056 c 1,47,-1
 58 1342 l 1,48,49
 146 1320 146 1320 196 1320 c 0,50,51
 280 1319 280 1319 415 1313.5 c 128,-1,52
 550 1308 550 1308 634 1308 c 0,53,54
 932 1308 932 1308 1074 1320 c 0,55,56
 1124 1324 1124 1324 1194 1341 c 128,-1,57
 1264 1358 1264 1358 1312.5 1373 c 128,-1,58
 1361 1388 1361 1388 1362 1388 c 2,59,-1
 1368 1388 l 2,60,61
 1376 1388 1376 1388 1384 1376.5 c 128,-1,62
 1392 1365 1392 1365 1394 1356 c 1,63,64
 1374 1292 1374 1292 1374 1182 c 2,65,-1
 1374 730 l 2,66,67
 1374 726 1374 726 1380 726 c 0,68,69
 1382 726 1382 726 1386 730 c 0,70,71
 1426 774 1426 774 1509 825 c 128,-1,72
 1592 876 1592 876 1656 876 c 0,73,74
 1721 876 1721 876 1766 859 c 128,-1,75
 1811 842 1811 842 1840 811 c 128,-1,76
 1869 780 1869 780 1885.5 726 c 128,-1,77
 1902 672 1902 672 1908 608 c 128,-1,78
 1914 544 1914 544 1914 452 c 2,79,-1
 1914 232 l 2,80,81
 1914 116 1914 116 1924 84 c 0,82,83
 1928 70 1928 70 1974.5 61 c 128,-1,84
 2021 52 2021 52 2050 52 c 1,85,86
 2056 44 2056 44 2056.5 23 c 128,-1,87
 2057 2 2057 2 2050 -6 c 1,88,89
 1845 4 1845 4 1836 4 c 0,90,91
 1801 4 1801 4 1768.5 2.5 c 128,-1,92
 1736 1 1736 1 1694 -2 c 128,-1,93
 1652 -5 1652 -5 1624 -6 c 1,94,95
 1617 2 1617 2 1617.5 23 c 128,-1,96
 1618 44 1618 44 1624 52 c 1,97,98
 1653 52 1653 52 1699.5 61 c 128,-1,99
 1746 70 1746 70 1750 84 c 0,100,101
 1760 116 1760 116 1760 232 c 2,102,-1
 1760 432 l 2,103,104
 1760 621 1760 621 1719.5 690.5 c 128,-1,105
 1679 760 1679 760 1564 760 c 0,106,107
 1530 760 1530 760 1483.5 736 c 128,-1,108
 1437 712 1437 712 1405.5 686 c 128,-1,109
 1374 660 1374 660 1374 650 c 2,110,-1
 1374 232 l 2,111,112
 1374 116 1374 116 1384 84 c 0,113,114
 1388 70 1388 70 1434.5 61 c 128,-1,115
 1481 52 1481 52 1510 52 c 1,116,117
 1516 44 1516 44 1516.5 23 c 128,-1,118
 1517 2 1517 2 1510 -6 c 1,119,120
 1305 4 1305 4 1296 4 c 0,121,122
 1261 4 1261 4 1228.5 2.5 c 128,-1,123
 1196 1 1196 1 1154 -2 c 128,-1,124
 1112 -5 1112 -5 1084 -6 c 1,125,126
 1077 2 1077 2 1077.5 23 c 128,-1,127
 1078 44 1078 44 1084 52 c 1,128,129
 1113 52 1113 52 1159.5 61 c 128,-1,130
 1206 70 1206 70 1210 84 c 0,131,132
 1220 116 1220 116 1220 232 c 2,133,-1
 1220 1060 l 2,0,1
EndSplineSet
LCarets2: 1 980 
Ligature2: "'liga' Standard Ligatures lookup 0-1" T h
EndChar
StartChar: acutecomb.cap
Encoding: 65565 -1 460
Width: 0
GlyphClass: 4
Flags: W
LayerCount: 2
Fore
SplineSet
-700 1474 m 0,0,1
 -700 1485 -700 1485 -604 1582 c 128,-1,2
 -508 1679 -508 1679 -458 1716 c 1,3,4
 -446 1722 -446 1722 -422 1722 c 0,5,6
 -330 1722 -330 1722 -330 1662 c 0,7,8
 -330 1630 -330 1630 -413 1579 c 128,-1,9
 -496 1528 -496 1528 -582 1492 c 128,-1,10
 -668 1456 -668 1456 -688 1456 c 0,11,12
 -692 1456 -692 1456 -696 1462.5 c 128,-1,13
 -700 1469 -700 1469 -700 1474 c 0,0,1
EndSplineSet
EndChar
StartChar: ae.sc
Encoding: 65635 -1 787
Width: 1884
Flags: W
LayerCount: 2
Fore
SplineSet
990 -6 m 1,0,1
 882 2 882 2 792 2 c 128,-1,2
 702 2 702 2 578 -6 c 1,3,4
 572 0 572 0 573 23 c 128,-1,5
 574 46 574 46 580 52 c 1,6,7
 599 52 599 52 639.5 56.5 c 128,-1,8
 680 61 680 61 688 68 c 0,9,10
 694 74 694 74 694 86 c 0,11,12
 694 103 694 103 671.5 163.5 c 128,-1,13
 649 224 649 224 626.5 276 c 2,14,-1
 604 328 l 1,15,16
 600 332 600 332 596 332 c 0,17,18
 578 334 578 334 462 334 c 0,19,20
 386 334 386 334 324 328 c 1,21,-1
 320 326 l 1,22,23
 282 232 282 232 260 172 c 128,-1,24
 238 112 238 112 238 88 c 0,25,26
 238 69 238 69 279.5 60.5 c 128,-1,27
 321 52 321 52 346 52 c 1,28,29
 350 48 350 48 350.5 24.5 c 128,-1,30
 351 1 351 1 348 -6 c 1,31,32
 240 2 240 2 192 2 c 0,33,34
 138 2 138 2 14 -6 c 1,35,36
 10 -2 10 -2 10 20.5 c 128,-1,37
 10 43 10 43 14 52 c 1,38,39
 34 52 34 52 70.5 59 c 128,-1,40
 107 66 107 66 116 78 c 0,41,42
 146 117 146 117 180 198 c 0,43,44
 360 628 360 628 444 838 c 0,45,46
 450 853 450 853 485 878.5 c 128,-1,47
 520 904 520 904 530 904 c 0,48,49
 532 904 532 904 535.5 901.5 c 128,-1,50
 539 899 539 899 540 898 c 0,51,52
 840 124 840 124 852 98 c 0,53,54
 861 78 861 78 914 65 c 128,-1,55
 967 52 967 52 988 52 c 1,56,57
 993 40 993 40 992.5 20.5 c 128,-1,58
 992 1 992 1 990 -6 c 1,0,1
352 414 m 0,59,60
 424 410 424 410 460 410 c 0,61,62
 509 410 509 410 572 416 c 1,63,-1
 574 420 l 1,64,-1
 464 702 l 1,65,-1
 348 418 l 1,66,67
 350 414 350 414 352 414 c 0,59,60
1224 892 m 0,68,69
 1292 892 1292 892 1454 899 c 128,-1,70
 1616 906 1616 906 1698 906 c 1,71,72
 1705 864 1705 864 1725.5 794.5 c 128,-1,73
 1746 725 1746 725 1750 710 c 1,74,75
 1741 704 1741 704 1720 704 c 0,76,77
 1693 704 1693 704 1690 712 c 0,78,79
 1669 782 1669 782 1629.5 805 c 128,-1,80
 1590 828 1590 828 1526 828 c 2,81,-1
 1408 828 l 2,82,83
 1317 828 1317 828 1312 814 c 0,84,85
 1304 794 1304 794 1304 722 c 2,86,-1
 1304 484 l 2,87,88
 1304 476 1304 476 1364 476 c 2,89,-1
 1436 476 l 2,90,91
 1500 476 1500 476 1525 482 c 128,-1,92
 1550 488 1550 488 1559.5 501.5 c 128,-1,93
 1569 515 1569 515 1580.03780577 557.26940973 c 0,94,95
 1583 567 1583 567 1584 572 c 0,96,97
 1587 582 1587 582 1610 582 c 0,98,99
 1630 582 1630 582 1640 572 c 1,100,-1
 1640 310 l 1,101,102
 1632 306 1632 306 1612 306 c 0,103,104
 1591 306 1591 306 1584 316 c 1,105,106
 1574 350 1574 350 1567.5 367 c 128,-1,107
 1561 384 1561 384 1557 388.5 c 128,-1,108
 1553 393 1553 393 1546 398 c 0,109,110
 1528 408 1528 408 1402 408 c 0,111,112
 1304 408 1304 408 1304 396 c 2,113,-1
 1304 164 l 2,114,115
 1304 86 1304 86 1314 78 c 1,116,117
 1327 70 1327 70 1345.5 68 c 128,-1,118
 1364 66 1364 66 1414 66 c 2,119,-1
 1484 66 l 2,120,121
 1605 66 1605 66 1660 96 c 1,122,123
 1692 112 1692 112 1712 142 c 128,-1,124
 1732 172 1732 172 1752 222 c 0,125,126
 1755 228 1755 228 1776 228 c 0,127,128
 1806 228 1806 228 1812 222 c 1,129,130
 1806 205 1806 205 1790 164.5 c 128,-1,131
 1774 124 1774 124 1764.5 100 c 128,-1,132
 1755 76 1755 76 1745 44.5 c 128,-1,133
 1735 13 1735 13 1732 -8 c 1,134,135
 1656 -8 1656 -8 1492.5 -4 c 128,-1,136
 1329 0 1329 0 1224 0 c 0,137,138
 1188 0 1188 0 1125 -3 c 128,-1,139
 1062 -6 1062 -6 1034 -6 c 1,140,141
 1028 0 1028 0 1028 23 c 128,-1,142
 1028 46 1028 46 1034 52 c 1,143,144
 1055 52 1055 52 1098 58.5 c 128,-1,145
 1141 65 1141 65 1144 74 c 0,146,147
 1150 96 1150 96 1150 172 c 2,148,-1
 1150 724 l 2,149,150
 1150 800 1150 800 1144 822 c 0,151,152
 1141 831 1141 831 1098 837.5 c 128,-1,153
 1055 844 1055 844 1034 844 c 1,154,155
 1028 850 1028 850 1028 873 c 128,-1,156
 1028 896 1028 896 1034 902 c 1,157,158
 1184 892 1184 892 1224 892 c 0,68,69
EndSplineSet
EndChar
StartChar: ampersand.sc
Encoding: 65581 -1 733
Width: 1032
VWidth: 2128
Flags: W
LayerCount: 2
Fore
SplineSet
594 144 m 1,0,1
 558 181 558 181 505 248 c 128,-1,2
 452 315 452 315 417 363.5 c 2,3,-1
 382 412 l 1,4,5
 248 334 248 334 248 248 c 0,6,7
 248 160 248 160 301 116 c 128,-1,8
 354 72 354 72 432 72 c 0,9,10
 472 72 472 72 517.5 92 c 128,-1,11
 563 112 563 112 594 144 c 1,0,1
486 830 m 0,12,13
 452 830 452 830 421 801 c 128,-1,14
 390 772 390 772 390 730 c 0,15,16
 390 689 390 689 401 650.5 c 128,-1,17
 412 612 412 612 422.5 591.5 c 128,-1,18
 433 571 433 571 460 522 c 1,19,20
 513 557 513 557 537.5 604.5 c 128,-1,21
 562 652 562 652 562 726 c 0,22,23
 562 770 562 770 540.5 800 c 128,-1,24
 519 830 519 830 486 830 c 0,12,13
478 894 m 0,25,26
 569 894 569 894 626.5 850.5 c 128,-1,27
 684 807 684 807 684 734 c 0,28,29
 684 651 684 651 631.5 590.5 c 128,-1,30
 579 530 579 530 486 472 c 1,31,32
 506 438 506 438 532 403 c 128,-1,33
 558 368 558 368 576.5 346.5 c 128,-1,34
 595 325 595 325 629.5 286.5 c 128,-1,35
 664 248 664 248 678 232 c 1,36,37
 752 342 752 342 752 364 c 0,38,39
 752 380 752 380 737.5 385 c 128,-1,40
 723 390 723 390 709.5 387 c 128,-1,41
 696 384 696 384 690 388 c 1,42,43
 685 395 685 395 685.5 413.5 c 128,-1,44
 686 432 686 432 692 436 c 1,45,-1
 800 436 l 2,46,47
 826 436 826 436 950 444 c 1,48,49
 956 438 956 438 956 422 c 0,50,51
 956 412 956 412 953.5 400 c 128,-1,52
 951 388 951 388 948 388 c 0,53,54
 929 388 929 388 896.5 380.5 c 128,-1,55
 864 373 864 373 854 366 c 0,56,57
 852 365 852 365 836 341.5 c 128,-1,58
 820 318 820 318 787 275 c 128,-1,59
 754 232 754 232 718 192 c 1,60,61
 797.506042776 115.058668282 797.506042776 115.058668282 819.462395685 100.86841034 c 0,62,63
 839.373475523 88 839.373475523 88 854 88 c 0,64,65
 873 88 873 88 895.5 109.5 c 128,-1,66
 918 131 918 131 924 146 c 1,67,68
 934 146 934 146 948 137 c 128,-1,69
 962 128 962 128 962 122 c 1,70,71
 958 112 958 112 947.5 96.5 c 128,-1,72
 937 81 937 81 917 56.5 c 128,-1,73
 897 32 897 32 864 16 c 128,-1,74
 831 0 831 0 794 0 c 0,75,76
 765 0 765 0 726.5 25.5 c 128,-1,77
 688 51 688 51 664 76.5 c 2,78,-1
 640 102 l 1,79,80
 590 52 590 52 518 23 c 128,-1,81
 446 -6 446 -6 374 -6 c 0,82,83
 247 -6 247 -6 171.5 53 c 128,-1,84
 96 112 96 112 96 216 c 0,85,86
 96 308 96 308 158.5 365.5 c 128,-1,87
 221 423 221 423 344 474 c 1,88,89
 260 582 260 582 260 710 c 0,90,91
 260 786 260 786 325.5 840 c 128,-1,92
 391 894 391 894 478 894 c 0,25,26
EndSplineSet
EndChar
StartChar: asciitilde.sc
Encoding: 65626 -1 778
Width: 906
Flags: W
LayerCount: 2
Fore
SplineSet
594 328 m 0,0,1
 529 328 529 328 438 368 c 128,-1,2
 347 408 347 408 282 408 c 0,3,4
 273 408 273 408 264.5 407 c 128,-1,5
 256 406 256 406 247.5 403 c 128,-1,6
 239 400 239 400 232.5 398 c 128,-1,7
 226 396 226 396 216.5 391 c 128,-1,8
 207 386 207 386 202.5 383.5 c 128,-1,9
 198 381 198 381 188 374 c 128,-1,10
 178 367 178 367 175 364.5 c 128,-1,11
 172 362 172 362 161 354 c 128,-1,12
 150 346 150 346 148 344 c 1,13,14
 136 350 136 350 136 370 c 0,15,16
 136 403 136 403 183.5 447.5 c 128,-1,17
 231 492 231 492 312 492 c 0,18,19
 376 492 376 492 468 452 c 128,-1,20
 560 412 560 412 624 412 c 0,21,22
 635 412 635 412 645.5 413.5 c 128,-1,23
 656 415 656 415 667 419.5 c 128,-1,24
 678 424 678 424 685.5 427 c 128,-1,25
 693 430 693 430 705 438.5 c 128,-1,26
 717 447 717 447 721.5 450 c 128,-1,27
 726 453 726 453 739.5 463.5 c 128,-1,28
 753 474 753 474 756 476 c 1,29,30
 768 470 768 470 768 450 c 0,31,32
 768 417 768 417 721 372.5 c 128,-1,33
 674 328 674 328 594 328 c 0,0,1
EndSplineSet
EndChar
StartChar: at.sc
Encoding: 65592 -1 744
Width: 1138
Flags: W
LayerCount: 2
Fore
SplineSet
654 902 m 0,0,1
 754 902 754 902 832.5 867 c 128,-1,2
 911 832 911 832 958 772.5 c 128,-1,3
 1005 713 1005 713 1029.5 639.5 c 128,-1,4
 1054 566 1054 566 1054 484 c 0,5,6
 1054 327 1054 327 969 216.5 c 128,-1,7
 884 106 884 106 764 106 c 0,8,9
 743 106 743 106 723 111 c 128,-1,10
 703 116 703 116 681.5 127.5 c 128,-1,11
 660 139 660 139 647 163.5 c 128,-1,12
 634 188 634 188 634 222 c 0,13,14
 634 270 634 270 646 294 c 1,15,16
 617 235 617 235 558.5 172.5 c 128,-1,17
 500 110 500 110 444 110 c 0,18,19
 380 110 380 110 340 164.5 c 128,-1,20
 300 219 300 219 300 294 c 0,21,22
 300 390 300 390 370.5 489 c 128,-1,23
 441 588 441 588 544 650 c 128,-1,24
 647 712 647 712 740 712 c 0,25,26
 802 712 802 712 858 688 c 1,27,-1
 762 256 l 1,28,29
 758 248 758 248 758 230 c 0,30,31
 758 205 758 205 773.5 190.5 c 128,-1,32
 789 176 789 176 812 176 c 0,33,34
 869 176 869 176 926.5 271 c 128,-1,35
 984 366 984 366 984 482 c 0,36,37
 984 550 984 550 965 611 c 128,-1,38
 946 672 946 672 907.5 722.5 c 128,-1,39
 869 773 869 773 803 802.5 c 128,-1,40
 737 832 737 832 652 832 c 0,41,42
 551 832 551 832 459 787.5 c 128,-1,43
 367 743 367 743 303.5 673 c 128,-1,44
 240 603 240 603 202 515 c 128,-1,45
 164 427 164 427 164 340 c 0,46,47
 164 231 164 231 221.5 148 c 128,-1,48
 279 65 279 65 366 18 c 0,49,50
 423 -13 423 -13 474 -20 c 1,51,52
 474 -30 474 -30 454 -41 c 128,-1,53
 434 -52 434 -52 420 -52 c 0,54,55
 387 -52 387 -52 362 -42 c 1,56,57
 253 -5 253 -5 173.5 101 c 128,-1,58
 94 207 94 207 94 344 c 0,59,60
 94 444 94 444 136.5 543.5 c 128,-1,61
 179 643 179 643 251 722.5 c 128,-1,62
 323 802 323 802 429.5 852 c 128,-1,63
 536 902 536 902 654 902 c 0,0,1
662 630 m 3,64,65
 574 630 574 630 506 537 c 128,-1,66
 438 444 438 444 438 334 c 0,67,68
 438 212 438 212 504 212 c 0,69,70
 550 212 550 212 618 335 c 128,-1,71
 686 458 686 458 706 554 c 1,72,-1
 718 618 l 1,73,74
 704 630 704 630 662 630 c 3,64,65
EndSplineSet
EndChar
StartChar: b.sc
Encoding: 65594 -1 746
Width: 972
Flags: W
LayerCount: 2
Fore
SplineSet
498 896 m 0,0,1
 554 896 554 896 603.5 886 c 128,-1,2
 653 876 653 876 698 854 c 128,-1,3
 743 832 743 832 769.5 791.5 c 128,-1,4
 796 751 796 751 796 696 c 0,5,6
 796 627 796 627 738.5 575.5 c 128,-1,7
 681 524 681 524 622 506 c 1,8,9
 615 502 615 502 622 500 c 1,10,11
 668 499 668 499 726.5 471.5 c 128,-1,12
 785 444 785 444 832.5 389.5 c 128,-1,13
 880 335 880 335 880 272 c 0,14,15
 880 215 880 215 845.5 155.5 c 128,-1,16
 811 96 811 96 760 62 c 0,17,18
 659 -3 659 -3 460 -6 c 1,19,-1
 100 -6 l 1,20,21
 94 0 94 0 94 23 c 128,-1,22
 94 46 94 46 100 52 c 1,23,24
 122 52 122 52 161.5 57.5 c 128,-1,25
 201 63 201 63 204 72 c 0,26,27
 212 101 212 101 212 170 c 2,28,-1
 212 724 l 2,29,30
 212 793 212 793 204 822 c 0,31,32
 201 831 201 831 160.5 837.5 c 128,-1,33
 120 844 120 844 100 844 c 1,34,35
 94 850 94 850 94 873 c 128,-1,36
 94 896 94 896 100 902 c 1,37,38
 250 892 250 892 286 892 c 0,39,40
 311 892 311 892 380.5 894 c 128,-1,41
 450 896 450 896 498 896 c 0,0,1
366 512 m 1,42,-1
 496 512 l 2,43,44
 561 512 561 512 597.5 555.5 c 128,-1,45
 634 599 634 599 634 658 c 0,46,47
 634 742 634 742 581.5 788 c 128,-1,48
 529 834 529 834 438 834 c 0,49,50
 380 834 380 834 374 822 c 1,51,52
 366 801 366 801 366 726 c 2,53,-1
 366 512 l 1,42,-1
366 442 m 1,54,-1
 366 166 l 2,55,56
 366 90 366 90 378 80 c 1,57,58
 402 56 402 56 486 56 c 0,59,60
 702 56 702 56 702 240 c 0,61,62
 702 442 702 442 450 442 c 2,63,-1
 366 442 l 1,54,-1
EndSplineSet
EndChar
StartChar: backslash.sc
Encoding: 65620 -1 772
Width: 618
Flags: W
LayerCount: 2
Fore
SplineSet
58 974 m 1,0,1
 82 982 82 982 90 982 c 0,2,3
 101 982 101 982 108.5 981 c 128,-1,4
 116 980 116 980 120.5 979 c 128,-1,5
 125 978 125 978 129 974 c 128,-1,6
 133 970 133 970 134 969 c 128,-1,7
 135 968 135 968 138 961 c 128,-1,8
 141 954 141 954 142 952 c 2,9,-1
 548 -54 l 1,10,11
 542 -106 542 -106 516 -106 c 0,12,13
 498 -106 498 -106 492 -92 c 2,14,-1
 58 974 l 1,0,1
EndSplineSet
EndChar
StartChar: bar.sc
Encoding: 65624 -1 776
Width: 452
Flags: W
LayerCount: 2
Fore
SplineSet
264 -146 m 2,0,1
 264 -152 264 -152 233.5 -161 c 128,-1,2
 203 -170 203 -170 196 -170 c 0,3,4
 188 -170 188 -170 187.915761263 -160.607530887 c 0,5,6
 188 -159 188 -159 188 -158 c 2,7,-1
 188 1030 l 2,8,9
 188 1038 188 1038 196 1040 c 0,10,11
 239 1050 239 1050 250 1050 c 0,12,13
 256 1050 256 1050 259 1048 c 128,-1,14
 262 1046 262 1046 262 1044 c 2,15,-1
 262 1042 l 1,16,-1
 264 -146 l 2,0,1
EndSplineSet
EndChar
StartChar: braceleft.sc
Encoding: 65623 -1 775
Width: 476
VWidth: 2088
Flags: W
LayerCount: 2
Fore
SplineSet
96 442 m 1,0,1
 224 470 224 470 224 558 c 0,2,3
 224 591 224 591 182 662 c 1,4,5
 146.335231164 726.196583905 146.335231164 726.196583905 141.55095495 756.530398017 c 0,6,7
 140 766.363939609 140 766.363939609 140 776 c 0,8,9
 140 867 140 867 203 934.5 c 128,-1,10
 266 1002 266 1002 338 1024 c 1,11,12
 348 1024 348 1024 358 1015.5 c 128,-1,13
 368 1007 368 1007 368 998 c 1,14,15
 321 981 321 981 271.5 936 c 128,-1,16
 222 891 222 891 222 844 c 0,17,18
 222 829 222 829 224 816 c 128,-1,19
 226 803 226 803 232.5 786.5 c 128,-1,20
 239 770 239 770 241 765 c 128,-1,21
 243 760 243 760 254.5 739 c 2,22,-1
 266 718 l 2,23,24
 281 692 281 692 287.5 680 c 128,-1,25
 294 668 294 668 302 642 c 128,-1,26
 310 616 310 616 310 590 c 0,27,28
 310 530 310 530 265 486 c 128,-1,29
 220 442 220 442 174 428 c 1,30,31
 221 414 221 414 265.5 371 c 128,-1,32
 310 328 310 328 310 268 c 0,33,34
 310 215 310 215 266 140 c 0,35,36
 264 136 264 136 256 121.5 c 128,-1,37
 248 107 248 107 245 101.5 c 128,-1,38
 242 96 242 96 236.5 83 c 128,-1,39
 231 70 231 70 228.5 61 c 128,-1,40
 226 52 226 52 224 39.5 c 128,-1,41
 222 27 222 27 222 14 c 0,42,43
 222 -33 222 -33 271 -77 c 128,-1,44
 320 -121 320 -121 368 -138 c 1,45,46
 368 -147 368 -147 358 -155.5 c 128,-1,47
 348 -164 348 -164 338 -164 c 1,48,49
 265 -142 265 -142 202.5 -76.5 c 128,-1,50
 140 -11 140 -11 140 80 c 0,51,52
 140 99 140 99 148 122.5 c 128,-1,53
 156 146 156 146 161 155.5 c 128,-1,54
 166 165 166 165 182 194 c 0,55,56
 224 265 224 265 224 298 c 0,57,58
 224 384 224 384 96 412 c 1,59,60
 92 416 92 416 92 427 c 128,-1,61
 92 438 92 438 96 442 c 1,0,1
EndSplineSet
EndChar
StartChar: c.sc
Encoding: 65595 -1 747
Width: 1036
Flags: W
LayerCount: 2
Fore
SplineSet
582 910 m 0,0,1
 741 910 741 910 888 872 c 1,2,3
 926 682 926 682 926 668 c 0,4,5
 926 652 926 652 896 652 c 0,6,7
 869 652 869 652 866 658 c 1,8,9
 863 675 863 675 856.5 693 c 128,-1,10
 850 711 850 711 831.5 740 c 128,-1,11
 813 769 813 769 787 790.5 c 128,-1,12
 761 812 761 812 714.5 828 c 128,-1,13
 668 844 668 844 610 844 c 0,14,15
 462 844 462 844 366 730.5 c 128,-1,16
 270 617 270 617 270 466 c 0,17,18
 270 282 270 282 364 169 c 128,-1,19
 458 56 458 56 630 56 c 0,20,21
 693 56 693 56 742.5 77.5 c 128,-1,22
 792 99 792 99 820.5 134 c 128,-1,23
 849 169 849 169 865 201 c 128,-1,24
 881 233 881 233 888 266 c 1,25,26
 899 266 899 266 913.5 263.5 c 128,-1,27
 928 261 928 261 937 258.5 c 2,28,-1
 946 256 l 1,29,30
 946 231 946 231 927.5 155 c 128,-1,31
 909 79 909 79 894 66 c 1,32,33
 780 -10 780 -10 578 -10 c 0,34,35
 473 -10 473 -10 382.5 26 c 128,-1,36
 292 62 292 62 230 123 c 128,-1,37
 168 184 168 184 133 266 c 128,-1,38
 98 348 98 348 98 438 c 0,39,40
 98 633 98 633 236 771.5 c 128,-1,41
 374 910 374 910 582 910 c 0,0,1
EndSplineSet
EndChar
StartChar: colon.sc
Encoding: 65586 -1 738
Width: 494
Flags: W
LayerCount: 2
Fore
SplineSet
136 90 m 128,-1,1
 136 135 136 135 169.5 166.5 c 128,-1,2
 203 198 203 198 248 198 c 128,-1,3
 293 198 293 198 324.5 166.5 c 128,-1,4
 356 135 356 135 356 90 c 128,-1,5
 356 45 356 45 324.5 11.5 c 128,-1,6
 293 -22 293 -22 248 -22 c 128,-1,7
 203 -22 203 -22 169.5 11.5 c 128,-1,0
 136 45 136 45 136 90 c 128,-1,1
136 754 m 128,-1,9
 136 799 136 799 169.5 830.5 c 128,-1,10
 203 862 203 862 248 862 c 128,-1,11
 293 862 293 862 324.5 830.5 c 128,-1,12
 356 799 356 799 356 754 c 128,-1,13
 356 709 356 709 324.5 675.5 c 128,-1,14
 293 642 293 642 248 642 c 128,-1,15
 203 642 203 642 169.5 675.5 c 128,-1,8
 136 709 136 709 136 754 c 128,-1,9
EndSplineSet
EndChar
StartChar: comma.sc
Encoding: 65761 -1 937
Width: 416
VWidth: 0
Flags: W
LayerCount: 2
Fore
SplineSet
216 220 m 0,0,1
 240 220 240 220 258 208 c 1,2,3
 290 149 290 149 290 84 c 0,4,5
 290 9 290 9 226.5 -99.5 c 128,-1,6
 163 -208 163 -208 100 -246 c 1,7,8
 93 -246 93 -246 86.5 -231.5 c 128,-1,9
 80 -217 80 -217 80 -208 c 1,10,11
 166 -128 166 -128 166 -12 c 0,12,13
 166 16 166 16 143 56 c 128,-1,14
 120 96 120 96 120 132 c 0,15,16
 120 163 120 163 147.5 191.5 c 128,-1,17
 175 220 175 220 216 220 c 0,0,1
EndSplineSet
EndChar
StartChar: e.sc
Encoding: 65597 -1 749
Width: 946
Flags: W
LayerCount: 2
Fore
SplineSet
286 892 m 0,0,1
 354 892 354 892 516 899 c 128,-1,2
 678 906 678 906 760 906 c 1,3,4
 767 864 767 864 787.5 794.5 c 128,-1,5
 808 725 808 725 812 710 c 1,6,7
 803 704 803 704 782 704 c 0,8,9
 755 704 755 704 752 712 c 0,10,11
 731 782 731 782 691.5 805 c 128,-1,12
 652 828 652 828 588 828 c 2,13,-1
 470 828 l 2,14,15
 379 828 379 828 374 814 c 0,16,17
 366 794 366 794 366 722 c 2,18,-1
 366 484 l 2,19,20
 366 476 366 476 426 476 c 2,21,-1
 498 476 l 2,22,23
 562 476 562 476 587 482 c 128,-1,24
 612 488 612 488 621.5 501.5 c 128,-1,25
 631 515 631 515 642.037805767 557.26940973 c 0,26,27
 645 567 645 567 646 572 c 0,28,29
 649 582 649 582 672 582 c 0,30,31
 692 582 692 582 702 572 c 1,32,-1
 702 310 l 1,33,34
 694 306 694 306 674 306 c 0,35,36
 653 306 653 306 646 316 c 1,37,38
 636 350 636 350 629.5 367 c 128,-1,39
 623 384 623 384 619 388.5 c 128,-1,40
 615 393 615 393 608 398 c 0,41,42
 590 408 590 408 464 408 c 0,43,44
 366 408 366 408 366 396 c 2,45,-1
 366 164 l 2,46,47
 366 86 366 86 376 78 c 1,48,49
 389 70 389 70 407.5 68 c 128,-1,50
 426 66 426 66 476 66 c 2,51,-1
 546 66 l 2,52,53
 667 66 667 66 722 96 c 1,54,55
 754 112 754 112 774 142 c 128,-1,56
 794 172 794 172 814 222 c 0,57,58
 817 228 817 228 838 228 c 0,59,60
 868 228 868 228 874 222 c 1,61,62
 868 205 868 205 852 164.5 c 128,-1,63
 836 124 836 124 826.5 100 c 128,-1,64
 817 76 817 76 807 44.5 c 128,-1,65
 797 13 797 13 794 -8 c 1,66,67
 718 -8 718 -8 554.5 -4 c 128,-1,68
 391 0 391 0 286 0 c 0,69,70
 250 0 250 0 187 -3 c 128,-1,71
 124 -6 124 -6 96 -6 c 1,72,73
 90 0 90 0 90 23 c 128,-1,74
 90 46 90 46 96 52 c 1,75,76
 117 52 117 52 160 58.5 c 128,-1,77
 203 65 203 65 206 74 c 0,78,79
 212 96 212 96 212 172 c 2,80,-1
 212 724 l 2,81,82
 212 800 212 800 206 822 c 0,83,84
 203 831 203 831 160 837.5 c 128,-1,85
 117 844 117 844 96 844 c 1,86,87
 90 850 90 850 90 873 c 128,-1,88
 90 896 90 896 96 902 c 1,89,90
 246 892 246 892 286 892 c 0,0,1
EndSplineSet
EndChar
StartChar: eight.ordn
Encoding: 65749 -1 901
Width: 754
Flags: W
LayerCount: 2
Fore
SplineSet
150 1170 m 0,0,1
 150 1262 150 1262 220.5 1325 c 128,-1,2
 291 1388 291 1388 382 1388 c 0,3,4
 478 1388 478 1388 544 1333 c 128,-1,5
 610 1278 610 1278 610 1184 c 0,6,7
 610 1122 610 1122 563 1069.5 c 128,-1,8
 516 1017 516 1017 458 984 c 1,9,10
 453 980 453 980 452.5 980 c 128,-1,11
 452 980 452 980 456 976 c 1,12,13
 508 945 508 945 544 916 c 128,-1,14
 580 887 580 887 609 839.5 c 128,-1,15
 638 792 638 792 638 740 c 0,16,17
 638 637 638 637 558.5 571.5 c 128,-1,18
 479 506 479 506 370 506 c 0,19,20
 262 506 262 506 188 562 c 128,-1,21
 114 618 114 618 114 714 c 0,22,23
 114 770 114 770 145 820 c 128,-1,24
 176 870 176 870 211.5 898 c 128,-1,25
 247 926 247 926 288 948 c 0,26,27
 296 952 296 952 288 956 c 0,28,29
 150 1044 150 1044 150 1170 c 0,0,1
266 1190 m 0,30,31
 266 1130 266 1130 307 1085.5 c 128,-1,32
 348 1041 348 1041 400 1016 c 0,33,34
 402 1014 402 1014 404 1014 c 0,35,36
 410 1014 410 1014 414 1018 c 0,37,38
 496 1083 496 1083 496 1176 c 0,39,40
 496 1238 496 1238 465.5 1286 c 128,-1,41
 435 1334 435 1334 376 1334 c 0,42,43
 329 1334 329 1334 297.5 1297 c 128,-1,44
 266 1260 266 1260 266 1190 c 0,30,31
238 726 m 0,45,46
 238 653 238 653 280.5 607.5 c 128,-1,47
 323 562 323 562 382 562 c 0,48,49
 443 562 443 562 477.5 597.5 c 128,-1,50
 512 633 512 633 512 698 c 0,51,52
 512 717 512 717 508 735 c 128,-1,53
 504 753 504 753 497 768 c 128,-1,54
 490 783 490 783 480 798 c 128,-1,55
 470 813 470 813 460 824 c 128,-1,56
 450 835 450 835 437 846.5 c 128,-1,57
 424 858 424 858 414 866 c 128,-1,58
 404 874 404 874 391 882.5 c 128,-1,59
 378 891 378 891 371 895 c 128,-1,60
 364 899 364 899 354.5 904 c 128,-1,61
 345 909 345 909 344 910 c 0,62,63
 340 912 340 912 336 912 c 0,64,65
 334 912 334 912 332 910 c 0,66,67
 238 847 238 847 238 726 c 0,45,46
EndSplineSet
EndChar
StartChar: eng.sc
Encoding: 65700 -1 852
Width: 1194
Flags: W
LayerCount: 2
Fore
SplineSet
885 65 m 1,0,-1
 307 740 l 1,1,-1
 307 170 l 2,2,3
 307 164 307 164 307 153 c 128,-1,4
 307 142 307 142 307 138 c 128,-1,5
 307 134 307 134 307 126 c 128,-1,6
 307 118 307 118 307.5 114 c 128,-1,7
 308 110 308 110 309 104 c 128,-1,8
 310 98 310 98 311.5 94.5 c 128,-1,9
 313 91 313 91 314.5 86.5 c 128,-1,10
 316 82 316 82 319 78 c 0,11,12
 324 69 324 69 367.5 60.5 c 128,-1,13
 411 52 411 52 433 52 c 1,14,15
 438 44 438 44 438 23.5 c 128,-1,16
 438 3 438 3 435 -6 c 1,17,18
 319 2 319 2 259 2 c 0,19,20
 223 2 223 2 91 -6 c 1,21,22
 86 0 86 0 85.5 18.5 c 128,-1,23
 85 37 85 37 91 52 c 1,24,25
 111 52 111 52 156 60 c 128,-1,26
 201 68 201 68 207 78 c 0,27,28
 219 98 219 98 219 168 c 2,29,-1
 219 732 l 2,30,31
 219 802 219 802 207 822 c 0,32,33
 200 832 200 832 155 841 c 128,-1,34
 110 850 110 850 91 850 c 1,35,36
 85 865 85 865 85.5 883.5 c 128,-1,37
 86 902 86 902 91 908 c 1,38,39
 116 907 116 907 150.5 904 c 128,-1,40
 185 901 185 901 209.5 899.5 c 128,-1,41
 234 898 234 898 255 898 c 0,42,43
 329 898 329 898 369 902 c 1,44,45
 400 854 400 854 492.5 745.5 c 128,-1,46
 585 637 585 637 721 483 c 128,-1,47
 857 329 857 329 903 276 c 1,48,-1
 903 728 l 2,49,50
 903 795 903 795 887 820 c 0,51,52
 882 829 882 829 839.5 837.5 c 128,-1,53
 797 846 797 846 775 846 c 1,54,55
 770 854 770 854 770 874.5 c 128,-1,56
 770 895 770 895 773 904 c 1,57,58
 889 896 889 896 947 896 c 0,59,60
 987 896 987 896 1119 904 c 1,61,62
 1124 898 1124 898 1124.5 879.5 c 128,-1,63
 1125 861 1125 861 1119 846 c 1,64,65
 1099 846 1099 846 1054 838 c 128,-1,66
 1009 830 1009 830 1003 820 c 0,67,68
 991 800 991 800 991 728 c 2,69,-1
 991 152 l 2,70,71
 991 -59 991 -59 897 -184.5 c 128,-1,72
 803 -310 803 -310 643 -310 c 0,73,74
 621 -310 621 -310 593.5 -300 c 128,-1,75
 566 -290 566 -290 551 -278 c 1,76,77
 539 -262 539 -262 539 -244 c 0,78,79
 539 -208 539 -208 558 -185 c 128,-1,80
 577 -162 577 -162 609 -162 c 0,81,82
 633 -162 633 -162 673 -198 c 0,83,84
 705 -226 705 -226 729 -226 c 0,85,86
 742 -226 742 -226 758 -218.5 c 128,-1,87
 774 -211 774 -211 794.5 -190.5 c 128,-1,88
 815 -170 815 -170 832 -139 c 128,-1,89
 849 -108 849 -108 864 -55 c 128,-1,90
 879 -2 879 -2 885 65 c 1,0,-1
EndSplineSet
EndChar
StartChar: eogonek.sc
Encoding: 65674 -1 826
Width: 944
Flags: W
LayerCount: 2
Fore
SplineSet
286 892 m 0,0,1
 354 892 354 892 516 899 c 128,-1,2
 678 906 678 906 760 906 c 1,3,4
 767 864 767 864 787.5 794.5 c 128,-1,5
 808 725 808 725 812 710 c 1,6,7
 803 704 803 704 782 704 c 0,8,9
 755 704 755 704 752 712 c 0,10,11
 731 782 731 782 691.5 805 c 128,-1,12
 652 828 652 828 588 828 c 2,13,-1
 470 828 l 2,14,15
 379 828 379 828 374 814 c 0,16,17
 366 794 366 794 366 722 c 2,18,-1
 366 484 l 2,19,20
 366 476 366 476 426 476 c 2,21,-1
 498 476 l 2,22,23
 562 476 562 476 587 482 c 128,-1,24
 612 488 612 488 621.5 501.5 c 128,-1,25
 631 515 631 515 642.037805767 557.26940973 c 0,26,27
 645 567 645 567 646 572 c 0,28,29
 649 582 649 582 672 582 c 0,30,31
 692 582 692 582 702 572 c 1,32,-1
 702 310 l 1,33,34
 694 306 694 306 674 306 c 0,35,36
 653 306 653 306 646 316 c 1,37,38
 636 350 636 350 629.5 367 c 128,-1,39
 623 384 623 384 619 388.5 c 128,-1,40
 615 393 615 393 608 398 c 0,41,42
 590 408 590 408 464 408 c 0,43,44
 366 408 366 408 366 396 c 2,45,-1
 366 164 l 2,46,47
 366 86 366 86 376 78 c 1,48,49
 389 70 389 70 407.5 68 c 128,-1,50
 426 66 426 66 476 66 c 2,51,-1
 546 66 l 2,52,53
 667 66 667 66 722 96 c 1,54,55
 754 112 754 112 774 142 c 128,-1,56
 794 172 794 172 814 222 c 0,57,58
 817 228 817 228 838 228 c 0,59,60
 868 228 868 228 874 222 c 1,61,62
 868 205 868 205 852 164.5 c 128,-1,63
 836 124 836 124 826.5 100 c 128,-1,64
 817 76 817 76 807 44.5 c 128,-1,65
 797 13 797 13 794 -8 c 1,66,-1
 787 -8 l 1,67,68
 717 -11 717 -11 636.5 -94 c 128,-1,69
 556 -177 556 -177 556 -242 c 0,70,71
 556 -273 556 -273 574.5 -300.5 c 128,-1,72
 593 -328 593 -328 638 -328 c 0,73,74
 673 -328 673 -328 704.5 -316 c 128,-1,75
 736 -304 736 -304 753 -290 c 128,-1,76
 770 -276 770 -276 783.5 -264 c 128,-1,77
 797 -252 797 -252 800 -252 c 0,78,79
 801 -252 801 -252 803.5 -255 c 128,-1,80
 806 -258 806 -258 808 -264.5 c 128,-1,81
 810 -271 810 -271 810 -278 c 0,82,83
 810 -301 810 -301 800 -314 c 0,84,85
 700 -446 700 -446 590 -446 c 0,86,87
 538 -446 538 -446 504 -417.5 c 128,-1,88
 470 -389 470 -389 459 -356.5 c 128,-1,89
 448 -324 448 -324 448 -292 c 0,90,91
 448 -214 448 -214 527 -118.5 c 128,-1,92
 606 -23 606 -23 673 -7 c 1,93,94
 665 -7 665 -7 520 -3.5 c 128,-1,95
 375 0 375 0 286 0 c 0,96,97
 250 0 250 0 187 -3 c 128,-1,98
 124 -6 124 -6 96 -6 c 1,99,100
 90 0 90 0 90 23 c 128,-1,101
 90 46 90 46 96 52 c 1,102,103
 117 52 117 52 160 58.5 c 128,-1,104
 203 65 203 65 206 74 c 0,105,106
 212 96 212 96 212 172 c 2,107,-1
 212 724 l 2,108,109
 212 800 212 800 206 822 c 0,110,111
 203 831 203 831 160 837.5 c 128,-1,112
 117 844 117 844 96 844 c 1,113,114
 90 850 90 850 90 873 c 128,-1,115
 90 896 90 896 96 902 c 1,116,117
 246 892 246 892 286 892 c 0,0,1
EndSplineSet
EndChar
StartChar: exclam.sc
Encoding: 65580 -1 732
Width: 508
VWidth: 2128
Flags: W
LayerCount: 2
Fore
SplineSet
140 90 m 128,-1,1
 140 135 140 135 173.5 166.5 c 128,-1,2
 207 198 207 198 252 198 c 128,-1,3
 297 198 297 198 328.5 166.5 c 128,-1,4
 360 135 360 135 360 90 c 128,-1,5
 360 45 360 45 328.5 11.5 c 128,-1,6
 297 -22 297 -22 252 -22 c 128,-1,7
 207 -22 207 -22 173.5 11.5 c 128,-1,0
 140 45 140 45 140 90 c 128,-1,1
264 874 m 0,8,9
 308 874 308 874 332 845.5 c 128,-1,10
 356 817 356 817 356 786 c 0,11,12
 356 771 356 771 348 718.5 c 128,-1,13
 340 666 340 666 321 540 c 128,-1,14
 302 414 302 414 284 280 c 1,15,16
 270 266 270 266 250 264 c 1,17,18
 232 268 232 268 222 278 c 1,19,20
 162 724 162 724 162 786 c 0,21,22
 162 817 162 817 190 845.5 c 128,-1,23
 218 874 218 874 264 874 c 0,8,9
EndSplineSet
EndChar
StartChar: exclamdown.sc
Encoding: 65627 -1 779
Width: 508
VWidth: 2128
Flags: W
LayerCount: 2
Fore
SplineSet
368 762 m 128,-1,1
 368 717 368 717 334.5 685.5 c 128,-1,2
 301 654 301 654 256 654 c 128,-1,3
 211 654 211 654 179.5 685.5 c 128,-1,4
 148 717 148 717 148 762 c 128,-1,5
 148 807 148 807 179.5 840.5 c 128,-1,6
 211 874 211 874 256 874 c 128,-1,7
 301 874 301 874 334.5 840.5 c 128,-1,0
 368 807 368 807 368 762 c 128,-1,1
244 -22 m 0,8,9
 200 -22 200 -22 176 6.5 c 128,-1,10
 152 35 152 35 152 66 c 0,11,12
 152 81 152 81 160 133.5 c 128,-1,13
 168 186 168 186 187 312 c 128,-1,14
 206 438 206 438 224 572 c 1,15,16
 238 586 238 586 258 588 c 1,17,18
 276 584 276 584 286 574 c 1,19,20
 346 128 346 128 346 66 c 0,21,22
 346 35 346 35 318 6.5 c 128,-1,23
 290 -22 290 -22 244 -22 c 0,8,9
EndSplineSet
EndChar
StartChar: f.fl
Encoding: 65768 -1 958
Width: 628
Flags: W
LayerCount: 2
Back
SplineSet
807 1116 m 2,0,1
 807 1196 807 1196 797 1220 c 0,2,3
 782 1256 782 1256 675 1256 c 0,4,5
 674 1256 674 1256 673 1268.5 c 128,-1,6
 672 1281 672 1281 672.5 1294 c 128,-1,7
 673 1307 673 1307 677 1308 c 0,8,9
 815 1322 815 1322 961 1388 c 1,10,11
 968 1388 968 1388 975.5 1377.5 c 128,-1,12
 983 1367 983 1367 983 1356 c 1,13,14
 961 1292 961 1292 961 1182 c 2,15,-1
 961 232 l 2,16,17
 961 116 961 116 971 84 c 0,18,19
 975 70 975 70 1021.5 61 c 128,-1,20
 1068 52 1068 52 1097 52 c 1,21,22
 1103 44 1103 44 1103.5 23 c 128,-1,23
 1104 2 1104 2 1097 -6 c 1,24,25
 892 4 892 4 883 4 c 0,26,27
 848 4 848 4 815.5 2.5 c 128,-1,28
 783 1 783 1 741 -2 c 128,-1,29
 699 -5 699 -5 671 -6 c 1,30,31
 664 2 664 2 664.5 23 c 128,-1,32
 665 44 665 44 671 52 c 1,33,34
 700 52 700 52 746.5 61 c 128,-1,35
 793 70 793 70 797 84 c 0,36,37
 807 116 807 116 807 232 c 2,38,-1
 807 1116 l 2,0,1
EndSplineSet
Fore
SplineSet
867 1235 m 0,0,1
 910 1176.22987746 910 1176.22987746 910 1127 c 0,2,3
 910.977208556 1048.97460938 910.977208556 1048.97460938 859 1045 c 0,4,5
 813.686367339 1041.36621094 813.686367339 1041.36621094 784 1117 c 24,6,7
 714.093474917 1292.22223421 714.093474917 1292.22223421 530 1290.5 c 0,8,9
 459.470170519 1289.84017822 459.470170519 1289.84017822 420 1236 c 0,10,11
 347 1136.42270003 347 1136.42270003 347 949 c 2,12,-1
 347 848 l 2,13,14
 347 845 347 845 350.5 841.5 c 128,-1,15
 354 838 354 838 357 838 c 2,16,-1
 579 838 l 2,17,18
 586 838 586 838 587.5 836 c 128,-1,19
 589 834 589 834 589 819.5 c 0,20,21
 589 804 589 804 565 756 c 1,22,-1
 359 756 l 2,23,24
 355 756 355 756 351 752 c 128,-1,25
 347 748 347 748 347 744 c 2,26,-1
 347 269 l 1,27,28
 351 133 351 133 363 91 c 0,29,30
 367 77 367 77 415 64 c 128,-1,31
 463 51 463 51 483 51 c 0,32,33
 490 51 490 51 491.5 26.5 c 128,-1,34
 493 2 493 2 489 -7 c 1,35,36
 289 3 289 3 275.5 3 c 128,-1,37
 262 3 262 3 57 -7 c 1,38,39
 49 1 49 1 49 26 c 128,-1,40
 49 51 49 51 57 51 c 0,41,42
 81 51 81 51 128 63.5 c 128,-1,43
 175 76 175 76 179 91 c 0,44,45
 193 143 193 143 193 231 c 2,46,-1
 193 742 l 2,47,48
 193 756 193 756 183 756 c 2,49,-1
 77 756 l 2,50,51
 71 756 71 756 71 774 c 0,52,53
 71 785 71 785 91.5 811.5 c 128,-1,54
 112 838 112 838 129 838 c 2,55,-1
 185 838 l 2,56,57
 195 838 195 838 195 850 c 2,58,-1
 195 875 l 2,59,60
 195 980 195 980 226 1072 c 128,-1,61
 257 1164 257 1164 313.5 1231.5 c 0,62,63
 412.141823684 1353.21550486 412.141823684 1353.21550486 542.5 1363 c 0,64,65
 760.615529966 1380.40065908 760.615529966 1380.40065908 867 1235 c 0,0,1
EndSplineSet
EndChar
StartChar: f_f
Encoding: 65536 -1 431
Width: 1120
Flags: W
LayerCount: 2
Fore
SplineSet
1001 1288 m 0,0,1
 855 1288 855 1288 855 1008 c 2,2,-1
 855 864 l 1,3,-1
 1085 864 l 2,4,5
 1095 864 1095 864 1095 842 c 0,6,7
 1095 810 1095 810 1067 782 c 1,8,-1
 855 782 l 1,9,-1
 855 232 l 2,10,11
 855 116 855 116 865 84 c 0,12,13
 869 70 869 70 919 61 c 128,-1,14
 969 52 969 52 999 52 c 1,15,16
 1005 44 1005 44 1005.5 23 c 128,-1,17
 1006 2 1006 2 999 -6 c 1,18,19
 794 4 794 4 777 4 c 0,20,21
 742 4 742 4 709.5 2.5 c 128,-1,22
 677 1 677 1 635 -2 c 128,-1,23
 593 -5 593 -5 565 -6 c 1,24,25
 558 2 558 2 558.5 23 c 128,-1,26
 559 44 559 44 565 52 c 1,27,28
 594 52 594 52 640.5 61 c 128,-1,29
 687 70 687 70 691 84 c 0,30,31
 701 116 701 116 701 232 c 2,32,-1
 701 782 l 1,33,-1
 345 782 l 1,34,-1
 345 232 l 2,35,36
 345 116 345 116 355 84 c 0,37,38
 359 70 359 70 409 61 c 128,-1,39
 459 52 459 52 489 52 c 1,40,41
 495 44 495 44 495.5 23 c 128,-1,42
 496 2 496 2 489 -6 c 1,43,44
 284 4 284 4 267 4 c 0,45,46
 232 4 232 4 199.5 2.5 c 128,-1,47
 167 1 167 1 125 -2 c 128,-1,48
 83 -5 83 -5 55 -6 c 1,49,50
 48 2 48 2 48.5 23 c 128,-1,51
 49 44 49 44 55 52 c 1,52,53
 84 52 84 52 130.5 61 c 128,-1,54
 177 70 177 70 181 84 c 0,55,56
 191 116 191 116 191 232 c 2,57,-1
 191 782 l 1,58,-1
 75 782 l 2,59,60
 69 782 69 782 69 800 c 0,61,62
 69 811 69 811 89.5 837.5 c 128,-1,63
 110 864 110 864 127 864 c 2,64,-1
 191 864 l 1,65,-1
 191 876 l 2,66,67
 191 982 191 982 254.5 1088 c 128,-1,68
 318 1194 318 1194 414.5 1260 c 128,-1,69
 511 1326 511 1326 603 1326 c 0,70,71
 686 1326 686 1326 751 1303.5 c 128,-1,72
 816 1281 816 1281 841 1254 c 1,73,74
 885 1311 885 1311 955.5 1352.5 c 128,-1,75
 1026 1394 1026 1394 1097 1394 c 0,76,77
 1122 1394 1122 1394 1146 1385.5 c 128,-1,78
 1170 1377 1170 1377 1181 1368 c 1,79,80
 1193 1344 1193 1344 1193 1314 c 0,81,82
 1193 1275 1193 1275 1170.5 1250.5 c 128,-1,83
 1148 1226 1148 1226 1123 1226 c 0,84,85
 1104 1226 1104 1226 1085 1236 c 128,-1,86
 1066 1246 1066 1246 1055 1260 c 0,87,88
 1031 1288 1031 1288 1001 1288 c 0,0,1
731 1110 m 0,89,90
 733 1114 733 1114 735.5 1119 c 128,-1,91
 738 1124 738 1124 739.5 1127 c 128,-1,92
 741 1130 741 1130 741 1132 c 128,-1,93
 741 1134 741 1134 739 1140 c 0,94,95
 734 1151 734 1151 724 1166 c 128,-1,96
 714 1181 714 1181 693.5 1201 c 128,-1,97
 673 1221 673 1221 637.5 1234.5 c 128,-1,98
 602 1248 602 1248 559 1248 c 0,99,100
 501 1248 501 1248 458 1218.5 c 128,-1,101
 415 1189 415 1189 391 1137 c 128,-1,102
 367 1085 367 1085 356 1025 c 128,-1,103
 345 965 345 965 345 894 c 2,104,-1
 345 864 l 1,105,-1
 701 864 l 1,106,-1
 701 932 l 2,107,108
 701 961 701 961 711 1019.5 c 128,-1,109
 721 1078 721 1078 731 1110 c 0,89,90
EndSplineSet
LCarets2: 1 530 
Ligature2: "'liga' Standard Ligatures lookup 0-1" f f
EndChar
